<?xml version="1.0" encoding="UTF-8" standalone="no"?>
<!-- Created with Inkscape (http://www.inkscape.org/) -->
<svg id="svg2985" xmlns:rdf="http://www.w3.org/1999/02/22-rdf-syntax-ns#" xmlns="http://www.w3.org/2000/svg" height="24" width="24" version="1.1" xmlns:cc="http://creativecommons.org/ns#" xmlns:dc="http://purl.org/dc/elements/1.1/">
 <metadata id="metadata2990">
  <rdf:RDF>
   <cc:Work rdf:about="">
    <dc:format>image/svg+xml</dc:format>
    <dc:type rdf:resource="http://purl.org/dc/dcmitype/StillImage"/>
    <dc:title/>
   </cc:Work>
  </rdf:RDF>
 </metadata>
 <path id="path3883" style="stroke:#000;fill:none" d="m19.127 8s0.16712 2.6654 0.17699 4c0.0067 0.91141-0.03349 2.278-0.0754 3.4167-0.04192 1.1387-0.03545 2.0206-0.76399 2.0496-3.9686 0.15787-13.534 0.025-13.534 0.025-5e-7 0-0.84015-0.08369-0.93661-1.4532-0.0962-1.369-0.2455-4.025 0.1334-5.038 0.2532-0.677 0.7166-1.4898 1.4248-1.6354 0.4784-0.0984 1.0348 0.2392 1.3204 0.6354 0.3929 0.545 0.2548 2 0.2548 2v-4.4115c0-0.19617 0.00497-0.37296 0.05717-0.5885 0.111-0.4582 0.5222-1.0309 0.9428-1.2124 0.3061-0.1321 0.6793-0.1391 1.1021-0.099 0.6595 0.0625 0.9865 0.6949 0.9865 0.6949l-0.08849 4 0.08496-4.341s0.23127-0.85367 0.78761-1.0425c0.4974-0.16881 1.1093-0.20003 1.5752 0.042478 0.48041 0.25004 0.55221 0.95752 0.55221 0.95752v4-3.5327c0.30876-0.28919 0.50935-0.47946 0.83213-0.58031 0.44114-0.13783 0.93904-0.19387 1.3865 0.00459 0.75487 0.33481 0.78135 1.1085 0.78135 1.1085v3.7965-2.7965s0.42111-0.76296 0.90042-0.95732c0.5296-0.21476 0.78047-0.18493 1.1565-0.085355 0.42101 0.1115 0.92045 0.53082 0.9431 1.0427z"/>
</svg>
