<?xml version="1.0" encoding="UTF-8" standalone="no"?>
<!-- Created with Inkscape (http://www.inkscape.org/) -->

<svg
   xmlns:dc="http://purl.org/dc/elements/1.1/"
   xmlns:cc="http://creativecommons.org/ns#"
   xmlns:rdf="http://www.w3.org/1999/02/22-rdf-syntax-ns#"
   xmlns:svg="http://www.w3.org/2000/svg"
   xmlns="http://www.w3.org/2000/svg"
   version="1.1"
   width="24"
   height="24"
   id="svg2985">
  <defs
     id="defs2987" />
  <metadata
     id="metadata2990">
    <rdf:RDF>
      <cc:Work
         rdf:about="">
        <dc:format>image/svg+xml</dc:format>
        <dc:type
           rdf:resource="http://purl.org/dc/dcmitype/StillImage" />
        <dc:title></dc:title>
      </cc:Work>
    </rdf:RDF>
  </metadata>
  <path
     d=""
     id="path3022"
     style="fill:none" />
  <path
     d=""
     id="path3020"
     style="fill:none" />
  <path
     d="m 19.127425,8.0000003 c 0,0 0.167121,2.6653987 0.176991,3.9999997 0.0067,0.911414 -0.03349,2.277979 -0.0754,3.416691 -0.04192,1.138712 -0.03545,2.02059 -0.763986,2.049571 -3.968619,0.157871 -13.534211,0.025 -13.534211,0.025 -5e-7,0 -0.8401493,-0.08369 -0.9366065,-1.453163 C 3.8977555,14.668623 3.7485294,12.01336 4.1274248,11 4.3806331,10.322792 4.8440227,9.5102198 5.5522036,9.364601 6.0306233,9.266231 6.5869722,9.6037628 6.8725575,9.9999998 7.2655109,10.545206 7.1274248,12 7.1274248,12 c 0,0 0,-2.941003 0,-4.4115041 0,-0.1961652 0.00497,-0.3729605 0.05717,-0.5884956 C 7.2955579,6.5418415 7.7067945,5.9691351 8.1274248,5.7876109 8.4334751,5.655534 8.8066521,5.6484648 9.229529,5.6885529 9.889005,5.7510709 10.21592,6.3834808 10.21592,6.3834808 l -0.08849,4.0000002 0.08496,-4.3410031 c 0,0 0.231267,-0.8536673 0.78761,-1.0424779 0.497401,-0.1688066 1.109288,-0.2000282 1.575222,0.042478 0.480409,0.2500402 0.552212,0.9575224 0.552212,0.9575224 l 0,3.9999994 0,-3.5327428 c 0.308765,-0.2891879 0.509353,-0.4794596 0.832133,-0.5803058 0.441143,-0.1378261 0.939035,-0.1938742 1.386508,0.00459 0.754873,0.3348077 0.78135,1.1084562 0.78135,1.1084562 l 0,3.7964596 0,-2.7964596 c 0,0 0.421108,-0.7629577 0.90042,-0.9573227 0.529602,-0.2147587 0.780473,-0.1849348 1.156483,-0.085355 0.421007,0.111497 0.920448,0.5308174 0.943097,1.0426773 z"
     id="path3883"
     style="fill:none;stroke:#000000;stroke-width:1;stroke-linecap:butt;stroke-linejoin:miter;stroke-miterlimit:4;stroke-opacity:1;stroke-dasharray:none" />
</svg>
