<?xml version="1.0" encoding="UTF-8" standalone="no"?>
<!-- Created with Inkscape (http://www.inkscape.org/) -->

<svg
   xmlns:dc="http://purl.org/dc/elements/1.1/"
   xmlns:cc="http://creativecommons.org/ns#"
   xmlns:rdf="http://www.w3.org/1999/02/22-rdf-syntax-ns#"
   xmlns:svg="http://www.w3.org/2000/svg"
   xmlns="http://www.w3.org/2000/svg"
   version="1.1"
   width="16"
   height="16"
   id="svg3002">
  <defs
     id="defs3004" />
  <metadata
     id="metadata3007">
    <rdf:RDF>
      <cc:Work
         rdf:about="">
        <dc:format>image/svg+xml</dc:format>
        <dc:type
           rdf:resource="http://purl.org/dc/dcmitype/StillImage" />
        <dc:title></dc:title>
      </cc:Work>
    </rdf:RDF>
  </metadata>
  <g
     id="layer1" />
  <g
     transform="matrix(0.99122251,-0.13220413,0.13220413,0.99122251,-0.88125696,1.7762993)"
     id="g6012">
    <g
       transform="matrix(0.89523884,0.4455866,-0.4455866,0.89523884,8.1263186,12.158158)"
       id="g5886"
       style="stroke:#000000;stroke-width:0.5;stroke-linejoin:bevel;stroke-miterlimit:4;stroke-opacity:1;stroke-dasharray:none">
      <path
         d="m 1.352,-0.365 0.645,-0.174 0.032,-0.005 0.761,0.29 0,0.508 L 2.029,0.544 1.997,0.539 1.352,0.365 0.992,0.989 1.466,1.46 1.486,1.486 1.614,2.289 1.175,2.543 0.544,2.029 0.532,1.999 0.36,1.353 l -0.72,0 -0.172,0.646 -0.012,0.03 -0.631,0.514 -0.439,-0.254 0.128,-0.803 0.02,-0.026 0.474,-0.471 -0.36,-0.624 -0.645,0.174 -0.032,0.005 -0.761,-0.29 0,-0.508 0.761,-0.29 0.032,0.005 0.645,0.174 0.36,-0.624 -0.474,-0.471 -0.02,-0.026 -0.128,-0.803 0.439,-0.254 0.631,0.514 0.012,0.03 0.172,0.646 0.72,0 0.172,-0.646 0.012,-0.03 0.631,-0.514 0.439,0.254 -0.128,0.803 -0.02,0.026 -0.474,0.471 z"
         id="path5888"
         style="fill:none;stroke:#000000;stroke-width:0.5;stroke-linejoin:bevel;stroke-miterlimit:4;stroke-opacity:1;stroke-dasharray:none" />
    </g>
    <path
       d="m 2.380993,1.8182105 a 0.78870392,0.78870392 0 1 1 -1.57740783,0 0.78870392,0.78870392 0 1 1 1.57740783,0 z"
       transform="matrix(0.68294143,0,0,0.68294143,7.0388784,10.916427)"
       id="path5998"
       style="opacity:0.90833285;color:#000000;fill:none;stroke:#000000;stroke-width:0.30000001;stroke-linecap:round;stroke-linejoin:bevel;stroke-miterlimit:4;stroke-opacity:1;stroke-dasharray:none;stroke-dashoffset:0;marker:none;visibility:visible;display:inline;overflow:visible;enable-background:accumulate" />
  </g>
  <g
     transform="translate(-0.56548587,-1.2500213)"
     id="g6017">
    <g
       transform="translate(11.578759,5.8485274)"
       id="g5922"
       style="stroke:#000000;stroke-width:0.5;stroke-linejoin:bevel;stroke-miterlimit:4;stroke-opacity:1;stroke-dasharray:none">
      <path
         d="m 2.766,-0.443 0.639,-0.103 0.053,-0.002 0.733,0.251 0,0.594 L 3.458,0.548 3.405,0.546 2.766,0.443 2.498,1.267 3.075,1.56 3.12,1.59 3.565,2.223 3.216,2.704 2.476,2.476 2.434,2.443 1.977,1.984 1.276,2.494 1.571,3.07 1.59,3.12 1.578,3.894 1.012,4.078 0.548,3.458 0.533,3.407 l -0.1,-0.64 -0.866,0 -0.1,0.64 -0.015,0.051 -0.464,0.62 L -1.578,3.894 -1.59,3.12 -1.571,3.07 -1.276,2.494 -1.977,1.984 -2.434,2.443 -2.476,2.476 -3.216,2.704 -3.565,2.223 -3.12,1.59 -3.075,1.56 -2.498,1.267 -2.766,0.443 -3.405,0.546 -3.458,0.548 -4.191,0.297 l 0,-0.594 0.733,-0.251 0.053,0.002 0.639,0.103 0.268,-0.824 -0.577,-0.293 -0.045,-0.03 -0.445,-0.633 0.349,-0.481 0.74,0.228 0.042,0.033 0.457,0.459 0.701,-0.51 -0.295,-0.576 -0.019,-0.05 0.012,-0.774 0.566,-0.184 0.464,0.62 0.015,0.051 0.1,0.64 0.866,0 0.1,-0.64 0.015,-0.051 0.464,-0.62 0.566,0.184 0.012,0.774 -0.019,0.05 -0.295,0.576 0.701,0.51 0.457,-0.459 0.042,-0.033 0.74,-0.228 0.349,0.481 -0.445,0.633 -0.045,0.03 -0.577,0.293 z"
         id="path5924"
         style="fill:none;stroke:#000000;stroke-width:0.5;stroke-linejoin:bevel;stroke-miterlimit:4;stroke-opacity:1;stroke-dasharray:none" />
    </g>
    <path
       d="m 2.380993,1.8182105 a 0.78870392,0.78870392 0 1 1 -1.57740783,0 0.78870392,0.78870392 0 1 1 1.57740783,0 z"
       transform="matrix(0.96829414,0,0,0.96829414,10.036955,4.0879648)"
       id="use6002"
       style="opacity:0.90833285;color:#000000;fill:none;stroke:#000000;stroke-width:0.30000001;stroke-linecap:round;stroke-linejoin:bevel;stroke-miterlimit:4;stroke-opacity:1;stroke-dasharray:none;stroke-dashoffset:0;marker:none;visibility:visible;display:inline;overflow:visible;enable-background:accumulate" />
  </g>
  <g
     transform="translate(0.26786172,0.83334755)"
     id="g6022">
    <g
       transform="translate(4.167918,7.4259352)"
       id="g5902"
       style="stroke:#000000;stroke-width:0.5;stroke-linejoin:bevel;stroke-miterlimit:4;stroke-opacity:1;stroke-dasharray:none">
      <path
         d="M 2.06,-0.414 2.705,-0.543 2.747,-0.546 3.49,-0.28 3.49,0.28 2.747,0.546 2.705,0.543 2.06,0.414 1.749,1.164 2.296,1.528 2.329,1.556 2.666,2.27 2.27,2.666 1.556,2.329 1.528,2.296 1.164,1.749 0.414,2.06 0.543,2.705 0.546,2.747 0.28,3.49 -0.28,3.49 -0.546,2.747 -0.543,2.705 -0.414,2.06 -1.164,1.749 -1.528,2.296 -1.556,2.329 -2.27,2.666 -2.666,2.27 -2.329,1.556 -2.296,1.528 -1.749,1.164 -2.06,0.414 -2.705,0.543 -2.747,0.546 -3.49,0.28 l 0,-0.56 0.743,-0.266 0.042,0.003 0.645,0.129 0.311,-0.75 -0.547,-0.364 -0.033,-0.028 -0.337,-0.714 0.396,-0.396 0.714,0.337 0.028,0.033 0.364,0.547 0.75,-0.311 -0.129,-0.645 -0.003,-0.042 0.266,-0.743 0.56,0 0.266,0.743 -0.003,0.042 -0.129,0.645 0.75,0.311 0.364,-0.547 0.028,-0.033 0.714,-0.337 0.396,0.396 -0.337,0.714 -0.033,0.028 -0.547,0.364 z"
         id="path5904"
         style="fill:none;stroke:#000000;stroke-width:0.5;stroke-linejoin:bevel;stroke-miterlimit:4;stroke-opacity:1;stroke-dasharray:none" />
    </g>
    <path
       d="m 2.380993,1.8182105 a 0.78870392,0.78870392 0 1 1 -1.57740783,0 0.78870392,0.78870392 0 1 1 1.57740783,0 z"
       transform="matrix(0.96829414,0,0,0.96829414,2.6261138,5.6653726)"
       id="path6010"
       style="opacity:0.90833285;color:#000000;fill:none;stroke:#000000;stroke-width:0.30000001;stroke-linecap:round;stroke-linejoin:bevel;stroke-miterlimit:4;stroke-opacity:1;stroke-dasharray:none;stroke-dashoffset:0;marker:none;visibility:visible;display:inline;overflow:visible;enable-background:accumulate" />
  </g>
</svg>
