<?xml version="1.0" encoding="UTF-8" standalone="no"?>
<!-- Created with Inkscape (http://www.inkscape.org/) -->
<svg id="svg3002" xmlns:rdf="http://www.w3.org/1999/02/22-rdf-syntax-ns#" xmlns="http://www.w3.org/2000/svg" height="16" width="16" version="1.1" xmlns:cc="http://creativecommons.org/ns#" xmlns:dc="http://purl.org/dc/elements/1.1/">
 <metadata id="metadata3007">
  <rdf:RDF>
   <cc:Work rdf:about="">
    <dc:format>image/svg+xml</dc:format>
    <dc:type rdf:resource="http://purl.org/dc/dcmitype/StillImage"/>
    <dc:title/>
   </cc:Work>
  </rdf:RDF>
 </metadata>
 <g id="g6012" transform="matrix(.99122 -.13220 .13220 .99122 -.88126 1.7763)">
  <g id="g5886" style="stroke-linejoin:bevel;stroke:#000;stroke-width:.5" transform="matrix(.89524 .44559 -.44559 .89524 8.1263 12.158)">
   <path id="path5888" style="stroke-linejoin:bevel;stroke:#000;stroke-width:.5;fill:none" d="m1.352-0.365 0.645-0.174 0.032-0.005 0.761 0.29v0.508l-0.761 0.29-0.032-0.005-0.645-0.174-0.36 0.624 0.474 0.471 0.02 0.026 0.128 0.803-0.439 0.254-0.631-0.514-0.012-0.03-0.172-0.646h-0.72l-0.172 0.646-0.012 0.03-0.631 0.514-0.439-0.254 0.128-0.803 0.02-0.026 0.474-0.471-0.36-0.624-0.645 0.174-0.032 0.005-0.761-0.29v-0.508l0.761-0.29 0.032 0.005 0.645 0.174 0.36-0.624-0.474-0.471-0.02-0.026-0.128-0.803 0.439-0.254 0.631 0.514 0.012 0.03 0.172 0.646h0.72l0.172-0.646 0.012-0.03 0.631-0.514 0.439 0.254-0.128 0.803-0.02 0.026-0.474 0.471z"/>
  </g>
  <path id="path5998" style="opacity:.90833;stroke-linejoin:bevel;stroke-width:0.3;color:#000000;stroke:#000;stroke-linecap:round;fill:none" d="m2.381 1.8182a0.7887 0.7887 0 1 1 -1.5774 0 0.7887 0.7887 0 1 1 1.5774 0z" transform="matrix(.68294 0 0 .68294 7.0389 10.916)"/>
 </g>
 <g id="g6017" transform="translate(-.56549 -1.25)">
  <g id="g5922" style="stroke-linejoin:bevel;stroke:#000;stroke-width:.5" transform="translate(11.579 5.8485)">
   <path id="path5924" style="stroke-linejoin:bevel;stroke:#000;stroke-width:.5;fill:none" d="m2.766-0.443 0.639-0.103 0.053-0.002 0.733 0.251v0.594l-0.733 0.251-0.053-0.002-0.639-0.103-0.268 0.824 0.577 0.293 0.045 0.03 0.445 0.633-0.349 0.481-0.74-0.228-0.042-0.033-0.457-0.459-0.701 0.51 0.295 0.576 0.019 0.05-0.012 0.774-0.566 0.184-0.464-0.62-0.015-0.051-0.1-0.64h-0.866l-0.1 0.64-0.015 0.051-0.464 0.62-0.566-0.184-0.012-0.774 0.019-0.05 0.295-0.576-0.701-0.51-0.457 0.459-0.042 0.033-0.74 0.228-0.349-0.481 0.445-0.633 0.045-0.03 0.577-0.293-0.268-0.824-0.639 0.103-0.053 0.002-0.733-0.251v-0.594l0.733-0.251 0.053 0.002 0.639 0.103 0.268-0.824-0.577-0.293-0.045-0.03-0.445-0.633 0.349-0.481 0.74 0.228 0.042 0.033 0.457 0.459 0.701-0.51-0.295-0.576-0.019-0.05 0.012-0.774 0.566-0.184 0.464 0.62 0.015 0.051 0.1 0.64h0.866l0.1-0.64 0.015-0.051 0.464-0.62 0.566 0.184 0.012 0.774-0.019 0.05-0.295 0.576 0.701 0.51 0.457-0.459 0.042-0.033 0.74-0.228 0.349 0.481-0.445 0.633-0.045 0.03-0.577 0.293z"/>
  </g>
  <path id="use6002" style="opacity:.90833;stroke-linejoin:bevel;stroke-width:0.3;color:#000000;stroke:#000;stroke-linecap:round;fill:none" d="m2.381 1.8182a0.7887 0.7887 0 1 1 -1.5774 0 0.7887 0.7887 0 1 1 1.5774 0z" transform="matrix(.96829 0 0 .96829 10.037 4.088)"/>
 </g>
 <g id="g6022" transform="translate(.26786 .83335)">
  <g id="g5902" style="stroke-linejoin:bevel;stroke:#000;stroke-width:.5" transform="translate(4.1679 7.4259)">
   <path id="path5904" style="stroke-linejoin:bevel;stroke:#000;stroke-width:.5;fill:none" d="m2.06-0.414 0.645-0.129 0.042-0.003 0.743 0.266v0.56l-0.743 0.266-0.042-0.003-0.645-0.129-0.311 0.75 0.547 0.364 0.033 0.028 0.337 0.714-0.396 0.396-0.714-0.337-0.028-0.033-0.364-0.547-0.75 0.311 0.129 0.645 0.003 0.042-0.266 0.743h-0.56l-0.266-0.743 0.003-0.042 0.129-0.645-0.75-0.311-0.364 0.547-0.028 0.033-0.714 0.337-0.396-0.396 0.337-0.714 0.033-0.028 0.547-0.364-0.311-0.75-0.645 0.129-0.042 0.003-0.743-0.266v-0.56l0.743-0.266 0.042 0.003 0.645 0.129 0.311-0.75-0.547-0.364-0.033-0.028-0.337-0.714 0.396-0.396 0.714 0.337 0.028 0.033 0.364 0.547 0.75-0.311-0.129-0.645-0.003-0.042 0.266-0.743h0.56l0.266 0.743-0.003 0.042-0.129 0.645 0.75 0.311 0.364-0.547 0.028-0.033 0.714-0.337 0.396 0.396-0.337 0.714-0.033 0.028-0.547 0.364z"/>
  </g>
  <path id="path6010" style="opacity:.90833;stroke-linejoin:bevel;stroke-width:0.3;color:#000000;stroke:#000;stroke-linecap:round;fill:none" d="m2.381 1.8182a0.7887 0.7887 0 1 1 -1.5774 0 0.7887 0.7887 0 1 1 1.5774 0z" transform="matrix(.96829 0 0 .96829 2.6261 5.6654)"/>
 </g>
</svg>
