<?xml version="1.0" encoding="UTF-8" standalone="no"?>
<!-- Created with Inkscape (http://www.inkscape.org/) -->

<svg
   xmlns:dc="http://purl.org/dc/elements/1.1/"
   xmlns:cc="http://creativecommons.org/ns#"
   xmlns:rdf="http://www.w3.org/1999/02/22-rdf-syntax-ns#"
   xmlns:svg="http://www.w3.org/2000/svg"
   xmlns="http://www.w3.org/2000/svg"
   xmlns:xlink="http://www.w3.org/1999/xlink"
   version="1.1"
   width="16"
   height="16"
   id="svg4494">
  <defs
     id="defs4496" />
  <metadata
     id="metadata4499">
    <rdf:RDF>
      <cc:Work
         rdf:about="">
        <dc:format>image/svg+xml</dc:format>
        <dc:type
           rdf:resource="http://purl.org/dc/dcmitype/StillImage" />
        <dc:title></dc:title>
      </cc:Work>
    </rdf:RDF>
  </metadata>
  <g
     id="layer1">
    <path
       d="M 7,7 7,3 5,3 8,1"
       id="path4504"
       style="fill:none;stroke:#000000;stroke-width:0.80000001;stroke-linecap:round;stroke-linejoin:round;stroke-miterlimit:4;stroke-opacity:1;stroke-dasharray:none" />
    <use
       transform="matrix(-1,0,0,1,16,0)"
       id="use5070"
       x="0"
       y="0"
       width="16"
       height="16"
       xlink:href="#path4504" />
    <use
       transform="matrix(0,-1,1,0,0,16)"
       id="use5072"
       x="0"
       y="0"
       width="16"
       height="16"
       xlink:href="#path4504" />
    <use
       transform="matrix(0,1,1,0,0,0)"
       id="use5074"
       x="0"
       y="0"
       width="16"
       height="16"
       xlink:href="#path4504" />
    <use
       transform="matrix(-1,0,0,1,16,0)"
       id="use5076"
       x="0"
       y="0"
       width="16"
       height="16"
       xlink:href="#use5072" />
    <use
       transform="matrix(-1,0,0,1,16,0)"
       id="use5078"
       x="0"
       y="0"
       width="16"
       height="16"
       xlink:href="#use5074" />
    <use
       transform="matrix(1,0,0,-1,0,16)"
       id="use5080"
       x="0"
       y="0"
       width="16"
       height="16"
       xlink:href="#path4504" />
    <use
       transform="matrix(1,0,0,-1,0,16)"
       id="use5082"
       x="0"
       y="0"
       width="16"
       height="16"
       xlink:href="#use5070" />
  </g>
</svg>
