<?xml version="1.0" encoding="UTF-8" standalone="no"?>
<!-- Created with Inkscape (http://www.inkscape.org/) -->

<svg
   xmlns:dc="http://purl.org/dc/elements/1.1/"
   xmlns:cc="http://creativecommons.org/ns#"
   xmlns:rdf="http://www.w3.org/1999/02/22-rdf-syntax-ns#"
   xmlns:svg="http://www.w3.org/2000/svg"
   xmlns="http://www.w3.org/2000/svg"
   xmlns:xlink="http://www.w3.org/1999/xlink"
   version="1.1"
   width="16"
   height="16"
   id="svg2988">
  <defs
     id="defs2990" />
  <metadata
     id="metadata2993">
    <rdf:RDF>
      <cc:Work
         rdf:about="">
        <dc:format>image/svg+xml</dc:format>
        <dc:type
           rdf:resource="http://purl.org/dc/dcmitype/StillImage" />
        <dc:title></dc:title>
      </cc:Work>
    </rdf:RDF>
  </metadata>
  <g
     id="layer1">
    <path
       d="M 7.2928932,8.7071068 5.4861295,6.9003431 c 0,0 -0.6588426,0.2517781 -1.3971425,0.2219199 C 2.7632068,7.068647 1.7175762,6.069431 1.5067552,4.8814477 1.3743905,4.1355654 1.6603924,3.4843047 1.6603924,3.4843047 L 3.074606,4.8985182 c 0,0 0.4835521,0.376977 0.8740483,0.2920864 0.3926279,-0.085354 0.7279438,-0.5140065 0.7279438,-0.5140065 l 0,0 0,0"
       id="path3006"
       style="fill:none;stroke:#000000;stroke-width:1px;stroke-linecap:round;stroke-linejoin:round;stroke-opacity:1" />
    <use
       transform="matrix(0,1,1,0,0,0)"
       id="use3008"
       x="0"
       y="0"
       width="16"
       height="16"
       xlink:href="#path3006" />
    <use
       transform="matrix(0,-1,-1,0,16,16)"
       id="use3010"
       x="0"
       y="0"
       width="16"
       height="16"
       xlink:href="#path3006" />
    <use
       transform="matrix(-1,0,0,-1,16,16)"
       id="use3012"
       x="0"
       y="0"
       width="16"
       height="16"
       xlink:href="#path3006" />
  </g>
</svg>
