<?xml version="1.0" encoding="UTF-8" standalone="no"?>
<!-- Created with Inkscape (http://www.inkscape.org/) -->
<svg id="svg2" xmlns:rdf="http://www.w3.org/1999/02/22-rdf-syntax-ns#" xmlns="http://www.w3.org/2000/svg" height="48" width="48" version="1.0" xmlns:cc="http://creativecommons.org/ns#" xmlns:dc="http://purl.org/dc/elements/1.1/">
 <metadata id="metadata7">
  <rdf:RDF>
   <cc:Work rdf:about="">
    <dc:format>image/svg+xml</dc:format>
    <dc:type rdf:resource="http://purl.org/dc/dcmitype/StillImage"/>
    <dc:title>Full Keyboard-Alpha.svg</dc:title>
    <cc:license rdf:resource="https://www.gnu.org/licenses/gpl.txt"/>
    <dc:creator>
     <cc:Agent>
      <dc:title>Onboard Devel Team at https://launchpad.net/~onboard</dc:title>
     </cc:Agent>
    </dc:creator>
    <dc:rights>
     <cc:Agent>
      <dc:title>GPL-3+ license</dc:title>
     </cc:Agent>
    </dc:rights>
    <dc:publisher>
     <cc:Agent>
      <dc:title>Onboard Devel Team</dc:title>
     </cc:Agent>
    </dc:publisher>
    <dc:source>https://launchpad.net/onboard</dc:source>
    <dc:relation>This file is part of Onboard</dc:relation>
    <dc:contributor>
     <cc:Agent>
      <dc:title>Copyright © 2016, Francesco Fumanti &lt;francesco.fumanti@gmx.net&gt;
Copyright © 2013, marmuta &lt;marmvta@gmail.com&gt;</dc:title>
     </cc:Agent>
    </dc:contributor>
   </cc:Work>
  </rdf:RDF>
 </metadata>
 <rect id="rect4765" style="fill:#fff;fill-opacity:.94018" rx="2.7108" ry="2.7109" height="22.945" width="22.945" y="22.648" x="2.4064"/>
 <rect id="rect2208" rx="2.0737" ry="2.0737" height="17.553" width="17.553" y="25.247" x="5.201"/>
 <rect id="rect4767" style="fill:#fff;fill-opacity:.94018" rx="2.7108" ry="2.7109" height="22.945" width="22.945" y="22.648" x="22.649"/>
 <rect id="rect4769" style="fill:#fff;fill-opacity:.94018" rx="2.7108" ry="2.7109" height="22.945" width="22.945" y="2.4065" x="22.649"/>
 <rect id="rect3835" style="fill:#fff;fill-opacity:.94018" rx="2.7108" ry="2.7109" height="22.945" width="22.945" y="2.4065" x="2.4064"/>
 <rect id="rect1307" rx="2.0737" ry="2.0737" height="17.553" width="17.553" y="5.2013" x="5.201"/>
 <rect id="rect2202" rx="2.0737" ry="2.0737" height="17.553" width="17.553" y="5.2013" x="25.247"/>
 <rect id="rect2210" rx="2.0737" ry="2.0737" height="17.553" width="17.553" y="25.247" x="25.247"/>
 <rect id="rect3837" style="fill:#fff" rx="1.1198" ry="1.1198" height="9.4789" width="9.4786" y="9.2446" x="29.284"/>
 <rect id="rect3839" style="fill:#fff" rx="1.1198" ry="1.1198" height="9.4789" width="9.4786" y="29.29" x="9.238"/>
 <rect id="rect3841" style="fill:#fff" rx="1.1198" ry="1.1198" height="9.4789" width="9.4786" y="29.29" x="29.284"/>
 <rect id="rect4763" style="fill:#fff" rx="1.1198" ry="1.1198" height="9.4789" width="9.4786" y="9.2446" x="9.238"/>
</svg>
