<?xml version="1.0" encoding="UTF-8" standalone="no"?>
<!-- Created with Inkscape (http://www.inkscape.org/) -->
<svg id="svg2" xmlns:rdf="http://www.w3.org/1999/02/22-rdf-syntax-ns#" xmlns="http://www.w3.org/2000/svg" height="48" width="48" version="1.0" xmlns:cc="http://creativecommons.org/ns#" xmlns:dc="http://purl.org/dc/elements/1.1/">
 <metadata id="metadata7">
  <rdf:RDF>
   <cc:Work rdf:about="">
    <dc:format>image/svg+xml</dc:format>
    <dc:type rdf:resource="http://purl.org/dc/dcmitype/StillImage"/>
    <dc:title/>
   </cc:Work>
  </rdf:RDF>
 </metadata>
 <g id="layer1" style="opacity:.96" transform="translate(0 -540.61)">
  <rect id="rect4765" style="fill:#fff;fill-opacity:.94018" rx="2.8245" ry="2.8245" height="23.907" width="23.907" y="563.2" x="1.5009"/>
  <rect id="rect2208" style="fill-opacity:.94018" rx="2.1818" ry="2.1818" height="18.468" width="18.468" y="565.92" x="4.2207"/>
  <rect id="rect4767" style="fill:#fff;fill-opacity:.94018" rx="2.8245" ry="2.8245" height="23.907" width="23.907" y="563.2" x="22.592"/>
  <rect id="rect4769" style="fill:#fff;fill-opacity:.94018" rx="2.8245" ry="2.8245" height="23.907" width="23.907" y="542.11" x="22.592"/>
  <rect id="rect3835" style="fill:#fff;fill-opacity:.94018" rx="2.8245" ry="2.8245" height="23.907" width="23.907" y="542.11" x="1.5009"/>
  <rect id="rect1307" style="fill-opacity:.94018" rx="2.1818" ry="2.1818" height="18.468" width="18.468" y="544.83" x="4.2207"/>
  <rect id="rect2202" style="fill-opacity:.94018" rx="2.1818" ry="2.1818" height="18.468" width="18.468" y="544.83" x="25.312"/>
  <rect id="rect2210" style="fill-opacity:.94018" rx="2.1818" ry="2.1818" height="18.468" width="18.468" y="565.92" x="25.312"/>
  <rect id="rect3837" style="fill:#fff" rx="1.3091" ry="1.3091" height="11.081" width="11.081" y="548.53" x="29.005"/>
  <rect id="rect3839" style="fill:#fff" rx="1.3091" ry="1.3091" height="11.081" width="11.081" y="569.62" x="7.9142"/>
  <rect id="rect3841" style="fill:#fff" rx="1.3091" ry="1.3091" height="11.081" width="11.081" y="569.62" x="29.005"/>
  <rect id="rect4763" style="fill:#fff" rx="1.3091" ry="1.3091" height="11.081" width="11.081" y="548.53" x="7.9142"/>
 </g>
</svg>
