<?xml version="1.0" encoding="UTF-8" standalone="no"?>
<!-- Created for Onboard -->
<svg id="svg2" xmlns:rdf="http://www.w3.org/1999/02/22-rdf-syntax-ns#" xmlns="http://www.w3.org/2000/svg" height="115" width="330" version="1.0" xmlns:cc="http://creativecommons.org/ns#" xmlns:dc="http://purl.org/dc/elements/1.1/">
 <title id="title3427">Compact-Alpha.svg</title>
 <metadata id="metadata3346">
  <rdf:RDF>
   <cc:Work rdf:about="">
    <dc:format>image/svg+xml</dc:format>
    <dc:type rdf:resource="http://purl.org/dc/dcmitype/StillImage"/>
    <dc:title>Compact-Alpha.svg</dc:title>
    <cc:license rdf:resource="https://www.gnu.org/licenses/gpl.txt"/>
    <dc:creator>
     <cc:Agent>
      <dc:title>Onboard Devel Team at https://launchpad.net/~onboard</dc:title>
     </cc:Agent>
    </dc:creator>
    <dc:rights>
     <cc:Agent>
      <dc:title>GPL-3+ license</dc:title>
     </cc:Agent>
    </dc:rights>
    <dc:publisher>
     <cc:Agent>
      <dc:title>Onboard Devel Team</dc:title>
     </cc:Agent>
    </dc:publisher>
    <dc:source>https://launchpad.net/onboard</dc:source>
    <dc:relation>This file is part of Onboard</dc:relation>
    <dc:contributor>
     <cc:Agent>
      <dc:title>Copyright © 2013, 2016, Francesco Fumanti &lt;francesco.fumanti@gmx.net&gt;
Copyright © 2011-2014, marmuta &lt;marmvta@gmail.com&gt;</dc:title>
     </cc:Agent>
    </dc:contributor>
   </cc:Work>
  </rdf:RDF>
 </metadata>
 <rect id="wordlist" style="stroke:#7f7f7f;stroke-width:.97169;fill:#151530" height="14.733" width="306.53" y="4.7905" x=".48584"/>
 <rect id="prediction" style="color:#000000;stroke:#7f7f7f;fill:#2b2b63" height="14.707" width="49" y="4.8035" x="110.5"/>
 <rect id="correction" style="color:#000000;stroke:#7f7f7f;fill:#2b2b63" height="14.707" width="49" y="4.8035" x="30.5"/>
 <rect id="expand-corrections" style="stroke:#7f7f7f;stroke-width:1.3143;fill:#2b2b63" height="14.707" width="17.273" y="4.8035" x="85.657"/>
 <rect id="AB01" style="stroke:#000;fill:#e5d8b2" height="18" width="18" y="77.5" x="47.5"/>
 <rect id="AE02" style="stroke:#000;fill:#e5d8b2" height="18" width="18" y="20.5" x="38"/>
 <rect id="AE03" style="stroke:#000;fill:#e5d8b2" height="18" width="18" y="20.5" x="57"/>
 <rect id="AD09" style="stroke:#000;fill:#e5d8b2" height="18" width="18" y="39.5" x="183"/>
 <rect id="AE01" style="stroke:#000;fill:#e5d8b2" height="18" width="18" y="20.5" x="19"/>
 <rect id="AE06" style="stroke:#000;fill:#e5d8b2" height="18" width="18" y="20.5" x="114"/>
 <rect id="AE07" style="stroke:#000;fill:#e5d8b2" height="18" width="18" y="20.5" x="133"/>
 <rect id="AE04" style="stroke:#000;fill:#e5d8b2" height="18" width="18" y="20.5" x="76"/>
 <rect id="AE05" style="stroke:#000;fill:#e5d8b2" height="18" width="18" y="20.5" x="95"/>
 <rect id="AD03" style="stroke:#000;fill:#e5d8b2" height="18" width="18" y="39.5" x="69"/>
 <rect id="AD02" style="stroke:#000;fill:#e5d8b2" height="18" width="18" y="39.5" x="50"/>
 <rect id="AD01" style="stroke:#000;fill:#e5d8b2" height="18" width="18" y="39.5" x="31"/>
 <rect id="AE09" style="stroke:#000;fill:#e5d8b2" height="18" width="18" y="20.5" x="171"/>
 <rect id="AD07" style="stroke:#000;fill:#e5d8b2" height="18" width="18" y="39.5" x="145"/>
 <rect id="AD06" style="stroke:#000;fill:#e5d8b2" height="18" width="18" y="39.5" x="126"/>
 <rect id="AD05" style="stroke:#000;fill:#e5d8b2" height="18" width="18" y="39.5" x="107"/>
 <rect id="AD04" style="stroke:#000;fill:#e5d8b2" height="18" width="18" y="39.5" x="88"/>
 <rect id="AB10" style="stroke:#000;fill:#e5d8b2" height="18" width="18" y="77.5" x="218.5"/>
 <rect id="AC11" style="stroke:#000;fill:#e5d8b2" height="18" width="18" y="58.5" x="225.5"/>
 <rect id="AC10" style="stroke:#000;fill:#e5d8b2" height="18" width="18" y="58.5" x="206.5"/>
 <rect id="TLDE" style="stroke:#000;fill:#e5d8b2" height="18" width="17.5" y="20.5" x=".5"/>
 <rect id="LSGT" style="stroke:#000;fill:#e5d8b2" height="18" width="18" y="77.5" x="28.5"/>
 <rect id="BKSL" style="stroke:#000;fill:#e5d8b2" height="18" width="18" y="58.5" x="244.5"/>
 <rect id="AD10" style="stroke:#000;fill:#e5d8b2" height="18" width="18" y="39.5" x="202"/>
 <rect id="AD11" style="stroke:#000;fill:#e5d8b2" height="18" width="18" y="39.5" x="221"/>
 <rect id="AD12" style="stroke:#000;fill:#e5d8b2" height="18" width="18" y="39.5" x="240"/>
 <rect id="AB08" style="stroke:#000;fill:#e5d8b2" height="18" width="18" y="77.5" x="180.5"/>
 <rect id="AE11" style="stroke:#000;fill:#e5d8b2" height="18" width="18" y="20.5" x="209"/>
 <rect id="AE10" style="stroke:#000;fill:#e5d8b2" height="18" width="18" y="20.5" x="190"/>
 <rect id="AE12" style="stroke:#000;fill:#e5d8b2" height="18" width="18" y="20.5" x="228"/>
 <rect id="AC04" style="stroke:#000;fill:#e5d8b2" height="18" width="18" y="58.5" x="92.5"/>
 <rect id="AC05" style="stroke:#000;fill:#e5d8b2" height="18" width="18" y="58.5" x="111.5"/>
 <rect id="AC06" style="stroke:#000;fill:#e5d8b2" height="18" width="18" y="58.5" x="130.5"/>
 <rect id="AC07" style="stroke:#000;fill:#e5d8b2" height="18" width="18" y="58.5" x="149.5"/>
 <rect id="AB09" style="stroke:#000;fill:#e5d8b2" height="18" width="18" y="77.5" x="199.5"/>
 <rect id="AC01" style="stroke:#000;fill:#e5d8b2" height="18" width="18" y="58.5" x="35.5"/>
 <rect id="AC02" style="stroke:#000;fill:#e5d8b2" height="18" width="18" y="58.5" x="54.5"/>
 <rect id="AC03" style="stroke:#000;fill:#e5d8b2" height="18" width="18" y="58.5" x="73.5"/>
 <rect id="AB05" style="stroke:#000;fill:#e5d8b2" height="18" width="18" y="77.5" x="123.5"/>
 <rect id="AB04" style="stroke:#000;fill:#e5d8b2" height="18" width="18" y="77.5" x="104.5"/>
 <rect id="AE08" style="stroke:#000;fill:#e5d8b2" height="18" width="18" y="20.5" x="152"/>
 <rect id="AB06" style="stroke:#000;fill:#e5d8b2" height="18" width="18" y="77.5" x="142.5"/>
 <rect id="AC08" style="stroke:#000;fill:#e5d8b2" height="18" width="18" y="58.5" x="168.5"/>
 <rect id="AC09" style="stroke:#000;fill:#e5d8b2" height="18" width="18" y="58.5" x="187.5"/>
 <rect id="AB03" style="stroke:#000;fill:#e5d8b2" height="18" width="18" y="77.5" x="85.5"/>
 <rect id="AB02" style="stroke:#000;fill:#e5d8b2" height="18" width="18" y="77.5" x="66.5"/>
 <rect id="AD08" style="stroke:#000;fill:#e5d8b2" height="18" width="18" y="39.5" x="164"/>
 <rect id="AB07" style="stroke:#000;fill:#e5d8b2" height="18" width="18" y="77.5" x="161.5"/>
 <rect id="RCTL" style="stroke:#000;fill:#f2e5d8" height="18" width="23" y="96.5" x="261"/>
 <rect id="LCTL" style="stroke:#000;fill:#f2e5d8" height="18" width="27" y="96.5" x=".5"/>
 <rect id="LALT" style="stroke:#000;fill:#f2e5d8" height="18" width="23" y="96.5" x="52.5"/>
 <rect id="MENU" style="stroke:#000;fill:#d8cca5" height="18" width="23" y="96.5" x="237"/>
 <rect id="RWIN" style="stroke:#000;fill:#d8cca5" height="18" width="23" y="96.5" x="213"/>
 <rect id="LWIN" style="stroke:#000;fill:#f2e5d8" height="18" width="23" y="96.5" x="28.5"/>
 <rect id="BKSP" style="stroke:#000;fill:#d8cca5" height="18" width="18" y="20.5" x="247"/>
 <rect id="DELE" style="stroke:#000;fill:#d8cca5" height="18" width="18" y="20.5" x="266"/>
 <rect id="TAB" style="stroke:#000;fill:#d8cca5" height="18" width="29.5" y="39.5" x=".5"/>
 <rect id="CAPS" style="stroke:#000;fill:#f2e5d8" height="18" width="34" y="58.5" x=".5"/>
 <rect id="RTRN_" style="stroke:#000;fill:#d8cca5" height="18" width="42" y="-57.319" x="250.37"/>
 <rect id="LFSH" style="stroke:#000;fill:#f2e5d8" height="18" width="27" y="77.5" x="0.5"/>
 <rect id="RTSH" style="stroke:#000;fill:#f2e5d8" height="18" width="46.5" y="77.5" x="237.5"/>
 <rect id="SPCE" style="stroke:#000;fill:#e5d8b2" height="18" width="108.5" y="96.5" x="76.5"/>
 <rect id="RALT" style="stroke:#000;fill:#f2e5d8" height="18" width="22" y="96.5" x="186"/>
 <rect id="LEFT" style="stroke:#000;fill:#d8cca5" height="18" width="18" y="96.5" x="209"/>
 <rect id="RGHT" style="stroke:#000;fill:#d8cca5" height="18" width="18" y="96.5" x="228"/>
 <rect id="UP" style="stroke:#000;fill:#d8cca5" height="18" width="18" y="96.5" x="247"/>
 <rect id="DOWN" style="stroke:#000;fill:#d8cca5" height="18" width="18" y="96.5" x="266"/>
 <rect id="middleclick" style="stroke:#000;fill:#d8cca5" height="18" width="18" y="20.5" x="285"/>
 <rect id="secondaryclick" style="stroke:#000;fill:#d8cca5" height="18" width="18" y="39.5" x="285"/>
 <rect id="doubleclick" style="stroke:#000;fill:#d8cca5" height="18" width="18" y="58.5" x="285"/>
 <rect id="dragclick" style="stroke:#000;fill:#d8cca5" height="18" width="18" y="77.5" x="285"/>
 <rect id="hoverclick" style="stroke:#000;fill:#d8cca5" height="18" width="18" y="96.5" x="285"/>
 <rect id="hide" style="stroke:#000;fill:#e5d8b2" height="18" width="25" y="20.5" x="304"/>
 <rect id="showclick" style="stroke:#000;fill:#e5d8b2" height="18" width="12" y="39.5" x="304"/>
 <rect id="move" style="stroke:#000;fill:#e5d8b2" height="18" width="12" y="39.5" x="317"/>
 <rect id="layer0" style="stroke:#000;fill:#e5d8b2" height="18" width="25" y="58.5" x="304"/>
 <rect id="layer1" style="stroke:#000;fill:#e5d8b2" height="18" width="25" y="77.5" x="304"/>
 <rect id="layer2" style="stroke:#000;fill:#e5d8b2" height="18" width="25" y="96.5" x="304"/>
 <rect id="inputline" style="stroke:#000;fill:#151530;fill-opacity:.59361" height="18" width="246" y="-53.768" x="-50.212"/>
 <rect id="move.wordlist" style="stroke:#000;fill:#e5d8b2" height="18" width="22" y="20.5" x="330"/>
 <rect id="showclick.wordlist" style="stroke:#000;fill:#e5d8b2" height="18" width="22" y="39.5" x="330"/>
 <rect id="layer0.wordlist" style="stroke:#000;fill:#e5d8b2" height="18" width="22" y="58.5" x="330"/>
 <rect id="layer1.wordlist" style="stroke:#000;fill:#e5d8b2" height="18" width="22" y="77.5" x="330"/>
 <rect id="layer2.wordlist" style="stroke:#000;fill:#e5d8b2" height="18" width="22" y="96.5" x="330"/>
 <rect id="hide.wordlist" style="stroke:#7f7f7f;fill:#2b2b63" height="14.707" width="18" y="4.8035" x="285.5"/>
 <rect id="language.wordlist" style="stroke:#7f7f7f;fill:#2b2b63" height="14.707" width="18" y="4.8035" x="265.5"/>
 <g id="RTRN">
  <path id="RTRN_100pct" style="stroke:#000;fill:#e5d8b2" d="m259 39.5h25v37h-20.5v-19h-4.5z"/>
  <path id="RTRN_50pct" style="opacity:.2;stroke:#000;fill:#e5d8b2" d="m263.75 44.25h15.5v27.5h-11v-19h-4.5z"/>
 </g>
 <rect id="pause-learning.wordlist" style="stroke:#7f7f7f;fill:#2b2b63" height="14.707" width="18" y="4.8035" x="245.5"/>
</svg>
