<?xml version="1.0" encoding="UTF-8" standalone="no"?>
<!-- Created for Onboard -->

<svg
   xmlns:dc="http://purl.org/dc/elements/1.1/"
   xmlns:cc="http://creativecommons.org/ns#"
   xmlns:rdf="http://www.w3.org/1999/02/22-rdf-syntax-ns#"
   xmlns:svg="http://www.w3.org/2000/svg"
   xmlns="http://www.w3.org/2000/svg"
   xmlns:sodipodi="http://sodipodi.sourceforge.net/DTD/sodipodi-0.dtd"
   xmlns:inkscape="http://www.inkscape.org/namespaces/inkscape"
   height="95"
   id="svg2"
   version="1.0"
   width="331"
   inkscape:version="0.48.2 r9819"
   sodipodi:docname="Compact-Alpha.svg">
  <metadata
     id="metadata3346">
    <rdf:RDF>
      <cc:Work
         rdf:about="">
        <dc:format>image/svg+xml</dc:format>
        <dc:type
           rdf:resource="http://purl.org/dc/dcmitype/StillImage" />
      </cc:Work>
    </rdf:RDF>
  </metadata>
  <defs
     id="defs3344" />
  <sodipodi:namedview
     pagecolor="#ffffff"
     bordercolor="#666666"
     borderopacity="1"
     objecttolerance="10"
     gridtolerance="10"
     guidetolerance="10"
     inkscape:pageopacity="0"
     inkscape:pageshadow="2"
     inkscape:window-width="1229"
     inkscape:window-height="823"
     id="namedview3342"
     showgrid="false"
     inkscape:zoom="2.3927627"
     inkscape:cx="152.8845"
     inkscape:cy="57.673919"
     inkscape:window-x="0"
     inkscape:window-y="26"
     inkscape:window-maximized="0"
     inkscape:current-layer="svg2" />
  <rect
     height="18"
     id="AB01"
     style="fill:#e5d8b2;stroke:#000000"
     width="18"
     x="45.5"
     y="57.5" />
  <rect
     height="18"
     id="AE02"
     style="fill:#e5d8b2;stroke:#000000"
     width="18"
     x="38.5"
     y="0.5" />
  <rect
     height="18"
     id="AE03"
     style="fill:#e5d8b2;stroke:#000000"
     width="18"
     x="57.5"
     y="0.5" />
  <rect
     height="18"
     id="AD09"
     style="fill:#e5d8b2;stroke:#000000"
     width="18"
     x="181.5"
     y="19.5" />
  <rect
     height="18"
     id="AE01"
     style="fill:#e5d8b2;stroke:#000000"
     width="18"
     x="19.5"
     y="0.5" />
  <rect
     height="18"
     id="AE06"
     style="fill:#e5d8b2;stroke:#000000"
     width="18"
     x="114.5"
     y="0.5" />
  <rect
     height="18"
     id="AE07"
     style="fill:#e5d8b2;stroke:#000000"
     width="18"
     x="133.5"
     y="0.5" />
  <rect
     height="18"
     id="AE04"
     style="fill:#e5d8b2;stroke:#000000"
     width="18"
     x="76.5"
     y="0.5" />
  <rect
     height="18"
     id="AE05"
     style="fill:#e5d8b2;stroke:#000000"
     width="18"
     x="95.5"
     y="0.5" />
  <rect
     height="18"
     id="AD03"
     style="fill:#e5d8b2;stroke:#000000"
     width="18"
     x="67.5"
     y="19.5" />
  <rect
     height="18"
     id="AD02"
     style="fill:#e5d8b2;stroke:#000000"
     width="18"
     x="48.5"
     y="19.5" />
  <rect
     height="18"
     id="AD01"
     style="fill:#e5d8b2;stroke:#000000"
     width="18"
     x="29.5"
     y="19.5" />
  <rect
     height="18"
     id="AE09"
     style="fill:#e5d8b2;stroke:#000000"
     width="18"
     x="171.5"
     y="0.5" />
  <rect
     height="18"
     id="AD07"
     style="fill:#e5d8b2;stroke:#000000"
     width="18"
     x="143.5"
     y="19.5" />
  <rect
     height="18"
     id="AD06"
     style="fill:#e5d8b2;stroke:#000000"
     width="18"
     x="124.5"
     y="19.5" />
  <rect
     height="18"
     id="AD05"
     style="fill:#e5d8b2;stroke:#000000"
     width="18"
     x="105.5"
     y="19.5" />
  <rect
     height="18"
     id="AD04"
     style="fill:#e5d8b2;stroke:#000000"
     width="18"
     x="86.5"
     y="19.5" />
  <rect
     height="18"
     id="AB10"
     style="fill:#e5d8b2;stroke:#000000"
     width="18"
     x="216.5"
     y="57.5" />
  <rect
     height="18"
     id="AC11"
     style="fill:#e5d8b2;stroke:#000000"
     width="18"
     x="224.5"
     y="38.5" />
  <rect
     height="18"
     id="AC10"
     style="fill:#e5d8b2;stroke:#000000"
     width="18"
     x="205.5"
     y="38.5" />
  <rect
     height="18"
     id="TLDE"
     style="fill:#e5d8b2;stroke:#000000"
     width="18"
     x="0.5"
     y="0.5" />
  <rect
     height="18"
     id="LSGT"
     style="fill:#e5d8b2;stroke:#000000"
     width="18"
     x="26.5"
     y="57.5" />
  <rect
     height="18"
     id="BKSL"
     style="fill:#e5d8b2;stroke:#000000"
     width="28"
     x="257.5"
     y="19.5" />
  <rect
     height="18"
     id="AD10"
     style="fill:#e5d8b2;stroke:#000000"
     width="18"
     x="200.5"
     y="19.5" />
  <rect
     height="18"
     id="AD11"
     style="fill:#e5d8b2;stroke:#000000"
     width="18"
     x="219.5"
     y="19.5" />
  <rect
     height="18"
     id="AD12"
     style="fill:#e5d8b2;stroke:#000000"
     width="18"
     x="238.5"
     y="19.5" />
  <rect
     height="18"
     id="AB08"
     style="fill:#e5d8b2;stroke:#000000"
     width="18"
     x="178.5"
     y="57.5" />
  <rect
     height="18"
     id="AE11"
     style="fill:#e5d8b2;stroke:#000000"
     width="18"
     x="209.5"
     y="0.5" />
  <rect
     height="18"
     id="AE10"
     style="fill:#e5d8b2;stroke:#000000"
     width="18"
     x="190.5"
     y="0.5" />
  <rect
     height="18"
     id="AE12"
     style="fill:#e5d8b2;stroke:#000000"
     width="18"
     x="228.5"
     y="0.5" />
  <rect
     height="18"
     id="AC04"
     style="fill:#e5d8b2;stroke:#000000"
     width="18"
     x="91.5"
     y="38.5" />
  <rect
     height="18"
     id="AC05"
     style="fill:#e5d8b2;stroke:#000000"
     width="18"
     x="110.5"
     y="38.5" />
  <rect
     height="18"
     id="AC06"
     style="fill:#e5d8b2;stroke:#000000"
     width="18"
     x="129.5"
     y="38.5" />
  <rect
     height="18"
     id="AC07"
     style="fill:#e5d8b2;stroke:#000000"
     width="18"
     x="148.5"
     y="38.5" />
  <rect
     height="18"
     id="AB09"
     style="fill:#e5d8b2;stroke:#000000"
     width="18"
     x="197.5"
     y="57.5" />
  <rect
     height="18"
     id="AC01"
     style="fill:#e5d8b2;stroke:#000000"
     width="18"
     x="34.5"
     y="38.5" />
  <rect
     height="18"
     id="AC02"
     style="fill:#e5d8b2;stroke:#000000"
     width="18"
     x="53.5"
     y="38.5" />
  <rect
     height="18"
     id="AC03"
     style="fill:#e5d8b2;stroke:#000000"
     width="18"
     x="72.5"
     y="38.5" />
  <rect
     height="18"
     id="AB05"
     style="fill:#e5d8b2;stroke:#000000"
     width="18"
     x="121.5"
     y="57.5" />
  <rect
     height="18"
     id="AB04"
     style="fill:#e5d8b2;stroke:#000000"
     width="18"
     x="102.5"
     y="57.5" />
  <rect
     height="18"
     id="AE08"
     style="fill:#e5d8b2;stroke:#000000"
     width="18"
     x="152.5"
     y="0.5" />
  <rect
     height="18"
     id="AB06"
     style="fill:#e5d8b2;stroke:#000000"
     width="18"
     x="140.5"
     y="57.5" />
  <rect
     height="18"
     id="AC08"
     style="fill:#e5d8b2;stroke:#000000"
     width="18"
     x="167.5"
     y="38.5" />
  <rect
     height="18"
     id="AC09"
     style="fill:#e5d8b2;stroke:#000000"
     width="18"
     x="186.5"
     y="38.5" />
  <rect
     height="18"
     id="AB03"
     style="fill:#e5d8b2;stroke:#000000"
     width="18"
     x="83.5"
     y="57.5" />
  <rect
     height="18"
     id="AB02"
     style="fill:#e5d8b2;stroke:#000000"
     width="18"
     x="64.5"
     y="57.5" />
  <rect
     height="18"
     id="AD08"
     style="fill:#e5d8b2;stroke:#000000"
     width="18"
     x="162.5"
     y="19.5" />
  <rect
     height="18"
     id="AB07"
     style="fill:#e5d8b2;stroke:#000000"
     width="18"
     x="159.5"
     y="57.5" />
  <rect
     height="18"
     id="RCTL"
     style="fill:#f2e5d8;stroke:#000000"
     width="23"
     x="262.5"
     y="76.5" />
  <rect
     height="18"
     id="LCTL"
     style="fill:#f2e5d8;stroke:#000000"
     width="27"
     x="0.5"
     y="76.5" />
  <rect
     height="18"
     id="LALT"
     style="fill:#f2e5d8;stroke:#000000"
     width="23"
     x="52.5"
     y="76.5" />
  <rect
     height="18"
     id="MENU"
     style="fill:#d8cca5;stroke:#000000"
     width="23"
     x="238.5"
     y="76.5" />
  <rect
     height="18"
     id="RWIN"
     style="fill:#d8cca5;stroke:#000000"
     width="23"
     x="214.5"
     y="76.5" />
  <rect
     height="18"
     id="LWIN"
     style="fill:#f2e5d8;stroke:#000000"
     width="23"
     x="28.5"
     y="76.5" />
  <rect
     height="18"
     id="BKSP"
     style="fill:#d8cca5;stroke:#000000"
     width="19"
     x="247.5"
     y="0.5" />
  <rect
     height="18"
     id="DELE"
     style="fill:#d8cca5;stroke:#000000"
     width="18"
     x="267.5"
     y="0.5" />
  <rect
     height="18"
     id="TAB"
     style="fill:#d8cca5;stroke:#000000"
     width="28"
     x="0.5"
     y="19.5" />
  <rect
     height="18"
     id="CAPS"
     style="fill:#f2e5d8;stroke:#000000"
     width="33"
     x="0.5"
     y="38.5" />
  <rect
     height="18"
     id="RTRN"
     style="fill:#d8cca5;stroke:#000000"
     width="42"
     x="243.5"
     y="38.5" />
  <rect
     height="18"
     id="LFSH"
     style="fill:#f2e5d8;stroke:#000000"
     width="25"
     x="0.5"
     y="57.5" />
  <rect
     height="18"
     id="RTSH"
     style="fill:#f2e5d8;stroke:#000000"
     width="50"
     x="235.5"
     y="57.5" />
  <rect
     height="18"
     id="SPCE"
     style="fill:#e5d8b2;stroke:#000000"
     width="110"
     x="76.5"
     y="76.5" />
  <rect
     height="18"
     id="RALT"
     style="fill:#f2e5d8;stroke:#000000"
     width="22"
     x="187.5"
     y="76.5" />
  <rect
     height="18"
     id="LEFT"
     style="fill:#d8cca5;stroke:#000000"
     width="18"
     x="210.5"
     y="76.5" />
  <rect
     height="18"
     id="RGHT"
     style="fill:#d8cca5;stroke:#000000"
     width="18"
     x="229.5"
     y="76.5" />
  <rect
     height="18"
     id="UP"
     style="fill:#d8cca5;stroke:#000000"
     width="18"
     x="248.5"
     y="76.5" />
  <rect
     height="18"
     id="DOWN"
     style="fill:#d8cca5;stroke:#000000"
     width="18"
     x="267.5"
     y="76.5" />
  <rect
     height="18"
     id="middleclick"
     style="fill:#d8cca5;stroke:#000000"
     width="18"
     x="286.5"
     y="0.5" />
  <rect
     height="18"
     id="secondaryclick"
     style="fill:#d8cca5;stroke:#000000"
     width="18"
     x="286.5"
     y="19.5" />
  <rect
     height="18"
     id="doubleclick"
     style="fill:#d8cca5;stroke:#000000"
     width="18"
     x="286.5"
     y="38.5" />
  <rect
     height="18"
     id="dragclick"
     style="fill:#d8cca5;stroke:#000000"
     width="18"
     x="286.5"
     y="57.5" />
  <rect
     height="18"
     id="hoverclick"
     style="fill:#d8cca5;stroke:#000000"
     width="18"
     x="286.5"
     y="76.5" />
  <rect
     height="18"
     id="hide"
     style="fill:#e5d8b2;stroke:#000000"
     width="25"
     x="305.5"
     y="0.5" />
  <rect
     height="18"
     id="showclick"
     style="fill:#e5d8b2;stroke:#000000"
     width="12"
     x="305.5"
     y="19.5" />
  <rect
     height="18"
     id="move"
     style="fill:#e5d8b2;stroke:#000000"
     width="12"
     x="318.5"
     y="19.5" />
  <rect
     height="18"
     id="layer0"
     style="fill:#e5d8b2;stroke:#000000"
     width="25"
     x="305.5"
     y="38.5" />
  <rect
     height="18"
     id="layer1"
     style="fill:#e5d8b2;stroke:#000000"
     width="25"
     x="305.5"
     y="57.5" />
  <rect
     height="18"
     id="layer2"
     style="fill:#e5d8b2;stroke:#000000"
     width="25"
     x="305.5"
     y="76.5" />
</svg>
