<?xml version="1.0" ?>
<!-- Created for Onboard -->
<svg height="98.0" id="svg2" version="1.0" width="294.0" xmlns="http://www.w3.org/2000/svg" xmlns:cc="http://web.resource.org/cc/" xmlns:dc="http://purl.org/dc/elements/1.1/" xmlns:rdf="http://www.w3.org/1999/02/22-rdf-syntax-ns#" xmlns:svg="http://www.w3.org/2000/svg">
    <rect height="18.0" id="AB01" style="fill:#e5d8b2;stroke:#000000;" width="18.0" x="45" y="57"/>
    <rect height="18.0" id="AE02" style="fill:#e5d8b2;stroke:#000000;" width="18.0" x="38" y="0"/>
    <rect height="18.0" id="AE03" style="fill:#e5d8b2;stroke:#000000;" width="18.0" x="57" y="0"/>
    <rect height="18.0" id="AD09" style="fill:#e5d8b2;stroke:#000000;" width="18.0" x="181" y="19"/>
    <rect height="18.0" id="AE01" style="fill:#e5d8b2;stroke:#000000;" width="18.0" x="19" y="0"/>
    <rect height="18.0" id="AE06" style="fill:#e5d8b2;stroke:#000000;" width="18.0" x="114" y="0"/>
    <rect height="18.0" id="AE07" style="fill:#e5d8b2;stroke:#000000;" width="18.0" x="133" y="0"/>
    <rect height="18.0" id="AE04" style="fill:#e5d8b2;stroke:#000000;" width="18.0" x="76" y="0"/>
    <rect height="18.0" id="AE05" style="fill:#e5d8b2;stroke:#000000;" width="18.0" x="95" y="0"/>
    <rect height="18.0" id="AD03" style="fill:#e5d8b2;stroke:#000000;" width="18.0" x="67" y="19"/>
    <rect height="18.0" id="AD02" style="fill:#e5d8b2;stroke:#000000;" width="18.0" x="48" y="19"/>
    <rect height="18.0" id="AD01" style="fill:#e5d8b2;stroke:#000000;" width="18.0" x="29" y="19"/>
    <rect height="18.0" id="AE09" style="fill:#e5d8b2;stroke:#000000;" width="18.0" x="171" y="0"/>
    <rect height="18.0" id="AD07" style="fill:#e5d8b2;stroke:#000000;" width="18.0" x="143" y="19"/>
    <rect height="18.0" id="AD06" style="fill:#e5d8b2;stroke:#000000;" width="18.0" x="124" y="19"/>
    <rect height="18.0" id="AD05" style="fill:#e5d8b2;stroke:#000000;" width="18.0" x="105" y="19"/>
    <rect height="18.0" id="AD04" style="fill:#e5d8b2;stroke:#000000;" width="18.0" x="86" y="19"/>
    <rect height="18.0" id="AB10" style="fill:#e5d8b2;stroke:#000000;" width="18.0" x="216" y="57"/>
    <rect height="18.0" id="AC11" style="fill:#e5d8b2;stroke:#000000;" width="18.0" x="224" y="38"/>
    <rect height="18.0" id="AC10" style="fill:#e5d8b2;stroke:#000000;" width="18.0" x="205" y="38"/>
    <rect height="18.0" id="TLDE" style="fill:#e5d8b2;stroke:#000000;" width="18.0" x="0" y="0"/>
    <rect height="18.0" id="LSGT" style="fill:#e5d8b2;stroke:#000000;" width="18.0" x="26" y="57"/>
    <rect height="18.0" id="BKSL" style="fill:#e5d8b2;stroke:#000000;" width="28.0" x="257" y="19"/>
    <rect height="18.0" id="AD10" style="fill:#e5d8b2;stroke:#000000;" width="18.0" x="200" y="19"/>
    <rect height="18.0" id="AD11" style="fill:#e5d8b2;stroke:#000000;" width="18.0" x="219" y="19"/>
    <rect height="18.0" id="AD12" style="fill:#e5d8b2;stroke:#000000;" width="18.0" x="238" y="19"/>
    <rect height="18.0" id="AB08" style="fill:#e5d8b2;stroke:#000000;" width="18.0" x="178" y="57"/>
    <rect height="18.0" id="AE11" style="fill:#e5d8b2;stroke:#000000;" width="18.0" x="209" y="0"/>
    <rect height="18.0" id="AE10" style="fill:#e5d8b2;stroke:#000000;" width="18.0" x="190" y="0"/>
    <rect height="18.0" id="AE12" style="fill:#e5d8b2;stroke:#000000;" width="18.0" x="228" y="0"/>
    <rect height="18.0" id="AC04" style="fill:#e5d8b2;stroke:#000000;" width="18.0" x="91" y="38"/>
    <rect height="18.0" id="AC05" style="fill:#e5d8b2;stroke:#000000;" width="18.0" x="110" y="38"/>
    <rect height="18.0" id="AC06" style="fill:#e5d8b2;stroke:#000000;" width="18.0" x="129" y="38"/>
    <rect height="18.0" id="AC07" style="fill:#e5d8b2;stroke:#000000;" width="18.0" x="148" y="38"/>
    <rect height="18.0" id="AB09" style="fill:#e5d8b2;stroke:#000000;" width="18.0" x="197" y="57"/>
    <rect height="18.0" id="AC01" style="fill:#e5d8b2;stroke:#000000;" width="18.0" x="34" y="38"/>
    <rect height="18.0" id="AC02" style="fill:#e5d8b2;stroke:#000000;" width="18.0" x="53" y="38"/>
    <rect height="18.0" id="AC03" style="fill:#e5d8b2;stroke:#000000;" width="18.0" x="72" y="38"/>
    <rect height="18.0" id="AB05" style="fill:#e5d8b2;stroke:#000000;" width="18.0" x="121" y="57"/>
    <rect height="18.0" id="AB04" style="fill:#e5d8b2;stroke:#000000;" width="18.0" x="102" y="57"/>
    <rect height="18.0" id="AE08" style="fill:#e5d8b2;stroke:#000000;" width="18.0" x="152" y="0"/>
    <rect height="18.0" id="AB06" style="fill:#e5d8b2;stroke:#000000;" width="18.0" x="140" y="57"/>
    <rect height="18.0" id="AC08" style="fill:#e5d8b2;stroke:#000000;" width="18.0" x="167" y="38"/>
    <rect height="18.0" id="AC09" style="fill:#e5d8b2;stroke:#000000;" width="18.0" x="186" y="38"/>
    <rect height="18.0" id="AB03" style="fill:#e5d8b2;stroke:#000000;" width="18.0" x="83" y="57"/>
    <rect height="18.0" id="AB02" style="fill:#e5d8b2;stroke:#000000;" width="18.0" x="64" y="57"/>
    <rect height="18.0" id="AD08" style="fill:#e5d8b2;stroke:#000000;" width="18.0" x="162" y="19"/>
    <rect height="18.0" id="AB07" style="fill:#e5d8b2;stroke:#000000;" width="18.0" x="159" y="57"/>
    <rect height="18.0" id="RCTL" style="fill:#f2e5d8;stroke:#000000;" width="23.0" x="262" y="76"/>
    <rect height="18.0" id="LCTL" style="fill:#f2e5d8;stroke:#000000;" width="27.0" x="0" y="76"/>
    <rect height="18.0" id="LALT" style="fill:#f2e5d8;stroke:#000000;" width="23.0" x="52" y="76"/>
    <rect height="18.0" id="MENU" style="fill:#d8cca5;stroke:#000000;" width="23.0" x="238" y="76"/>
    <rect height="18.0" id="RWIN" style="fill:#d8cca5;stroke:#000000;" width="23.0" x="214" y="76"/>
    <rect height="18.0" id="LWIN" style="fill:#f2e5d8;stroke:#000000;" width="23.0" x="28" y="76"/>
    <rect height="18.0" id="BKSP" style="fill:#d8cca5;stroke:#000000;" width="19.0" x="247" y="0"/>
    <rect height="18.0" id="DELE" style="fill:#d8cca5;stroke:#000000;" width="18.0" x="267" y="0"/>
    <rect height="18.0" id="TAB" style="fill:#d8cca5;stroke:#000000;" width="28.0" x="0" y="19"/>
    <rect height="18.0" id="CAPS" style="fill:#f2e5d8;stroke:#000000;" width="33.0" x="0" y="38"/>
    <rect height="18.0" id="RTRN" style="fill:#d8cca5;stroke:#000000;" width="42.0" x="243" y="38"/>
    <rect height="18.0" id="LFSH" style="fill:#f2e5d8;stroke:#000000;" width="25.0" x="0" y="57"/>
    <rect height="18.0" id="RTSH" style="fill:#f2e5d8;stroke:#000000;" width="50.0" x="235" y="57"/>
    <rect height="18.0" id="SPCE" style="fill:#e5d8b2;stroke:#000000;" width="110.0" x="76" y="76"/>
    <rect height="18.0" id="RALT" style="fill:#f2e5d8;stroke:#000000;" width="22.0" x="187" y="76"/>
    <rect height="18.0" id="LEFT" style="fill:#d8cca5;stroke:#000000;" width="18.0" x="210" y="76"/>
    <rect height="18.0" id="RGHT" style="fill:#d8cca5;stroke:#000000;" width="18.0" x="229" y="76"/>
    <rect height="18.0" id="UP"   style="fill:#d8cca5;stroke:#000000;" width="18.0" x="248" y="76"/>
    <rect height="18.0" id="DOWN" style="fill:#d8cca5;stroke:#000000;" width="18.0" x="267" y="76"/>

    <rect height="18.0" id="middleclick" style="fill:#d8cca5;stroke:#000000;" width="18.0" x="286" y="0"/>
    <rect height="18.0" id="secondaryclick" style="fill:#d8cca5;stroke:#000000;" width="18.0" x="286" y="19"/>
    <rect height="18.0" id="secondaryclick" style="fill:#d8cca5;stroke:#000000;" width="18.0" x="286" y="19"/>
    <rect height="18.0" id="doubleclick" style="fill:#d8cca5;stroke:#000000;" width="18.0" x="286" y="38"/>
    <rect height="18.0" id="drag" style="fill:#d8cca5;stroke:#000000;" width="18.0" x="286" y="57"/>
    <rect height="18.0" id="hoverclick" style="fill:#d8cca5;stroke:#000000;" width="18.0" x="286" y="76"/>

    <rect height="18.0" id="hide" style="fill:#e5d8b2;stroke:#000000;" width="25.0" x="305" y="0"/>
    <rect height="18.0" id="move" style="fill:#e5d8b2;stroke:#000000;" width="25.0" x="305" y="19"/>
    <rect height="18.0" id="showclick" style="fill:#d8cca5;stroke:#000000;" width="25.0" x="305" y="38"/>
    <rect height="18.0" id="layer0" style="fill:#e5d8b2;stroke:#000000;" width="25.0" x="305" y="38"/>
    <rect height="18.0" id="layer1" style="fill:#e5d8b2;stroke:#000000;" width="25.0" x="305" y="57"/>
</svg>
