<?xml version="1.0" ?>
<!-- Created for Onboard -->
<svg height="98" id="svg2" version="1" width="294" xmlns="http://www.w3.org/2000/svg" xmlns:cc="http://web.resource.org/cc/" xmlns:dc="http://purl.org/dc/elements/1.1/" xmlns:rdf="http://www.w3.org/1999/02/22-rdf-syntax-ns#" xmlns:svg="http://www.w3.org/2000/svg">
	<rect height="18" id="KPDL" style="fill:#d8cca5;stroke:#000000;" width="18" x="114" y="76"/>
	<rect height="18" id="NMLK" style="fill:#f2e5d8;stroke:#000000;" width="18" x="76" y="0"/>
	<rect height="37" id="KPEN" style="fill:#d8cca5;stroke:#000000;" width="18" x="133" y="57"/>
	<rect height="18" id="KP0" style="fill:#d8cca5;stroke:#000000;" width="37" x="76" y="76"/>
	<rect height="18" id="KP1" style="fill:#d8cca5;stroke:#000000;" width="18" x="76" y="57"/>
	<rect height="18" id="KP2" style="fill:#d8cca5;stroke:#000000;" width="18" x="95" y="57"/>
	<rect height="18" id="KP3" style="fill:#d8cca5;stroke:#000000;" width="18" x="114" y="57"/>
	<rect height="18" id="KP4" style="fill:#d8cca5;stroke:#000000;" width="18" x="76" y="38"/>
	<rect height="18" id="KP5" style="fill:#d8cca5;stroke:#000000;" width="18" x="95" y="38"/>
	<rect height="18" id="KP6" style="fill:#d8cca5;stroke:#000000;" width="18" x="114" y="38"/>
	<rect height="18" id="KP7" style="fill:#d8cca5;stroke:#000000;" width="18" x="76" y="19"/>
	<rect height="18" id="KP8" style="fill:#d8cca5;stroke:#000000;" width="18" x="95" y="19"/>
	<rect height="18" id="KP9" style="fill:#d8cca5;stroke:#000000;" width="18" x="114" y="19"/>
	<rect height="18" id="KPSU" style="fill:#e5d8b2;stroke:#000000;" width="18" x="133" y="0"/>
	<rect height="18" id="KPDV" style="fill:#e5d8b2;stroke:#000000;" width="18" x="95" y="0"/>
	<rect height="37" id="KPAD" style="fill:#e5d8b2;stroke:#000000;" width="18" x="133" y="19"/>
	<rect height="18" id="KPMU" style="fill:#e5d8b2;stroke:#000000;" width="18" x="114" y="0"/>
	
	<rect height="18" id="LEFT" style="fill:#d8cca5;stroke:#000000;" width="18" x="0" y="76"/>
	<rect height="18" id="RGHT" style="fill:#d8cca5;stroke:#000000;" width="18" x="38" y="76"/>
	<rect height="18" id="UP" style="fill:#d8cca5;stroke:#000000;" width="18" x="19" y="57"/>
	<rect height="18" id="DOWN" style="fill:#d8cca5;stroke:#000000;" width="18" x="19" y="76"/>
	<rect height="18" id="INS" style="fill:#d8cca5;stroke:#000000;" width="18" x="0" y="0"/>
	<rect height="18" id="DELE" style="fill:#d8cca5;stroke:#000000;" width="18" x="0" y="19"/>
	<rect height="18" id="HOME" style="fill:#d8cca5;stroke:#000000;" width="18" x="19" y="0"/>
	<rect height="18" id="END" style="fill:#d8cca5;stroke:#000000;" width="18" x="19" y="19"/>
	<rect height="18" id="PGUP" style="fill:#d8cca5;stroke:#000000;" width="18" x="38" y="0"/>
	<rect height="18" id="PGDN" style="fill:#d8cca5;stroke:#000000;" width="18" x="38" y="19"/>
	
	<rect height="24" id="m0" style="fill:#7f7fcc;stroke:#000000;" width="33" x="170" y="7"/>
	<rect height="24" id="m1" style="fill:#7f7fcc;stroke:#000000;" width="33" x="208" y="7"/>
	<rect height="24" id="m2" style="fill:#7f7fcc;stroke:#000000;" width="33" x="246" y="7"/>
	<rect height="24" id="m3" style="fill:#7f7fcc;stroke:#000000;" width="33" x="170" y="35"/>
	<rect height="24" id="m4" style="fill:#7f7fcc;stroke:#000000;" width="33" x="208" y="35"/>
	<rect height="24" id="m5" style="fill:#7f7fcc;stroke:#000000;" width="33" x="246" y="35"/>
	<rect height="24" id="m6" style="fill:#7f7fcc;stroke:#000000;" width="33" x="170" y="63"/>
	<rect height="24" id="m7" style="fill:#7f7fcc;stroke:#000000;" width="33" x="208" y="63"/>
	<rect height="24" id="m8" style="fill:#7f7fcc;stroke:#000000;" width="33" x="246" y="63"/>
</svg>
