<?xml version="1.0" encoding="UTF-8" standalone="no"?>
<!-- Created for Onboard -->
<svg id="svg2" xmlns:rdf="http://www.w3.org/1999/02/22-rdf-syntax-ns#" xmlns="http://www.w3.org/2000/svg" height="115" width="330" version="1" xmlns:cc="http://creativecommons.org/ns#" xmlns:dc="http://purl.org/dc/elements/1.1/">
 <title id="title3375">Compact-Numbers.svg</title>
 <metadata id="metadata43">
  <rdf:RDF>
   <cc:Work rdf:about="">
    <dc:format>image/svg+xml</dc:format>
    <dc:type rdf:resource="http://purl.org/dc/dcmitype/StillImage"/>
    <dc:title>Compact-Numbers.svg</dc:title>
    <cc:license rdf:resource="https://www.gnu.org/licenses/gpl.txt"/>
    <dc:creator>
     <cc:Agent>
      <dc:title>Onboard Devel Team at https://launchpad.net/~onboard</dc:title>
     </cc:Agent>
    </dc:creator>
    <dc:rights>
     <cc:Agent>
      <dc:title>GPL-3+ license</dc:title>
     </cc:Agent>
    </dc:rights>
    <dc:publisher>
     <cc:Agent>
      <dc:title>Onboard Devel Team</dc:title>
     </cc:Agent>
    </dc:publisher>
    <dc:source>https://launchpad.net/onboard</dc:source>
    <dc:relation>This file is part of Onboard</dc:relation>
    <dc:contributor>
     <cc:Agent>
      <dc:title>Copyright © 2013, 2016, Francesco Fumanti &lt;francesco.fumanti@gmx.net&gt;
Copyright © 2011-2014, marmuta &lt;marmvta@gmail.com&gt;</dc:title>
     </cc:Agent>
    </dc:contributor>
   </cc:Work>
  </rdf:RDF>
 </metadata>
 <rect id="KPDL" style="stroke:#000;fill:#d8cca5" height="18" width="18" y="96.5" x="247"/>
 <rect id="NMLK" style="stroke:#000;fill:#f2e5d8" height="18" width="18" y="20.5" x="209"/>
 <rect id="KPEN" style="stroke:#000;fill:#d8cca5" height="37" width="18" y="77.5" x="266"/>
 <rect id="KP0" style="stroke:#000;fill:#d8cca5" height="18" width="37" y="96.5" x="209"/>
 <rect id="KP1" style="stroke:#000;fill:#d8cca5" height="18" width="18" y="77.5" x="209"/>
 <rect id="KP2" style="stroke:#000;fill:#d8cca5" height="18" width="18" y="77.5" x="228"/>
 <rect id="KP3" style="stroke:#000;fill:#d8cca5" height="18" width="18" y="77.5" x="247"/>
 <rect id="KP4" style="stroke:#000;fill:#d8cca5" height="18" width="18" y="58.5" x="209"/>
 <rect id="KP5" style="stroke:#000;fill:#d8cca5" height="18" width="18" y="58.5" x="228"/>
 <rect id="KP6" style="stroke:#000;fill:#d8cca5" height="18" width="18" y="58.5" x="247"/>
 <rect id="KP7" style="stroke:#000;fill:#d8cca5" height="18" width="18" y="39.5" x="209"/>
 <rect id="KP8" style="stroke:#000;fill:#d8cca5" height="18" width="18" y="39.5" x="228"/>
 <rect id="KP9" style="stroke:#000;fill:#d8cca5" height="18" width="18" y="39.5" x="247"/>
 <rect id="KPSU" style="stroke:#000;fill:#e5d8b2" height="18" width="18" y="20.5" x="266"/>
 <rect id="KPDV" style="stroke:#000;fill:#e5d8b2" height="18" width="18" y="20.5" x="228"/>
 <rect id="KPAD" style="stroke:#000;fill:#e5d8b2" height="37" width="18" y="39.5" x="266"/>
 <rect id="KPMU" style="stroke:#000;fill:#e5d8b2" height="18" width="18" y="20.5" x="247"/>
 <rect id="LEFT" style="stroke:#000;fill:#d8cca5" height="18" width="18" y="96.5" x="145.84"/>
 <rect id="RGHT" style="stroke:#000;fill:#d8cca5" height="18" width="18" y="96.5" x="183.84"/>
 <rect id="UP" style="stroke:#000;fill:#d8cca5" height="18" width="18" y="77.5" x="164.84"/>
 <rect id="DOWN" style="stroke:#000;fill:#d8cca5" height="18" width="18" y="96.5" x="164.84"/>
 <rect id="INS" style="stroke:#000;fill:#d8cca5" height="18" width="18" y="20.5" x="145.84"/>
 <rect id="DELE" style="stroke:#000;fill:#d8cca5" height="18" width="18" y="39.5" x="145.84"/>
 <rect id="HOME" style="stroke:#000;fill:#d8cca5" height="18" width="18" y="20.5" x="164.84"/>
 <rect id="END" style="stroke:#000;fill:#d8cca5" height="18" width="18" y="39.5" x="164.84"/>
 <rect id="PGUP" style="stroke:#000;fill:#d8cca5" height="18" width="18" y="20.5" x="183.84"/>
 <rect id="PGDN" style="stroke:#000;fill:#d8cca5" height="18" width="18" y="39.5" x="183.84"/>
 <rect id="Pause" style="stroke:#000;fill:#e5d8b2" height="18" width="18" y="77.5" x="91.718"/>
 <rect id="Prnt" style="stroke:#000;fill:#e5d8b2" height="18" width="18" y="77.5" x="53.718"/>
 <rect id="Scroll" style="stroke:#000;fill:#e5d8b2" height="18" width="18" y="77.5" x="72.718"/>
 <rect id="F10" style="stroke:#000;fill:#e5d8b2" height="18" width="18" y="39.494" x="82.351"/>
 <rect id="F5" style="stroke:#000;fill:#e5d8b2" height="18" width="18" y="20.494" x="101.35"/>
 <rect id="F6" style="stroke:#000;fill:#e5d8b2" height="18" width="18" y="20.494" x="120.35"/>
 <rect id="F11" style="stroke:#000;fill:#e5d8b2" height="18" width="18" y="39.494" x="101.35"/>
 <rect id="F7" style="stroke:#000;fill:#e5d8b2" height="18" width="18" y="39.494" x="25.351"/>
 <rect id="F8" style="stroke:#000;fill:#e5d8b2" height="18" width="18" y="39.494" x="44.351"/>
 <rect id="F9" style="stroke:#000;fill:#e5d8b2" height="18" width="18" y="39.494" x="63.351"/>
 <rect id="F1" style="stroke:#000;fill:#e5d8b2" height="18" width="18" y="20.494" x="25.351"/>
 <rect id="F2" style="stroke:#000;fill:#e5d8b2" height="18" width="18" y="20.494" x="44.351"/>
 <rect id="F3" style="stroke:#000;fill:#e5d8b2" height="18" width="18" y="20.494" x="63.351"/>
 <rect id="F4" style="stroke:#000;fill:#e5d8b2" height="18" width="18" y="20.494" x="82.351"/>
 <rect id="F12" style="stroke:#000;fill:#e5d8b2" height="18" width="18" y="39.494" x="120.35"/>
 <rect id="ESC" style="stroke:#000;fill:#e5d8b2" height="18" width="18" y="20.494" x=".5"/>
</svg>
