<?xml version="1.0" encoding="UTF-8" standalone="no"?>
<!-- Created for Onboard -->
<svg id="svg2" xmlns:rdf="http://www.w3.org/1999/02/22-rdf-syntax-ns#" xmlns="http://www.w3.org/2000/svg" height="95" width="331" version="1.0" xmlns:cc="http://creativecommons.org/ns#" xmlns:dc="http://purl.org/dc/elements/1.1/">
 <metadata id="metadata3346">
  <rdf:RDF>
   <cc:Work rdf:about="">
    <dc:format>image/svg+xml</dc:format>
    <dc:type rdf:resource="http://purl.org/dc/dcmitype/StillImage"/>
   </cc:Work>
  </rdf:RDF>
 </metadata>
 <rect id="AB01" style="stroke:#000;fill:#e5d8b2" height="18" width="18" y="57.5" x="45.5"/>
 <rect id="AE02" style="stroke:#000;fill:#e5d8b2" height="18" width="18" y=".5" x="38.5"/>
 <rect id="AE03" style="stroke:#000;fill:#e5d8b2" height="18" width="18" y=".5" x="57.5"/>
 <rect id="AD09" style="stroke:#000;fill:#e5d8b2" height="18" width="18" y="19.5" x="181.5"/>
 <rect id="AE01" style="stroke:#000;fill:#e5d8b2" height="18" width="18" y=".5" x="19.5"/>
 <rect id="AE06" style="stroke:#000;fill:#e5d8b2" height="18" width="18" y=".5" x="114.5"/>
 <rect id="AE07" style="stroke:#000;fill:#e5d8b2" height="18" width="18" y=".5" x="133.5"/>
 <rect id="AE04" style="stroke:#000;fill:#e5d8b2" height="18" width="18" y=".5" x="76.5"/>
 <rect id="AE05" style="stroke:#000;fill:#e5d8b2" height="18" width="18" y=".5" x="95.5"/>
 <rect id="AD03" style="stroke:#000;fill:#e5d8b2" height="18" width="18" y="19.5" x="67.5"/>
 <rect id="AD02" style="stroke:#000;fill:#e5d8b2" height="18" width="18" y="19.5" x="48.5"/>
 <rect id="AD01" style="stroke:#000;fill:#e5d8b2" height="18" width="18" y="19.5" x="29.5"/>
 <rect id="AE09" style="stroke:#000;fill:#e5d8b2" height="18" width="18" y=".5" x="171.5"/>
 <rect id="AD07" style="stroke:#000;fill:#e5d8b2" height="18" width="18" y="19.5" x="143.5"/>
 <rect id="AD06" style="stroke:#000;fill:#e5d8b2" height="18" width="18" y="19.5" x="124.5"/>
 <rect id="AD05" style="stroke:#000;fill:#e5d8b2" height="18" width="18" y="19.5" x="105.5"/>
 <rect id="AD04" style="stroke:#000;fill:#e5d8b2" height="18" width="18" y="19.5" x="86.5"/>
 <rect id="AB10" style="stroke:#000;fill:#e5d8b2" height="18" width="18" y="57.5" x="216.5"/>
 <rect id="AC11" style="stroke:#000;fill:#e5d8b2" height="18" width="18" y="38.5" x="224.5"/>
 <rect id="AC10" style="stroke:#000;fill:#e5d8b2" height="18" width="18" y="38.5" x="205.5"/>
 <rect id="TLDE" style="stroke:#000;fill:#e5d8b2" height="18" width="18" y=".5" x=".5"/>
 <rect id="LSGT" style="stroke:#000;fill:#e5d8b2" height="18" width="18" y="57.5" x="26.5"/>
 <rect id="BKSL" style="stroke:#000;fill:#e5d8b2" height="18" width="28" y="19.5" x="257.5"/>
 <rect id="AD10" style="stroke:#000;fill:#e5d8b2" height="18" width="18" y="19.5" x="200.5"/>
 <rect id="AD11" style="stroke:#000;fill:#e5d8b2" height="18" width="18" y="19.5" x="219.5"/>
 <rect id="AD12" style="stroke:#000;fill:#e5d8b2" height="18" width="18" y="19.5" x="238.5"/>
 <rect id="AB08" style="stroke:#000;fill:#e5d8b2" height="18" width="18" y="57.5" x="178.5"/>
 <rect id="AE11" style="stroke:#000;fill:#e5d8b2" height="18" width="18" y=".5" x="209.5"/>
 <rect id="AE10" style="stroke:#000;fill:#e5d8b2" height="18" width="18" y=".5" x="190.5"/>
 <rect id="AE12" style="stroke:#000;fill:#e5d8b2" height="18" width="18" y=".5" x="228.5"/>
 <rect id="AC04" style="stroke:#000;fill:#e5d8b2" height="18" width="18" y="38.5" x="91.5"/>
 <rect id="AC05" style="stroke:#000;fill:#e5d8b2" height="18" width="18" y="38.5" x="110.5"/>
 <rect id="AC06" style="stroke:#000;fill:#e5d8b2" height="18" width="18" y="38.5" x="129.5"/>
 <rect id="AC07" style="stroke:#000;fill:#e5d8b2" height="18" width="18" y="38.5" x="148.5"/>
 <rect id="AB09" style="stroke:#000;fill:#e5d8b2" height="18" width="18" y="57.5" x="197.5"/>
 <rect id="AC01" style="stroke:#000;fill:#e5d8b2" height="18" width="18" y="38.5" x="34.5"/>
 <rect id="AC02" style="stroke:#000;fill:#e5d8b2" height="18" width="18" y="38.5" x="53.5"/>
 <rect id="AC03" style="stroke:#000;fill:#e5d8b2" height="18" width="18" y="38.5" x="72.5"/>
 <rect id="AB05" style="stroke:#000;fill:#e5d8b2" height="18" width="18" y="57.5" x="121.5"/>
 <rect id="AB04" style="stroke:#000;fill:#e5d8b2" height="18" width="18" y="57.5" x="102.5"/>
 <rect id="AE08" style="stroke:#000;fill:#e5d8b2" height="18" width="18" y=".5" x="152.5"/>
 <rect id="AB06" style="stroke:#000;fill:#e5d8b2" height="18" width="18" y="57.5" x="140.5"/>
 <rect id="AC08" style="stroke:#000;fill:#e5d8b2" height="18" width="18" y="38.5" x="167.5"/>
 <rect id="AC09" style="stroke:#000;fill:#e5d8b2" height="18" width="18" y="38.5" x="186.5"/>
 <rect id="AB03" style="stroke:#000;fill:#e5d8b2" height="18" width="18" y="57.5" x="83.5"/>
 <rect id="AB02" style="stroke:#000;fill:#e5d8b2" height="18" width="18" y="57.5" x="64.5"/>
 <rect id="AD08" style="stroke:#000;fill:#e5d8b2" height="18" width="18" y="19.5" x="162.5"/>
 <rect id="AB07" style="stroke:#000;fill:#e5d8b2" height="18" width="18" y="57.5" x="159.5"/>
 <rect id="RCTL" style="stroke:#000;fill:#f2e5d8" height="18" width="23" y="76.5" x="262.5"/>
 <rect id="LCTL" style="stroke:#000;fill:#f2e5d8" height="18" width="27" y="76.5" x=".5"/>
 <rect id="LALT" style="stroke:#000;fill:#f2e5d8" height="18" width="23" y="76.5" x="52.5"/>
 <rect id="MENU" style="stroke:#000;fill:#d8cca5" height="18" width="23" y="76.5" x="238.5"/>
 <rect id="RWIN" style="stroke:#000;fill:#d8cca5" height="18" width="23" y="76.5" x="214.5"/>
 <rect id="LWIN" style="stroke:#000;fill:#f2e5d8" height="18" width="23" y="76.5" x="28.5"/>
 <rect id="BKSP" style="stroke:#000;fill:#d8cca5" height="18" width="19" y=".5" x="247.5"/>
 <rect id="DELE" style="stroke:#000;fill:#d8cca5" height="18" width="18" y=".5" x="267.5"/>
 <rect id="TAB" style="stroke:#000;fill:#d8cca5" height="18" width="28" y="19.5" x=".5"/>
 <rect id="CAPS" style="stroke:#000;fill:#f2e5d8" height="18" width="33" y="38.5" x=".5"/>
 <rect id="RTRN" style="stroke:#000;fill:#d8cca5" height="18" width="42" y="38.5" x="243.5"/>
 <rect id="LFSH" style="stroke:#000;fill:#f2e5d8" height="18" width="25" y="57.5" x=".5"/>
 <rect id="RTSH" style="stroke:#000;fill:#f2e5d8" height="18" width="50" y="57.5" x="235.5"/>
 <rect id="SPCE" style="stroke:#000;fill:#e5d8b2" height="18" width="110" y="76.5" x="76.5"/>
 <rect id="RALT" style="stroke:#000;fill:#f2e5d8" height="18" width="22" y="76.5" x="187.5"/>
 <rect id="LEFT" style="stroke:#000;fill:#d8cca5" height="18" width="18" y="76.5" x="210.5"/>
 <rect id="RGHT" style="stroke:#000;fill:#d8cca5" height="18" width="18" y="76.5" x="229.5"/>
 <rect id="UP" style="stroke:#000;fill:#d8cca5" height="18" width="18" y="76.5" x="248.5"/>
 <rect id="DOWN" style="stroke:#000;fill:#d8cca5" height="18" width="18" y="76.5" x="267.5"/>
 <rect id="middleclick" style="stroke:#000;fill:#d8cca5" height="18" width="18" y=".5" x="286.5"/>
 <rect id="secondaryclick" style="stroke:#000;fill:#d8cca5" height="18" width="18" y="19.5" x="286.5"/>
 <rect id="doubleclick" style="stroke:#000;fill:#d8cca5" height="18" width="18" y="38.5" x="286.5"/>
 <rect id="dragclick" style="stroke:#000;fill:#d8cca5" height="18" width="18" y="57.5" x="286.5"/>
 <rect id="hoverclick" style="stroke:#000;fill:#d8cca5" height="18" width="18" y="76.5" x="286.5"/>
 <rect id="hide" style="stroke:#000;fill:#e5d8b2" height="18" width="25" y=".5" x="305.5"/>
 <rect id="showclick" style="stroke:#000;fill:#e5d8b2" height="18" width="12" y="19.5" x="305.5"/>
 <rect id="move" style="stroke:#000;fill:#e5d8b2" height="18" width="12" y="19.5" x="318.5"/>
 <rect id="layer0" style="stroke:#000;fill:#e5d8b2" height="18" width="25" y="38.5" x="305.5"/>
 <rect id="layer1" style="stroke:#000;fill:#e5d8b2" height="18" width="25" y="57.5" x="305.5"/>
 <rect id="layer2" style="stroke:#000;fill:#e5d8b2" height="18" width="25" y="76.5" x="305.5"/>
</svg>
