<?xml version="1.0" ?>
<!-- Created with onBoard -->
<svg height="98.0" id="svg2" version="1.0" width="294.0" xmlns="http://www.w3.org/2000/svg" xmlns:cc="http://web.resource.org/cc/" xmlns:dc="http://purl.org/dc/elements/1.1/" xmlns:rdf="http://www.w3.org/1999/02/22-rdf-syntax-ns#" xmlns:svg="http://www.w3.org/2000/svg">
	

	<rect height="18.0" id="AB01" style="fill:#e5d8b2;stroke:#000000;" width="18.0" x="47.0" y="58.0"/>
	<rect height="18.0" id="AE02" style="fill:#e5d8b2;stroke:#000000;" width="18.0" x="40.0" y="1.0"/>
	<rect height="18.0" id="AE03" style="fill:#e5d8b2;stroke:#000000;" width="18.0" x="59.0" y="1.0"/>
	<rect height="18.0" id="AD09" style="fill:#e5d8b2;stroke:#000000;" width="18.0" x="183.0" y="20.0"/>
	<rect height="18.0" id="AE01" style="fill:#e5d8b2;stroke:#000000;" width="18.0" x="21.0" y="1.0"/>
	<rect height="18.0" id="AE06" style="fill:#e5d8b2;stroke:#000000;" width="18.0" x="116.0" y="1.0"/>
	<rect height="18.0" id="AE07" style="fill:#e5d8b2;stroke:#000000;" width="18.0" x="135.0" y="1.0"/>
	<rect height="18.0" id="AE04" style="fill:#e5d8b2;stroke:#000000;" width="18.0" x="78.0" y="1.0"/>
	<rect height="18.0" id="AE05" style="fill:#e5d8b2;stroke:#000000;" width="18.0" x="97.0" y="1.0"/>
	<rect height="18.0" id="AD03" style="fill:#e5d8b2;stroke:#000000;" width="18.0" x="69.0" y="20.0"/>
	<rect height="18.0" id="AD02" style="fill:#e5d8b2;stroke:#000000;" width="18.0" x="50.0" y="20.0"/>
	<rect height="18.0" id="AD01" style="fill:#e5d8b2;stroke:#000000;" width="18.0" x="31.0" y="20.0"/>
	<rect height="18.0" id="AE09" style="fill:#e5d8b2;stroke:#000000;" width="18.0" x="173.0" y="1.0"/>
	<rect height="18.0" id="AD07" style="fill:#e5d8b2;stroke:#000000;" width="18.0" x="145.0" y="20.0"/>
	<rect height="18.0" id="AD06" style="fill:#e5d8b2;stroke:#000000;" width="18.0" x="126.0" y="20.0"/>
	<rect height="18.0" id="AD05" style="fill:#e5d8b2;stroke:#000000;" width="18.0" x="107.0" y="20.0"/>
	<rect height="18.0" id="AD04" style="fill:#e5d8b2;stroke:#000000;" width="18.0" x="88.0" y="20.0"/>
	<rect height="18.0" id="AB10" style="fill:#e5d8b2;stroke:#000000;" width="18.0" x="218.0" y="58.0"/>
	<rect height="18.0" id="AC11" style="fill:#e5d8b2;stroke:#000000;" width="18.0" x="226.0" y="39.0"/>
	<rect height="18.0" id="AC10" style="fill:#e5d8b2;stroke:#000000;" width="18.0" x="207.0" y="39.0"/>
	<rect height="18.0" id="TLDE" style="fill:#e5d8b2;stroke:#000000;" width="18.0" x="2.0" y="1.0"/>
	<rect height="18.0" id="LSGT" style="fill:#e5d8b2;stroke:#000000;" width="18.0" x="28.0" y="58.0"/>
	<rect height="18.0" id="BKSL" style="fill:#e5d8b2;stroke:#000000;" width="28.0" x="259.0" y="20.0"/>
	<rect height="18.0" id="AD10" style="fill:#e5d8b2;stroke:#000000;" width="18.0" x="202.0" y="20.0"/>
	<rect height="18.0" id="AD11" style="fill:#e5d8b2;stroke:#000000;" width="18.0" x="221.0" y="20.0"/>
	<rect height="18.0" id="AD12" style="fill:#e5d8b2;stroke:#000000;" width="18.0" x="240.0" y="20.0"/>
	<rect height="18.0" id="AB08" style="fill:#e5d8b2;stroke:#000000;" width="18.0" x="180.0" y="58.0"/>
	<rect height="18.0" id="AE11" style="fill:#e5d8b2;stroke:#000000;" width="18.0" x="211.0" y="1.0"/>
	<rect height="18.0" id="AE10" style="fill:#e5d8b2;stroke:#000000;" width="18.0" x="192.0" y="1.0"/>
	<rect height="18.0" id="AE12" style="fill:#e5d8b2;stroke:#000000;" width="18.0" x="230.0" y="1.0"/>
	<rect height="18.0" id="AC04" style="fill:#e5d8b2;stroke:#000000;" width="18.0" x="93.0" y="39.0"/>
	<rect height="18.0" id="AC05" style="fill:#e5d8b2;stroke:#000000;" width="18.0" x="112.0" y="39.0"/>
	<rect height="18.0" id="AC06" style="fill:#e5d8b2;stroke:#000000;" width="18.0" x="131.0" y="39.0"/>
	<rect height="18.0" id="AC07" style="fill:#e5d8b2;stroke:#000000;" width="18.0" x="150.0" y="39.0"/>
	<rect height="18.0" id="AB09" style="fill:#e5d8b2;stroke:#000000;" width="18.0" x="199.0" y="58.0"/>
	<rect height="18.0" id="AC01" style="fill:#e5d8b2;stroke:#000000;" width="18.0" x="36.0" y="39.0"/>
	<rect height="18.0" id="AC02" style="fill:#e5d8b2;stroke:#000000;" width="18.0" x="55.0" y="39.0"/>
	<rect height="18.0" id="AC03" style="fill:#e5d8b2;stroke:#000000;" width="18.0" x="74.0" y="39.0"/>
	<rect height="18.0" id="AB05" style="fill:#e5d8b2;stroke:#000000;" width="18.0" x="123.0" y="58.0"/>
	<rect height="18.0" id="AB04" style="fill:#e5d8b2;stroke:#000000;" width="18.0" x="104.0" y="58.0"/>
	<rect height="18.0" id="AE08" style="fill:#e5d8b2;stroke:#000000;" width="18.0" x="154.0" y="1.0"/>
	<rect height="18.0" id="AB06" style="fill:#e5d8b2;stroke:#000000;" width="18.0" x="142.0" y="58.0"/>
	<rect height="18.0" id="AC08" style="fill:#e5d8b2;stroke:#000000;" width="18.0" x="169.0" y="39.0"/>
	<rect height="18.0" id="AC09" style="fill:#e5d8b2;stroke:#000000;" width="18.0" x="188.0" y="39.0"/>
	<rect height="18.0" id="AB03" style="fill:#e5d8b2;stroke:#000000;" width="18.0" x="85.0" y="58.0"/>
	<rect height="18.0" id="AB02" style="fill:#e5d8b2;stroke:#000000;" width="18.0" x="66.0" y="58.0"/>
	<rect height="18.0" id="AD08" style="fill:#e5d8b2;stroke:#000000;" width="18.0" x="164.0" y="20.0"/>
	<rect height="18.0" id="AB07" style="fill:#e5d8b2;stroke:#000000;" width="18.0" x="161.0" y="58.0"/>
	<rect height="18.0" id="RCTL" style="fill:#f2e5d8;stroke:#000000;" width="23.0" x="264.0" y="77.0"/>
	<rect height="18.0" id="LCTL" style="fill:#f2e5d8;stroke:#000000;" width="27.0" x="2.0" y="77.0"/>
	<rect height="18.0" id="RALT" style="fill:#f2e5d8;stroke:#000000;" width="23.0" x="192.0" y="77.0"/>
	<rect height="18.0" id="LALT" style="fill:#f2e5d8;stroke:#000000;" width="23.0" x="54.0" y="77.0"/>
	<rect height="18.0" id="MENU" style="fill:#d8cca5;stroke:#000000;" width="23.0" x="240.0" y="77.0"/>
	<rect height="18.0" id="RWIN" style="fill:#d8cca5;stroke:#000000;" width="23.0" x="216.0" y="77.0"/>
	<rect height="18.0" id="SPCE" style="fill:#e5d8b2;stroke:#000000;" width="113.0" x="78.0" y="77.0"/>
	<rect height="18.0" id="LWIN" style="fill:#f2e5d8;stroke:#000000;" width="23.0" x="30.0" y="77.0"/>
	<rect height="18.0" id="BKSP" style="fill:#d8cca5;stroke:#000000;" width="38.0" x="249.0" y="1.0"/>
	<rect height="18.0" id="TAB" style="fill:#d8cca5;stroke:#000000;" width="28.0" x="2.0" y="20.0"/>
	<rect height="18.0" id="CAPS" style="fill:#f2e5d8;stroke:#000000;" width="33.0" x="2.0" y="39.0"/>
	<rect height="18.0" id="RTRN" style="fill:#d8cca5;stroke:#000000;" width="42.0" x="245.0" y="39.0"/>
	<rect height="18.0" id="LFSH" style="fill:#f2e5d8;stroke:#000000;" width="25.0" x="2.0" y="58.0"/>
	<rect height="18.0" id="RTSH" style="fill:#f2e5d8;stroke:#000000;" width="50.0" x="237.0" y="58.0"/>
</svg>
