<?xml version="1.0" ?>
<!-- Created with onBoard -->
<svg height="98.0" id="svg2" version="1.0" width="294.0" xmlns="http://www.w3.org/2000/svg" xmlns:cc="http://web.resource.org/cc/" xmlns:dc="http://purl.org/dc/elements/1.1/" xmlns:rdf="http://www.w3.org/1999/02/22-rdf-syntax-ns#" xmlns:svg="http://www.w3.org/2000/svg">
	<rect height="30.0" id="middleClick" style="fill:#f2e5d8;stroke:#000000;" width="55.0" x="125.0" y="61.0"/>
	<rect height="30.0" id="secondaryClick" style="fill:#f2e5d8;stroke:#000000;" width="55.0" x="185.0" y="61.0"/>
	<rect height="30.0" id="settings" style="fill:#f27f7f;stroke:#000000;" width="55.0" x="5.0" y="61.0"/>
	<rect height="24.0" id="F1" style="fill:#7f7fcc;stroke:#000000;" width="25.0" x="35.0" y="5.0"/>
	<rect height="24.0" id="F2" style="fill:#7f7fcc;stroke:#000000;" width="25.0" x="65.0" y="5.0"/>
	<rect height="24.0" id="F3" style="fill:#7f7fcc;stroke:#000000;" width="25.0" x="95.0" y="5.0"/>
	<rect height="24.0" id="F4" style="fill:#7f7fcc;stroke:#000000;" width="25.0" x="125.0" y="5.0"/>
	<rect height="24.0" id="F5" style="fill:#7f7fcc;stroke:#000000;" width="25.0" x="155.0" y="5.0"/>
	<rect height="24.0" id="F6" style="fill:#7f7fcc;stroke:#000000;" width="25.0" x="185.0" y="5.0"/>
	<rect height="24.0" id="F7" style="fill:#7f7fcc;stroke:#000000;" width="25.0" x="215.0" y="5.0"/>
	<rect height="24.0" id="F8" style="fill:#7f7fcc;stroke:#000000;" width="25.0" x="5.0" y="32.0"/>
	<rect height="24.0" id="F9" style="fill:#7f7fcc;stroke:#000000;" width="25.0" x="35.0" y="32.0"/>
	<rect height="24.0" id="F12" style="fill:#7f7fcc;stroke:#000000;" width="25.0" x="125.0" y="32.0"/>
	<rect height="24.0" id="F10" style="fill:#7f7fcc;stroke:#000000;" width="25.0" x="65.0" y="32.0"/>
	<rect height="24.0" id="F11" style="fill:#7f7fcc;stroke:#000000;" width="25.0" x="95.0" y="32.0"/>
	<rect height="24.0" id="Prnt" style="fill:#7f7fcc;stroke:#000000;" width="25.0" x="155.0" y="32.0"/>
	<rect height="24.0" id="Pause" style="fill:#7f7fcc;stroke:#000000;" width="25.0" x="215.0" y="32.0"/>
	<rect height="24.0" id="ESC" style="fill:#7f7fcc;stroke:#000000;" width="25.0" x="5.0" y="5.0"/>
	<rect height="24.0" id="Scroll" style="fill:#7f7fcc;stroke:#000000;" width="25.0" x="185.0" y="32.0"/>
</svg>
