<?xml version="1.0" ?>
<!-- Created with onBoard -->
<svg height="98.0" id="svg2" version="1.0" width="294.0" xmlns="http://www.w3.org/2000/svg" xmlns:cc="http://web.resource.org/cc/" xmlns:dc="http://purl.org/dc/elements/1.1/" xmlns:rdf="http://www.w3.org/1999/02/22-rdf-syntax-ns#" xmlns:svg="http://www.w3.org/2000/svg">
	

	<rect height="18.0" id="KPDL" style="fill:#d8cca5;stroke:#000000;" width="18.0" x="118.0" y="79.0"/>
	<rect height="18.0" id="NMLK" style="fill:#f2e5d8;stroke:#000000;" width="18.0" x="80.0" y="3.0"/>
	<rect height="37.0" id="KPEN" style="fill:#d8cca5;stroke:#000000;" width="18.0" x="137.0" y="60.0"/>
	<rect height="18.0" id="KP0" style="fill:#d8cca5;stroke:#000000;" width="37.0" x="80.0" y="79.0"/>
	<rect height="18.0" id="KP1" style="fill:#d8cca5;stroke:#000000;" width="18.0" x="80.0" y="60.0"/>
	<rect height="18.0" id="KP2" style="fill:#d8cca5;stroke:#000000;" width="18.0" x="99.0" y="60.0"/>
	<rect height="18.0" id="KP3" style="fill:#d8cca5;stroke:#000000;" width="18.0" x="118.0" y="60.0"/>
	<rect height="18.0" id="KP4" style="fill:#d8cca5;stroke:#000000;" width="18.0" x="80.0" y="41.0"/>
	<rect height="18.0" id="KP5" style="fill:#d8cca5;stroke:#000000;" width="18.0" x="99.0" y="41.0"/>
	<rect height="18.0" id="KP6" style="fill:#d8cca5;stroke:#000000;" width="18.0" x="118.0" y="41.0"/>
	<rect height="18.0" id="KP7" style="fill:#d8cca5;stroke:#000000;" width="18.0" x="80.0" y="22.0"/>
	<rect height="18.0" id="KP8" style="fill:#d8cca5;stroke:#000000;" width="18.0" x="99.0" y="22.0"/>
	<rect height="18.0" id="KP9" style="fill:#d8cca5;stroke:#000000;" width="18.0" x="118.0" y="22.0"/>
	<rect height="18.0" id="KPSU" style="fill:#e5d8b2;stroke:#000000;" width="18.0" x="137.0" y="3.0"/>
	<rect height="18.0" id="KPDV" style="fill:#e5d8b2;stroke:#000000;" width="18.0" x="99.0" y="3.0"/>
	<rect height="37.0" id="KPAD" style="fill:#e5d8b2;stroke:#000000;" width="18.0" x="137.0" y="22.0"/>
	<rect height="18.0" id="KPMU" style="fill:#e5d8b2;stroke:#000000;" width="18.0" x="118.0" y="3.0"/>
	<rect height="18.0" id="LEFT" style="fill:#d8cca5;stroke:#000000;" width="18.0" x="2.0" y="79.0"/>
	<rect height="18.0" id="RGHT" style="fill:#d8cca5;stroke:#000000;" width="18.0" x="40.0" y="79.0"/>
	<rect height="18.0" id="UP" style="fill:#d8cca5;stroke:#000000;" width="18.0" x="21.0" y="60.0"/>
	<rect height="18.0" id="DOWN" style="fill:#d8cca5;stroke:#000000;" width="18.0" x="21.0" y="79.0"/>
	<rect height="18.0" id="INS" style="fill:#d8cca5;stroke:#000000;" width="18.0" x="2.0" y="3.0"/>
	<rect height="18.0" id="DELE" style="fill:#d8cca5;stroke:#000000;" width="18.0" x="2.0" y="22.0"/>
	<rect height="18.0" id="HOME" style="fill:#d8cca5;stroke:#000000;" width="18.0" x="21.0" y="3.0"/>
	<rect height="18.0" id="END" style="fill:#d8cca5;stroke:#000000;" width="18.0" x="21.0" y="22.0"/>
	<rect height="18.0" id="PGUP" style="fill:#d8cca5;stroke:#000000;" width="18.0" x="40.0" y="3.0"/>
	<rect height="18.0" id="PGDN" style="fill:#d8cca5;stroke:#000000;" width="18.0" x="40.0" y="22.0"/>
	<rect height="24.0" id="m0" style="fill:#7f7fcc;stroke:#000000;" width="33.0" x="180.0" y="7.0"/>
	<rect height="24.0" id="m1" style="fill:#7f7fcc;stroke:#000000;" width="33.0" x="218.0" y="7.0"/>
	<rect height="24.0" id="m2" style="fill:#7f7fcc;stroke:#000000;" width="33.0" x="256.0" y="7.0"/>
	<rect height="24.0" id="m3" style="fill:#7f7fcc;stroke:#000000;" width="33.0" x="180.0" y="35.0"/>
	<rect height="24.0" id="m4" style="fill:#7f7fcc;stroke:#000000;" width="33.0" x="218.0" y="35.0"/>
	<rect height="24.0" id="m5" style="fill:#7f7fcc;stroke:#000000;" width="33.0" x="256.0" y="35.0"/>
	<rect height="24.0" id="m6" style="fill:#7f7fcc;stroke:#000000;" width="33.0" x="180.0" y="63.0"/>
	<rect height="24.0" id="m7" style="fill:#7f7fcc;stroke:#000000;" width="33.0" x="218.0" y="63.0"/>
	<rect height="24.0" id="m8" style="fill:#7f7fcc;stroke:#000000;" width="33.0" x="256.0" y="63.0"/>
</svg>
