<?xml version="1.0" encoding="UTF-8" standalone="no"?>
<!-- Created with onBoard -->

<svg
   xmlns:dc="http://purl.org/dc/elements/1.1/"
   xmlns:cc="http://creativecommons.org/ns#"
   xmlns:rdf="http://www.w3.org/1999/02/22-rdf-syntax-ns#"
   xmlns:svg="http://www.w3.org/2000/svg"
   xmlns="http://www.w3.org/2000/svg"
   xmlns:sodipodi="http://sodipodi.sourceforge.net/DTD/sodipodi-0.dtd"
   xmlns:inkscape="http://www.inkscape.org/namespaces/inkscape"
   height="137.53844"
   width="346.2995"
   version="1.0"
   id="svg2"
   inkscape:version="0.47pre1 r21720"
   sodipodi:docname="Full-Dark-Alpha.svg"
   inkscape:output_extension="org.inkscape.output.svg.inkscape">
  <metadata
     id="metadata96">
    <rdf:RDF>
      <cc:Work
         rdf:about="">
        <dc:format>image/svg+xml</dc:format>
        <dc:type
           rdf:resource="http://purl.org/dc/dcmitype/StillImage" />
      </cc:Work>
    </rdf:RDF>
  </metadata>
  <defs
     id="defs94">
    <inkscape:perspective
       sodipodi:type="inkscape:persp3d"
       inkscape:vp_x="0 : 59 : 1"
       inkscape:vp_y="0 : 1000 : 0"
       inkscape:vp_z="350 : 59 : 1"
       inkscape:persp3d-origin="175 : 39.333333 : 1"
       id="perspective98" />
  </defs>
  <sodipodi:namedview
     pagecolor="#ffffff"
     bordercolor="#666666"
     borderopacity="1"
     objecttolerance="10"
     gridtolerance="10"
     guidetolerance="10"
     inkscape:pageopacity="0"
     inkscape:pageshadow="2"
     inkscape:window-width="1209"
     inkscape:window-height="643"
     id="namedview92"
     showgrid="false"
     inkscape:snap-global="false"
     inkscape:zoom="1.86"
     inkscape:cx="68.569976"
     inkscape:cy="69.129739"
     inkscape:window-x="15"
     inkscape:window-y="281"
     inkscape:window-maximized="0"
     inkscape:current-layer="svg2" />
  <rect
     style="fill:#403020;stroke:#7f7f7f"
     height="18"
     width="23"
     y="119.03844"
     x="190.5"
     id="RALT" />
  <rect
     style="fill:#505001;stroke:#7f7f7f"
     height="18"
     width="18"
     y="100.03844"
     x="45.5"
     id="AB01" />
  <rect
     style="fill:#505001;stroke:#7f7f7f"
     height="18"
     width="18"
     y="43.038445"
     x="38.5"
     id="AE02" />
  <rect
     style="fill:#505001;stroke:#7f7f7f"
     height="18"
     width="18"
     y="43.038445"
     x="57.5"
     id="AE03" />
  <rect
     style="fill:#505001;stroke:#7f7f7f"
     height="18"
     width="18"
     y="62.038448"
     x="181.5"
     id="AD09" />
  <rect
     style="fill:#505001;stroke:#7f7f7f"
     height="18"
     width="18"
     y="43.038445"
     x="19.5"
     id="AE01" />
  <rect
     style="fill:#505001;stroke:#7f7f7f"
     height="18"
     width="18"
     y="43.038445"
     x="114.5"
     id="AE06" />
  <rect
     style="fill:#505001;stroke:#7f7f7f"
     height="18"
     width="18"
     y="43.038445"
     x="133.5"
     id="AE07" />
  <rect
     style="fill:#505001;stroke:#7f7f7f"
     height="18"
     width="18"
     y="43.038445"
     x="76.5"
     id="AE04" />
  <rect
     style="fill:#505001;stroke:#7f7f7f"
     height="18"
     width="18"
     y="43.038445"
     x="95.5"
     id="AE05" />
  <rect
     style="fill:#505001;stroke:#7f7f7f"
     height="18"
     width="18"
     y="62.038448"
     x="67.5"
     id="AD03" />
  <rect
     style="fill:#505001;stroke:#7f7f7f"
     height="18"
     width="18"
     y="62.038448"
     x="48.5"
     id="AD02" />
  <rect
     style="fill:#505001;stroke:#7f7f7f"
     height="18"
     width="18"
     y="62.038448"
     x="29.5"
     id="AD01" />
  <rect
     style="fill:#505001;stroke:#7f7f7f"
     height="18"
     width="18"
     y="43.038445"
     x="171.5"
     id="AE09" />
  <rect
     style="fill:#505001;stroke:#7f7f7f"
     height="18"
     width="18"
     y="62.038448"
     x="143.5"
     id="AD07" />
  <rect
     style="fill:#505001;stroke:#7f7f7f"
     height="18"
     width="18"
     y="62.038448"
     x="124.5"
     id="AD06" />
  <rect
     style="fill:#505001;stroke:#7f7f7f"
     height="18"
     width="18"
     y="62.038448"
     x="105.5"
     id="AD05" />
  <rect
     style="fill:#505001;stroke:#7f7f7f"
     height="18"
     width="18"
     y="62.038448"
     x="86.5"
     id="AD04" />
  <rect
     style="fill:#505001;stroke:#7f7f7f"
     height="18"
     width="18"
     y="100.03844"
     x="216.5"
     id="AB10" />
  <rect
     style="fill:#505001;stroke:#7f7f7f"
     height="18"
     width="18"
     y="81.038452"
     x="224.5"
     id="AC11" />
  <rect
     style="fill:#505001;stroke:#7f7f7f"
     height="18"
     width="18"
     y="81.038452"
     x="205.5"
     id="AC10" />
  <rect
     style="fill:#403020;stroke:#7f7f7f"
     height="18"
     width="23"
     y="119.03844"
     x="262.5"
     id="RCTL" />
  <rect
     style="fill:#403020;stroke:#7f7f7f"
     height="18"
     width="27"
     y="119.03844"
     x="0.5"
     id="LCTL" />
  <rect
     style="fill:#404031;stroke:#7f7f7f"
     height="18"
     width="28"
     y="62.038448"
     x="0.5"
     id="TAB" />
  <rect
     style="fill:#403020;stroke:#7f7f7f"
     height="18"
     width="23"
     y="119.03844"
     x="52.5"
     id="LALT" />
  <rect
     style="fill:#505001;stroke:#7f7f7f"
     height="18"
     width="18"
     y="43.038445"
     x="0.5"
     id="TLDE" />
  <rect
     style="fill:#505001;stroke:#7f7f7f"
     height="18"
     width="18"
     y="100.03844"
     x="26.5"
     id="LSGT" />
  <rect
     style="fill:#403020;stroke:#7f7f7f"
     height="18"
     width="25"
     y="100.03844"
     x="0.5"
     id="LFSH" />
  <rect
     style="fill:#404031;stroke:#7f7f7f"
     height="18"
     width="38"
     y="43.038445"
     x="247.5"
     id="BKSP" />
  <rect
     style="fill:#403020;stroke:#7f7f7f"
     height="18"
     width="33"
     y="81.038452"
     x="0.5"
     id="CAPS" />
  <rect
     style="fill:#505001;stroke:#7f7f7f"
     height="18"
     width="28"
     y="62.038448"
     x="257.5"
     id="BKSL" />
  <rect
     style="fill:#404031;stroke:#7f7f7f"
     height="18"
     width="42"
     y="81.038452"
     x="243.5"
     id="RTRN" />
  <rect
     style="fill:#404031;stroke:#7f7f7f"
     height="18"
     width="23"
     y="119.03844"
     x="238.5"
     id="MENU" />
  <rect
     style="fill:#505001;stroke:#7f7f7f"
     height="18"
     width="18"
     y="62.038448"
     x="200.5"
     id="AD10" />
  <rect
     style="fill:#505001;stroke:#7f7f7f"
     height="18"
     width="18"
     y="62.038448"
     x="219.5"
     id="AD11" />
  <rect
     style="fill:#505001;stroke:#7f7f7f"
     height="18"
     width="18"
     y="62.038448"
     x="238.5"
     id="AD12" />
  <rect
     style="fill:#505001;stroke:#7f7f7f"
     height="18"
     width="18"
     y="100.03844"
     x="178.5"
     id="AB08" />
  <rect
     style="fill:#505001;stroke:#7f7f7f"
     height="18"
     width="18"
     y="43.038445"
     x="209.5"
     id="AE11" />
  <rect
     style="fill:#505001;stroke:#7f7f7f"
     height="18"
     width="18"
     y="43.038445"
     x="190.5"
     id="AE10" />
  <rect
     style="fill:#505001;stroke:#7f7f7f"
     height="18"
     width="18"
     y="43.038445"
     x="228.5"
     id="AE12" />
  <rect
     style="fill:#505001;stroke:#7f7f7f"
     height="18"
     width="18"
     y="81.038452"
     x="91.5"
     id="AC04" />
  <rect
     style="fill:#505001;stroke:#7f7f7f"
     height="18"
     width="18"
     y="81.038452"
     x="110.5"
     id="AC05" />
  <rect
     style="fill:#505001;stroke:#7f7f7f"
     height="18"
     width="18"
     y="81.038452"
     x="129.5"
     id="AC06" />
  <rect
     style="fill:#505001;stroke:#7f7f7f"
     height="18"
     width="18"
     y="81.038452"
     x="148.5"
     id="AC07" />
  <rect
     style="fill:#505001;stroke:#7f7f7f"
     height="18"
     width="18"
     y="100.03844"
     x="197.5"
     id="AB09" />
  <rect
     style="fill:#505001;stroke:#7f7f7f"
     height="18"
     width="18"
     y="81.038452"
     x="34.5"
     id="AC01" />
  <rect
     style="fill:#505001;stroke:#7f7f7f"
     height="18"
     width="18"
     y="81.038452"
     x="53.5"
     id="AC02" />
  <rect
     style="fill:#505001;stroke:#7f7f7f"
     height="18"
     width="18"
     y="81.038452"
     x="72.5"
     id="AC03" />
  <rect
     style="fill:#505001;stroke:#7f7f7f"
     height="18"
     width="18"
     y="100.03844"
     x="121.5"
     id="AB05" />
  <rect
     style="fill:#505001;stroke:#7f7f7f"
     height="18"
     width="18"
     y="100.03844"
     x="102.5"
     id="AB04" />
  <rect
     style="fill:#505001;stroke:#7f7f7f"
     height="18"
     width="18"
     y="43.038445"
     x="152.5"
     id="AE08" />
  <rect
     style="fill:#505001;stroke:#7f7f7f"
     height="18"
     width="18"
     y="100.03844"
     x="140.5"
     id="AB06" />
  <rect
     style="fill:#505001;stroke:#7f7f7f"
     height="18"
     width="18"
     y="81.038452"
     x="167.5"
     id="AC08" />
  <rect
     style="fill:#505001;stroke:#7f7f7f"
     height="18"
     width="18"
     y="81.038452"
     x="186.5"
     id="AC09" />
  <rect
     style="fill:#505001;stroke:#7f7f7f"
     height="18"
     width="18"
     y="100.03844"
     x="83.5"
     id="AB03" />
  <rect
     style="fill:#505001;stroke:#7f7f7f"
     height="18"
     width="18"
     y="100.03844"
     x="64.5"
     id="AB02" />
  <rect
     style="fill:#505001;stroke:#7f7f7f"
     height="18"
     width="18"
     y="62.038448"
     x="162.5"
     id="AD08" />
  <rect
     style="fill:#404031;stroke:#7f7f7f"
     height="18"
     width="23"
     y="119.03844"
     x="214.5"
     id="RWIN" />
  <rect
     style="fill:#505001;stroke:#7f7f7f"
     height="18"
     width="113"
     y="119.03844"
     x="76.5"
     id="SPCE" />
  <rect
     style="fill:#403020;stroke:#7f7f7f"
     height="18"
     width="50"
     y="100.03844"
     x="235.5"
     id="RTSH" />
  <rect
     style="fill:#403020;stroke:#7f7f7f"
     height="18"
     width="23"
     y="119.03844"
     x="28.5"
     id="LWIN" />
  <rect
     style="fill:#505001;stroke:#7f7f7f"
     height="18"
     width="18"
     y="100.03844"
     x="159.5"
     id="AB07" />
  <rect
     style="fill:#404031;stroke:#7f7f7f"
     height="18"
     width="18"
     y="118.95757"
     x="308.16177"
     id="DOWN" />
  <rect
     style="fill:#404031;stroke:#7f7f7f"
     height="18"
     width="18"
     y="42.957565"
     x="327.16177"
     id="PGUP" />
  <rect
     style="fill:#404031;stroke:#7f7f7f"
     height="18"
     width="18"
     y="42.957565"
     x="308.16177"
     id="HOME" />
  <rect
     style="fill:#404031;stroke:#7f7f7f"
     height="18"
     width="18"
     y="118.95757"
     x="289.16177"
     id="LEFT" />
  <rect
     style="fill:#404031;stroke:#7f7f7f"
     height="18"
     width="18"
     y="118.95757"
     x="327.16177"
     id="RGHT" />
  <rect
     style="fill:#404031;stroke:#7f7f7f"
     height="18"
     width="18"
     y="61.957565"
     x="289.16177"
     id="DELE" />
  <rect
     style="fill:#404031;stroke:#7f7f7f"
     height="18"
     width="18"
     y="61.957565"
     x="308.16177"
     id="END" />
  <rect
     style="fill:#404031;stroke:#7f7f7f"
     height="18"
     width="18"
     y="61.957565"
     x="327.16177"
     id="PGDN" />
  <rect
     style="fill:#404031;stroke:#7f7f7f"
     height="18"
     width="18"
     y="99.957565"
     x="308.16177"
     id="UP" />
  <rect
     style="fill:#404031;stroke:#7f7f7f"
     height="18"
     width="18"
     y="42.957565"
     x="289.16177"
     id="INS" />
  <rect
     style="fill:#404031;stroke:#7f7f7f"
     height="18"
     width="18"
     y="22.019218"
     x="190.79951"
     id="F10" />
  <rect
     style="fill:#404031;stroke:#7f7f7f"
     height="18"
     width="18"
     y="22.019218"
     x="57.7995"
     id="F3" />
  <rect
     style="fill:#404031;stroke:#7f7f7f"
     height="18"
     width="18"
     y="22.019218"
     x="38.7995"
     id="F2" />
  <rect
     style="fill:#404031;stroke:#7f7f7f;stroke-width:1;stroke-miterlimit:3.5999999;stroke-dasharray:none"
     height="18"
     width="18"
     y="22.019218"
     x="0.79949951"
     id="ESC" />
  <rect
     style="fill:#404031;stroke:#7f7f7f"
     height="18"
     width="18"
     y="22.019218"
     x="228.79951"
     id="F12" />
  <rect
     style="fill:#404031;stroke:#7f7f7f"
     height="18"
     width="18"
     y="22.019218"
     x="209.79951"
     id="F11" />
  <rect
     style="fill:#404031;stroke:#7f7f7f"
     height="18"
     width="18"
     y="22.019218"
     x="171.79951"
     id="F9" />
  <rect
     style="fill:#404031;stroke:#7f7f7f"
     height="18"
     width="18"
     y="22.019218"
     x="114.7995"
     id="F6" />
  <rect
     style="fill:#404031;stroke:#7f7f7f"
     height="18"
     width="18"
     y="22.019218"
     x="133.79951"
     id="F7" />
  <rect
     style="fill:#404031;stroke:#7f7f7f"
     height="18"
     width="18"
     y="22.019218"
     x="19.7995"
     id="F1" />
  <rect
     style="fill:#404031;stroke:#7f7f7f"
     height="18"
     width="18"
     y="22.019218"
     x="76.7995"
     id="F4" />
  <rect
     style="fill:#404031;stroke:#7f7f7f"
     height="18"
     width="18"
     y="22.019218"
     x="152.79951"
     id="F8" />
  <rect
     style="fill:#404031;stroke:#7f7f7f"
     height="18"
     width="18"
     y="22.019218"
     x="95.7995"
     id="F5" />
  <rect
     style="fill:#404031;stroke:#7f7f7f;"
     height="18"
     width="18"
     y="22.019218"
     x="327.20572"
     id="Pause" />
  <rect
     style="fill:#404031;stroke:#7f7f7f"
     height="18"
     width="18"
     y="22.019218"
     x="289.20569"
     id="Prnt" />
  <rect
     style="fill:#404031;stroke:#7f7f7f"
     height="18"
     width="18"
     y="22.019218"
     x="308.20572"
     id="Scroll" />
  <rect
     style="fill:#7f0000;stroke:#7f7f7f"
     height="18"
     width="32.799999"
     y="22.019218"
     x="252.7"
     id="settings" />
  <rect
     id="dictionaries"
     x="327.20572"
     y="1.4999994"
     width="18"
     height="18"
     style="fill:#2b2b63;stroke:#7f7f7f" />
  <rect
     id="learnmode"
     x="289.20572"
     y="1.4999994"
     width="18"
     height="18"
     style="fill:#2b2b63;stroke:#7f7f7f" />
  <rect
     id="punctuation"
     x="308.20572"
     y="1.4999994"
     width="18"
     height="18"
     style="fill:#2b2b63;stroke:#7f7f7f" />
  <rect
     style="fill:#151530;stroke:#7f7f7f;fill-opacity:1"
     id="wordlist"
     width="284.70001"
     height="18"
     x="0.79949951"
     y="1.4999994" />
  <rect
     id="morewords"
     x="-31.2005"
     y="1.4999994"
     width="18"
     height="18"
     style="fill:#2b2b63;stroke:#7f7f7f" />
  <rect
     y="1.4999994"
     x="40.04681"
     height="18"
     width="50.291412"
     id="word0"
     style="fill:#2b2b63;stroke:#7f7f7f"
     ry="0" />
</svg>
