<?xml version="1.0" encoding="UTF-8" standalone="no"?>
<svg id="full-alpha" xmlns:rdf="http://www.w3.org/1999/02/22-rdf-syntax-ns#" style="enable-background:new" xmlns="http://www.w3.org/2000/svg" height="135" width="388" version="1.0" xmlns:cc="http://creativecommons.org/ns#" xmlns:dc="http://purl.org/dc/elements/1.1/">
 <metadata id="metadata112">
  <rdf:RDF>
   <cc:Work rdf:about="">
    <dc:format>image/svg+xml</dc:format>
    <dc:type rdf:resource="http://purl.org/dc/dcmitype/StillImage"/>
    <dc:title>Full Keyboard-Alpha.svg</dc:title>
    <cc:license rdf:resource="https://www.gnu.org/licenses/gpl.txt"/>
    <dc:creator>
     <cc:Agent>
      <dc:title>Onboard Devel Team at https://launchpad.net/~onboard</dc:title>
     </cc:Agent>
    </dc:creator>
    <dc:rights>
     <cc:Agent>
      <dc:title>GPL-3+ license</dc:title>
     </cc:Agent>
    </dc:rights>
    <dc:publisher>
     <cc:Agent>
      <dc:title>Onboard Devel Team</dc:title>
     </cc:Agent>
    </dc:publisher>
    <dc:source>https://launchpad.net/onboard</dc:source>
    <dc:relation>This file is part of Onboard</dc:relation>
    <dc:contributor>
     <cc:Agent>
      <dc:title>Copyright © 2016, Francesco Fumanti &lt;francesco.fumanti@gmx.net&gt;
Copyright © 2011-2014, marmuta &lt;marmvta@gmail.com&gt;</dc:title>
     </cc:Agent>
    </dc:contributor>
   </cc:Work>
  </rdf:RDF>
 </metadata>
 <rect id="wordlist" style="stroke:#7f7f7f;stroke-width:1.0346;fill:#151530" height="15.965" width="366.97" y=".51728" x=".51728"/>
 <rect id="inputline" style="opacity:.5;stroke:#000;fill:#e5d8b2" height="18" width="322" y="19.5" x="19.5"/>
 <rect id="RALT" style="stroke:#000;fill:#e5d8b2" height="18" width="23" y="116.5" x="190.5"/>
 <rect id="AB01" style="stroke:#000;fill:#e5d8b2" height="18" width="18" y="97.5" x="45.5"/>
 <rect id="AE02" style="stroke:#000;fill:#e5d8b2" height="18" width="18" y="40.5" x="38.5"/>
 <rect id="AE03" style="stroke:#000;fill:#e5d8b2" height="18" width="18" y="40.5" x="57.5"/>
 <rect id="AD09" style="stroke:#000;fill:#e5d8b2" height="18" width="18" y="59.5" x="181.5"/>
 <rect id="AE01" style="stroke:#000;fill:#e5d8b2" height="18" width="18" y="40.5" x="19.5"/>
 <rect id="AE06" style="stroke:#000;fill:#e5d8b2" height="18" width="18" y="40.5" x="114.5"/>
 <rect id="AE07" style="stroke:#000;fill:#e5d8b2" height="18" width="18" y="40.5" x="133.5"/>
 <rect id="AE04" style="stroke:#000;fill:#e5d8b2" height="18" width="18" y="40.5" x="76.5"/>
 <rect id="AE05" style="stroke:#000;fill:#e5d8b2" height="18" width="18" y="40.5" x="95.5"/>
 <rect id="AD03" style="stroke:#000;fill:#e5d8b2" height="18" width="18" y="59.5" x="67.5"/>
 <rect id="AD02" style="stroke:#000;fill:#e5d8b2" height="18" width="18" y="59.5" x="48.5"/>
 <rect id="AD01" style="stroke:#000;fill:#e5d8b2" height="18" width="18" y="59.5" x="29.5"/>
 <rect id="AE09" style="stroke:#000;fill:#e5d8b2" height="18" width="18" y="40.5" x="171.5"/>
 <rect id="AD07" style="stroke:#000;fill:#e5d8b2" height="18" width="18" y="59.5" x="143.5"/>
 <rect id="AD06" style="stroke:#000;fill:#e5d8b2" height="18" width="18" y="59.5" x="124.5"/>
 <rect id="AD05" style="stroke:#000;fill:#e5d8b2" height="18" width="18" y="59.5" x="105.5"/>
 <rect id="AD04" style="stroke:#000;fill:#e5d8b2" height="18" width="18" y="59.5" x="86.5"/>
 <rect id="AB10" style="stroke:#000;fill:#e5d8b2" height="18" width="18" y="97.5" x="216.5"/>
 <rect id="AC11" style="stroke:#000;fill:#e5d8b2" height="18" width="18" y="78.5" x="224.5"/>
 <rect id="AC10" style="stroke:#000;fill:#e5d8b2" height="18" width="18" y="78.5" x="205.5"/>
 <rect id="RCTL" style="stroke:#000;fill:#e5d8b2" height="18" width="23" y="116.5" x="259.5"/>
 <rect id="LCTL" style="stroke:#000;fill:#e5d8b2" height="18" width="27" y="116.5" x=".5"/>
 <rect id="TAB" style="stroke:#000;fill:#e5d8b2" height="18" width="28" y="59.5" x=".5"/>
 <rect id="LALT" style="stroke:#000;fill:#e5d8b2" height="18" width="23" y="116.5" x="52.5"/>
 <rect id="TLDE" style="stroke:#000;fill:#e5d8b2" height="18" width="18" y="40.5" x=".5"/>
 <rect id="LSGT" style="stroke:#000;fill:#e5d8b2" height="18" width="18" y="97.5" x="26.5"/>
 <rect id="LFSH" style="stroke:#000;fill:#e5d8b2" height="18" width="25" y="97.5" x=".5"/>
 <rect id="BKSP" style="stroke:#000;fill:#e5d8b2" height="18" width="35" y="40.5" x="247.5"/>
 <rect id="CAPS" style="stroke:#000;fill:#e5d8b2" height="18" width="33" y="78.5" x=".5"/>
 <rect id="BKSL" style="stroke:#000;fill:#e5d8b2" height="18" width="18" y="78.5" x="243.5"/>
 <rect id="MENU" style="stroke:#000;fill:#e5d8b2" height="18" width="23" y="116.5" x="235.5"/>
 <rect id="AD10" style="stroke:#000;fill:#e5d8b2" height="18" width="18" y="59.5" x="200.5"/>
 <rect id="AD11" style="stroke:#000;fill:#e5d8b2" height="18" width="18" y="59.5" x="219.5"/>
 <rect id="AD12" style="stroke:#000;fill:#e5d8b2" height="18" width="18" y="59.5" x="238.5"/>
 <rect id="AB08" style="stroke:#000;fill:#e5d8b2" height="18" width="18" y="97.5" x="178.5"/>
 <rect id="AE11" style="stroke:#000;fill:#e5d8b2" height="18" width="18" y="40.5" x="209.5"/>
 <rect id="AE10" style="stroke:#000;fill:#e5d8b2" height="18" width="18" y="40.5" x="190.5"/>
 <rect id="AE12" style="stroke:#000;fill:#e5d8b2" height="18" width="18" y="40.5" x="228.5"/>
 <rect id="AC04" style="stroke:#000;fill:#e5d8b2" height="18" width="18" y="78.5" x="91.5"/>
 <rect id="AC05" style="stroke:#000;fill:#e5d8b2" height="18" width="18" y="78.5" x="110.5"/>
 <rect id="AC06" style="stroke:#000;fill:#e5d8b2" height="18" width="18" y="78.5" x="129.5"/>
 <rect id="AC07" style="stroke:#000;fill:#e5d8b2" height="18" width="18" y="78.5" x="148.5"/>
 <rect id="AB09" style="stroke:#000;fill:#e5d8b2" height="18" width="18" y="97.5" x="197.5"/>
 <rect id="AC01" style="stroke:#000;fill:#e5d8b2" height="18" width="18" y="78.5" x="34.5"/>
 <rect id="AC02" style="stroke:#000;fill:#e5d8b2" height="18" width="18" y="78.5" x="53.5"/>
 <rect id="AC03" style="stroke:#000;fill:#e5d8b2" height="18" width="18" y="78.5" x="72.5"/>
 <rect id="AB05" style="stroke:#000;fill:#e5d8b2" height="18" width="18" y="97.5" x="121.5"/>
 <rect id="AB04" style="stroke:#000;fill:#e5d8b2" height="18" width="18" y="97.5" x="102.5"/>
 <rect id="AE08" style="stroke:#000;fill:#e5d8b2" height="18" width="18" y="40.5" x="152.5"/>
 <rect id="AB06" style="stroke:#000;fill:#e5d8b2" height="18" width="18" y="97.5" x="140.5"/>
 <rect id="AC08" style="stroke:#000;fill:#e5d8b2" height="18" width="18" y="78.5" x="167.5"/>
 <rect id="AC09" style="stroke:#000;fill:#e5d8b2" height="18" width="18" y="78.5" x="186.5"/>
 <rect id="AB03" style="stroke:#000;fill:#e5d8b2" height="18" width="18" y="97.5" x="83.5"/>
 <rect id="AB02" style="stroke:#000;fill:#e5d8b2" height="18" width="18" y="97.5" x="64.5"/>
 <rect id="AD08" style="stroke:#000;fill:#e5d8b2" height="18" width="18" y="59.5" x="162.5"/>
 <rect id="RWIN" style="stroke:#000;fill:#e5d8b2" height="18" width="20" y="116.5" x="214.5"/>
 <rect id="SPCE" style="stroke:#000;fill:#e5d8b2" height="18" width="113" y="116.5" x="76.5"/>
 <rect id="RTSH" style="stroke:#000;fill:#e5d8b2" height="18" width="47" y="97.5" x="235.5"/>
 <rect id="LWIN" style="stroke:#000;fill:#e5d8b2" height="18" width="23" y="116.5" x="28.5"/>
 <rect id="AB07" style="stroke:#000;fill:#e5d8b2" height="18" width="18" y="97.5" x="159.5"/>
 <rect id="INS" style="stroke:#000;fill:#e5d8b2" height="18" width="18" y="40.5" x="285.5"/>
 <rect id="HOME" style="stroke:#000;fill:#e5d8b2" height="18" width="18" y="40.5" x="304.5"/>
 <rect id="DELE" style="stroke:#000;fill:#e5d8b2" height="18" width="18" y="59.5" x="285.5"/>
 <rect id="END" style="stroke:#000;fill:#e5d8b2" height="18" width="18" y="59.5" x="304.5"/>
 <rect id="PGUP" style="stroke:#000;fill:#e5d8b2" height="18" width="18" y="40.5" x="323.5"/>
 <rect id="PGDN" style="stroke:#000;fill:#e5d8b2" height="18" width="18" y="59.5" x="323.5"/>
 <rect id="UP" style="stroke:#000;fill:#e5d8b2" height="18" width="18" y="97.5" x="304.5"/>
 <rect id="DOWN" style="stroke:#000;fill:#e5d8b2" height="18" width="18" y="116.5" x="304.5"/>
 <rect id="LEFT" style="stroke:#000;fill:#e5d8b2" height="18" width="18" y="116.5" x="285.5"/>
 <rect id="RGHT" style="stroke:#000;fill:#e5d8b2" height="18" width="18" y="116.5" x="323.5"/>
 <rect id="F10" style="stroke:#000;fill:#e5d8b2" height="18" width="18" y="19.5" x="219"/>
 <rect id="F3" style="stroke:#000;fill:#e5d8b2" height="18" width="18" y="19.5" x="67"/>
 <rect id="F2" style="stroke:#000;fill:#e5d8b2" height="18" width="18" y="19.5" x="48"/>
 <rect id="ESC" style="stroke:#000;fill:#e5d8b2" height="18" width="18" y="19.5" x=".5"/>
 <rect id="F12" style="stroke:#000;fill:#e5d8b2" height="18" width="18" y="19.5" x="257"/>
 <rect id="F11" style="stroke:#000;fill:#e5d8b2" height="18" width="18" y="19.5" x="238"/>
 <rect id="F9" style="stroke:#000;fill:#e5d8b2" height="18" width="18" y="19.5" x="200"/>
 <rect id="F6" style="stroke:#000;fill:#e5d8b2" height="18" width="18" y="19.5" x="133.5"/>
 <rect id="F7" style="stroke:#000;fill:#e5d8b2" height="18" width="18" y="19.5" x="152.5"/>
 <rect id="F1" style="stroke:#000;fill:#e5d8b2" height="18" width="18" y="19.5" x="29"/>
 <rect id="F4" style="stroke:#000;fill:#e5d8b2" height="18" width="18" y="19.5" x="86"/>
 <rect id="F8" style="stroke:#000;fill:#e5d8b2" height="18" width="18" y="19.5" x="171.5"/>
 <rect id="F5" style="stroke:#000;fill:#e5d8b2" height="18" width="18" y="19.5" x="114.5"/>
 <rect id="Prnt" style="stroke:#000;fill:#e5d8b2" height="18" width="18" y="19.5" x="285.5"/>
 <rect id="Scroll" style="stroke:#000;fill:#e5d8b2" height="18" width="18" y="19.5" x="304.5"/>
 <rect id="Pause" style="stroke:#000;fill:#e5d8b2" height="18" width="18" y="19.5" x="323.5"/>
 <rect id="hide" style="stroke:#000;fill:#e5d8b2" height="18" width="23" y="19.5" x="344.5"/>
 <rect id="move" style="stroke:#000;fill:#e5d8b2" height="18" width="23" y="40.5" x="344.5"/>
 <rect id="showclick" style="stroke:#000;fill:#e5d8b2" height="18" width="23" y="59.5" x="344.5"/>
 <rect id="layer0" style="stroke:#000;fill:#e5d8b2" height="27.5" width="23" y="78.5" x="344.5"/>
 <rect id="layer1" style="stroke:#000;fill:#e5d8b2" height="27.5" width="23" y="107" x="344.5"/>
 <rect id="correction" style="color:#000000;stroke:#7f7f7f;enable-background:accumulate;fill:#2b2b63" height="16" width="50" y=".5" x="28.5"/>
 <rect id="prediction" style="color:#000000;stroke:#7f7f7f;enable-background:accumulate;fill:#2b2b63" height="16" width="50" y=".5" x="110.5"/>
 <rect id="expand-corrections" style="stroke:#7f7f7f;stroke-width:1.3179;fill:#2b2b63" height="15.682" width="17.682" y=".65897" x="85.659"/>
 <rect id="hide.wordlist" style="stroke:#7f7f7f;stroke-width:1.0197;fill:#2b2b63" height="15.98" width="17.98" y=".50986" x="345.51"/>
 <rect id="move.wordlist" style="stroke:#000;fill:#e5d8b2" height="18" width="23" y="19.5" x="368.5"/>
 <rect id="showclick.wordlist" style="stroke:#000;fill:#e5d8b2" height="18" width="23" y="40.5" x="368.5"/>
 <rect id="layer0.wordlist" style="stroke:#000;fill:#e5d8b2" height="36.91" width="23" y="59.324" x="368.5"/>
 <rect id="layer1.wordlist" style="stroke:#000;fill:#e5d8b2" height="36.91" width="23" y="97.59" x="368.5"/>
 <rect id="language.wordlist" style="stroke:#7f7f7f;fill:#2b2b63" height="15.98" width="17.98" y=".50986" x="325.5"/>
id=&quot;g4172&quot;&gt;
 <rect id="doubleclick" style="stroke:#000;fill:#eca76b;fill-opacity:.90196" height="18" width="18" y="78.5" x="285.5"/>
 <rect id="dragclick" style="stroke:#000;fill:#eca76b;fill-opacity:.90196" height="18" width="18" y="78.5" x="304.5"/>
 <rect id="hoverclick" style="stroke:#000;fill:#eca76b;fill-opacity:.90196" height="18" width="18" y="78.5" x="323.5"/>
 <rect id="secondaryclick" style="stroke:#000;fill:#eca76b;fill-opacity:.90196" height="18" width="17" y="19.5" x="247.5"/>
 <rect id="middleclick" style="stroke:#000;fill:#eca76b;fill-opacity:.90196" height="18" width="17" y="19.5" x="265.5"/>
 <g id="RTRN">
  <path id="RTRN_100pct" d="m257.5 59.5h25v37h-20v-19h-5z" style="stroke:#000;fill:#e5d8b2"/>
  <path id="RTRN_50pct" style="opacity:.2;stroke:#000;enable-background:new;fill:#e5d8b2" d="m262.25 64.25h15.5v27.5h-10.5v-19h-5z">
   <desc id="desc4182">Scaled-down key at 50% key_size.
Group this with the full size return key to enable interpolation between these two paths when key_size is applied.</desc>
  </path>
 </g>
 <rect id="pause-learning.wordlist" style="stroke:#7f7f7f;fill:#2b2b63" height="15.98" width="17.98" y=".50986" x="305.5"/>
</svg>
