<?xml version='1.0' encoding='UTF-8'?>
<!-- Created with Onboard -->
<svg xmlns:cc='http://web.resource.org/cc/'
     xmlns:svg='http://www.w3.org/2000/svg'
     xmlns:dc='http://purl.org/dc/elements/1.1/'
     xmlns:rdf='http://www.w3.org/1999/02/22-rdf-syntax-ns#'
     xmlns='http://www.w3.org/2000/svg'
     height='157.0'
     width='395.0'
     version='1.0'
     id='full-alpha'>
  <rect
     style="fill:#151530;stroke:#7f7f7f;fill-opacity:1"
     id="inputline"
     width="227"
     height="18"
     x="21"
     y="41" />
  <rect
     style="fill:#2b2b63;stroke:#7f7f7f"
     id="stealthmode"
     x="2"
     y="20"
     width="18"
     height="18" />
  <rect
     style="fill:#151530;stroke:#7f7f7f;fill-opacity:1"
     id="wordlist"
     width="266"
     height="18"
     x="21"
     y="20" />
  <rect
     style="fill:#2b2b63;stroke:#7f7f7f"
     id="word0"
     width="50"
     height="18"
     x="40"
     y="20" />
  <rect
     style="fill:#2b2b63;stroke:#7f7f7f"
     id="learnmode"
     x="290"
     y="20"
     width="18"
     height="18" />
  <rect
     style="fill:#2b2b63;stroke:#7f7f7f"
     id="punctuation"
     x="309"
     y="20"
     width="18"
     height="18" />
  <rect
     style="fill:#2b2b63;stroke:#7f7f7f"
     id="dictionaries"
     x="328"
     y="20"
     width="18"
     height="18" />
  <rect
     style="fill:#403020;stroke:#7f7f7f"
     height="18"
     width="23"
     y="138"
     x="192"
     id="RALT" />
  <rect
     style="fill:#505001;stroke:#7f7f7f"
     height="18"
     width="18"
     y="119"
     x="47"
     id="AB01" />
  <rect
     style="fill:#505001;stroke:#7f7f7f"
     height="18"
     width="18"
     y="62"
     x="40"
     id="AE02" />
  <rect
     style="fill:#505001;stroke:#7f7f7f"
     height="18"
     width="18"
     y="62"
     x="59"
     id="AE03" />
  <rect
     style="fill:#505001;stroke:#7f7f7f"
     height="18"
     width="18"
     y="81"
     x="183"
     id="AD09" />
  <rect
     style="fill:#505001;stroke:#7f7f7f"
     height="18"
     width="18"
     y="62"
     x="21"
     id="AE01" />
  <rect
     style="fill:#505001;stroke:#7f7f7f"
     height="18"
     width="18"
     y="62"
     x="116"
     id="AE06" />
  <rect
     style="fill:#505001;stroke:#7f7f7f"
     height="18"
     width="18"
     y="62"
     x="135"
     id="AE07" />
  <rect
     style="fill:#505001;stroke:#7f7f7f"
     height="18"
     width="18"
     y="62"
     x="78"
     id="AE04" />
  <rect
     style="fill:#505001;stroke:#7f7f7f"
     height="18"
     width="18"
     y="62"
     x="97"
     id="AE05" />
  <rect
     style="fill:#505001;stroke:#7f7f7f"
     height="18"
     width="18"
     y="81"
     x="69"
     id="AD03" />
  <rect
     style="fill:#505001;stroke:#7f7f7f"
     height="18"
     width="18"
     y="81"
     x="50"
     id="AD02" />
  <rect
     style="fill:#505001;stroke:#7f7f7f"
     height="18"
     width="18"
     y="81"
     x="31"
     id="AD01" />
  <rect
     style="fill:#505001;stroke:#7f7f7f"
     height="18"
     width="18"
     y="62"
     x="173"
     id="AE09" />
  <rect
     style="fill:#505001;stroke:#7f7f7f"
     height="18"
     width="18"
     y="81"
     x="145"
     id="AD07" />
  <rect
     style="fill:#505001;stroke:#7f7f7f"
     height="18"
     width="18"
     y="81"
     x="126"
     id="AD06" />
  <rect
     style="fill:#505001;stroke:#7f7f7f"
     height="18"
     width="18"
     y="81"
     x="107"
     id="AD05" />
  <rect
     style="fill:#505001;stroke:#7f7f7f"
     height="18"
     width="18"
     y="81"
     x="88"
     id="AD04" />
  <rect
     style="fill:#505001;stroke:#7f7f7f"
     height="18"
     width="18"
     y="119"
     x="218"
     id="AB10" />
  <rect
     style="fill:#505001;stroke:#7f7f7f"
     height="18"
     width="18"
     y="100"
     x="226"
     id="AC11" />
  <rect
     style="fill:#505001;stroke:#7f7f7f"
     height="18"
     width="18"
     y="100"
     x="207"
     id="AC10" />
  <rect
     style="fill:#403020;stroke:#7f7f7f"
     height="18"
     width="23"
     y="138"
     x="264"
     id="RCTL" />
  <rect
     style="fill:#403020;stroke:#7f7f7f"
     height="18"
     width="27"
     y="138"
     x="2"
     id="LCTL" />
  <rect
     style="fill:#404031;stroke:#7f7f7f"
     height="18"
     width="28"
     y="81"
     x="2"
     id="TAB" />
  <rect
     style="fill:#403020;stroke:#7f7f7f"
     height="18"
     width="23"
     y="138"
     x="54"
     id="LALT" />
  <rect
     style="fill:#505001;stroke:#7f7f7f"
     height="18"
     width="18"
     y="62"
     x="2"
     id="TLDE" />
  <rect
     style="fill:#505001;stroke:#7f7f7f"
     height="18"
     width="18"
     y="119"
     x="28"
     id="LSGT" />
  <rect
     style="fill:#403020;stroke:#7f7f7f"
     height="18"
     width="25"
     y="119"
     x="2"
     id="LFSH" />
  <rect
     style="fill:#404031;stroke:#7f7f7f"
     height="18"
     width="38"
     y="62"
     x="249"
     id="BKSP" />
  <rect
     style="fill:#403020;stroke:#7f7f7f"
     height="18"
     width="33"
     y="100"
     x="2"
     id="CAPS" />
  <rect
     style="fill:#505001;stroke:#7f7f7f"
     height="18"
     width="28"
     y="81"
     x="259"
     id="BKSL" />
  <rect
     style="fill:#404031;stroke:#7f7f7f"
     height="18"
     width="42"
     y="100"
     x="245"
     id="RTRN" />
  <rect
     style="fill:#404031;stroke:#7f7f7f"
     height="18"
     width="23"
     y="138"
     x="240"
     id="MENU" />
  <rect
     style="fill:#505001;stroke:#7f7f7f"
     height="18"
     width="18"
     y="81"
     x="202"
     id="AD10" />
  <rect
     style="fill:#505001;stroke:#7f7f7f"
     height="18"
     width="18"
     y="81"
     x="221"
     id="AD11" />
  <rect
     style="fill:#505001;stroke:#7f7f7f"
     height="18"
     width="18"
     y="81"
     x="240"
     id="AD12" />
  <rect
     style="fill:#505001;stroke:#7f7f7f"
     height="18"
     width="18"
     y="119"
     x="180"
     id="AB08" />
  <rect
     style="fill:#505001;stroke:#7f7f7f"
     height="18"
     width="18"
     y="62"
     x="211"
     id="AE11" />
  <rect
     style="fill:#505001;stroke:#7f7f7f"
     height="18"
     width="18"
     y="62"
     x="192"
     id="AE10" />
  <rect
     style="fill:#505001;stroke:#7f7f7f"
     height="18"
     width="18"
     y="62"
     x="230"
     id="AE12" />
  <rect
     style="fill:#505001;stroke:#7f7f7f"
     height="18"
     width="18"
     y="100"
     x="93"
     id="AC04" />
  <rect
     style="fill:#505001;stroke:#7f7f7f"
     height="18"
     width="18"
     y="100"
     x="112"
     id="AC05" />
  <rect
     style="fill:#505001;stroke:#7f7f7f"
     height="18"
     width="18"
     y="100"
     x="131"
     id="AC06" />
  <rect
     style="fill:#505001;stroke:#7f7f7f"
     height="18"
     width="18"
     y="100"
     x="150"
     id="AC07" />
  <rect
     style="fill:#505001;stroke:#7f7f7f"
     height="18"
     width="18"
     y="119"
     x="199"
     id="AB09" />
  <rect
     style="fill:#505001;stroke:#7f7f7f"
     height="18"
     width="18"
     y="100"
     x="36"
     id="AC01" />
  <rect
     style="fill:#505001;stroke:#7f7f7f"
     height="18"
     width="18"
     y="100"
     x="55"
     id="AC02" />
  <rect
     style="fill:#505001;stroke:#7f7f7f"
     height="18"
     width="18"
     y="100"
     x="74"
     id="AC03" />
  <rect
     style="fill:#505001;stroke:#7f7f7f"
     height="18"
     width="18"
     y="119"
     x="123"
     id="AB05" />
  <rect
     style="fill:#505001;stroke:#7f7f7f"
     height="18"
     width="18"
     y="119"
     x="104"
     id="AB04" />
  <rect
     style="fill:#505001;stroke:#7f7f7f"
     height="18"
     width="18"
     y="62"
     x="154"
     id="AE08" />
  <rect
     style="fill:#505001;stroke:#7f7f7f"
     height="18"
     width="18"
     y="119"
     x="142"
     id="AB06" />
  <rect
     style="fill:#505001;stroke:#7f7f7f"
     height="18"
     width="18"
     y="100"
     x="169"
     id="AC08" />
  <rect
     style="fill:#505001;stroke:#7f7f7f"
     height="18"
     width="18"
     y="100"
     x="188"
     id="AC09" />
  <rect
     style="fill:#505001;stroke:#7f7f7f"
     height="18"
     width="18"
     y="119"
     x="85"
     id="AB03" />
  <rect
     style="fill:#505001;stroke:#7f7f7f"
     height="18"
     width="18"
     y="119"
     x="66"
     id="AB02" />
  <rect
     style="fill:#505001;stroke:#7f7f7f"
     height="18"
     width="18"
     y="81"
     x="164"
     id="AD08" />
  <rect
     style="fill:#404031;stroke:#7f7f7f"
     height="18"
     width="23"
     y="138"
     x="216"
     id="RWIN" />
  <rect
     style="fill:#505001;stroke:#7f7f7f"
     height="18"
     width="113"
     y="138"
     x="78"
     id="SPCE" />
  <rect
     style="fill:#403020;stroke:#7f7f7f"
     height="18"
     width="50"
     y="119"
     x="237"
     id="RTSH" />
  <rect
     style="fill:#403020;stroke:#7f7f7f"
     height="18"
     width="23"
     y="138"
     x="30"
     id="LWIN" />
  <rect
     style="fill:#505001;stroke:#7f7f7f"
     height="18"
     width="18"
     y="119"
     x="161"
     id="AB07" />
  <rect
     style="fill:#404031;stroke:#7f7f7f"
     height="18"
     width="18"
     y="62"
     x="290"
     id="INS" />
  <rect
     style="fill:#404031;stroke:#7f7f7f"
     height="18"
     width="18"
     y="62"
     x="309"
     id="HOME" />
  <rect
     style="fill:#404031;stroke:#7f7f7f"
     height="18"
     width="18"
     y="81"
     x="290"
     id="DELE" />
  <rect
     style="fill:#404031;stroke:#7f7f7f"
     height="18"
     width="18"
     y="81"
     x="309"
     id="END" />
  <rect
     style="fill:#404031;stroke:#7f7f7f"
     height="18"
     width="18"
     y="62"
     x="328"
     id="PGUP" />
  <rect
     style="fill:#404031;stroke:#7f7f7f"
     height="18"
     width="18"
     y="81"
     x="328"
     id="PGDN" />
  <rect
     style="fill:#404031;stroke:#7f7f7f"
     height="18"
     width="18"
     y="119"
     x="309"
     id="UP" />
  <rect
     style="fill:#404031;stroke:#7f7f7f"
     height="18"
     width="18"
     y="138"
     x="309"
     id="DOWN" />
  <rect
     style="fill:#404031;stroke:#7f7f7f"
     height="18"
     width="18"
     y="138"
     x="290"
     id="LEFT" />
  <rect
     style="fill:#404031;stroke:#7f7f7f"
     height="18"
     width="18"
     y="138"
     x="328"
     id="RGHT" />
  <rect
     style="fill:#404031;stroke:#7f7f7f"
     height="18"
     width="18"
     y="41"
     x="192"
     id="F10" />
  <rect
     style="fill:#404031;stroke:#7f7f7f"
     height="18"
     width="18"
     y="41"
     x="59"
     id="F3" />
  <rect
     style="fill:#404031;stroke:#7f7f7f"
     height="18"
     width="18"
     y="41"
     x="40"
     id="F2" />
  <rect
     style="fill:#404031;stroke:#7f7f7f"
     height="18"
     width="18"
     y="41"
     x="2"
     id="ESC" />
  <rect
     style="fill:#404031;stroke:#7f7f7f"
     height="18"
     width="18"
     y="41"
     x="230"
     id="F12" />
  <rect
     style="fill:#404031;stroke:#7f7f7f"
     height="18"
     width="18"
     y="41"
     x="211"
     id="F11" />
  <rect
     style="fill:#404031;stroke:#7f7f7f"
     height="18"
     width="18"
     y="41"
     x="173"
     id="F9" />
  <rect
     style="fill:#404031;stroke:#7f7f7f"
     height="18"
     width="18"
     y="41"
     x="116"
     id="F6" />
  <rect
     style="fill:#404031;stroke:#7f7f7f"
     height="18"
     width="18"
     y="41"
     x="135"
     id="F7" />
  <rect
     style="fill:#404031;stroke:#7f7f7f"
     height="18"
     width="18"
     y="41"
     x="21"
     id="F1" />
  <rect
     style="fill:#404031;stroke:#7f7f7f"
     height="18"
     width="18"
     y="41"
     x="78"
     id="F4" />
  <rect
     style="fill:#404031;stroke:#7f7f7f"
     height="18"
     width="18"
     y="41"
     x="154"
     id="F8" />
  <rect
     style="fill:#404031;stroke:#7f7f7f"
     height="18"
     width="18"
     y="41"
     x="97"
     id="F5" />
  <rect
     style="fill:#404031;stroke:#7f7f7f"
     height="18"
     width="18"
     y="41"
     x="290"
     id="Prnt" />
  <rect
     style="fill:#404031;stroke:#7f7f7f"
     height="18"
     width="18"
     y="41"
     x="309"
     id="Scroll" />
  <rect
     style="fill:#404031;stroke:#7f7f7f"
     height="18"
     width="18"
     y="41"
     x="328"
     id="Pause" />
  <rect 
     style="fill:#7f0000;stroke:#7f7f7f"
     height="18"
     width="35"
     y="41"
     x="252"
     id="settings" />
    <rect height="18.0" id="singleclick" style="fill:#d8cca5;stroke:#000000;" width="18.0" x="349" y="41"/>
    <rect height="18.0" id="middleclick" style="fill:#d8cca5;stroke:#000000;" width="18.0" x="349" y=" 62"/>
    <rect height="18.0" id="secondaryclick" style="fill:#d8cca5;stroke:#000000;" width="18.0" x="349" y="81"/>
    <rect height="18.0" id="doubleclick" style="fill:#d8cca5;stroke:#000000;" width="18.0" x="349" y="100"/>
    <rect height="18.0" id="dragclick" style="fill:#d8cca5;stroke:#000000;" width="18.0" x="349" y="119"/>
    <rect height="18.0" id="hoverclick" style="fill:#d8cca5;stroke:#000000;" width="18.0" x="349" y="138"/>

    <rect height="18.0" id="hide" style="fill:#e5d8b2;stroke:#000000;" width="25.0" x="369" y="41"/>
    <rect height="18.0" id="move" style="fill:#e5d8b2;stroke:#000000;" width="25.0" x="369" y="62"/>
    <rect height="18.0" id="settings" style="fill:#e5d8b2;stroke:#000000;" width="25.0" x="369" y="81"/>
    <rect height="18.0" id="showclick" style="fill:#d8cca5;stroke:#000000;" width="25.0" x="369" y="100"/>
    <rect height="18.0" id="layer0" style="fill:#e5d8b2;stroke:#000000;" width="25.0" x="369" y="119"/>
    <rect height="18.0" id="layer1" style="fill:#e5d8b2;stroke:#000000;" width="25.0" x="369" y="138"/>
</svg>
