<?xml version="1.0" encoding="UTF-8" standalone="no"?>
<!-- Created for Onboard -->
<svg id="svg2" xmlns:rdf="http://www.w3.org/1999/02/22-rdf-syntax-ns#" xmlns="http://www.w3.org/2000/svg" height="137" width="391" version="1.0" xmlns:cc="http://creativecommons.org/ns#" xmlns:dc="http://purl.org/dc/elements/1.1/">
 <metadata id="metadata44">
  <rdf:RDF>
   <cc:Work rdf:about="">
    <dc:format>image/svg+xml</dc:format>
    <dc:type rdf:resource="http://purl.org/dc/dcmitype/StillImage"/>
   </cc:Work>
  </rdf:RDF>
 </metadata>
 <rect id="NMLK" height="21.979" width="21.979" stroke="#000" y="21.611" x="252.81" stroke-width="1.2211" fill="#e5d8b2"/>
 <rect id="KPMU" height="21.979" width="21.979" stroke="#000" y="21.611" x="299.21" stroke-width="1.2211" fill="#e5d8b2"/>
 <rect id="KPDV" height="21.979" width="21.979" stroke="#000" y="21.611" x="276.01" stroke-width="1.2211" fill="#e5d8b2"/>
 <rect id="KPSU" height="21.979" width="21.979" stroke="#000" y="21.611" x="322.41" stroke-width="1.2211" fill="#e5d8b2"/>
 <rect id="KPAD" height="45.179" width="21.979" stroke="#000" y="44.81" x="322.41" stroke-width="1.2211" fill="#e5d8b2"/>
 <rect id="KP7" height="21.979" width="21.979" stroke="#000" y="44.81" x="252.81" stroke-width="1.2211" fill="#e5d8b2"/>
 <rect id="KP8" height="21.979" width="21.979" stroke="#000" y="44.81" x="276.01" stroke-width="1.2211" fill="#e5d8b2"/>
 <rect id="KP9" height="21.979" width="21.979" stroke="#000" y="44.81" x="299.21" stroke-width="1.2211" fill="#e5d8b2"/>
 <rect id="KP4" height="21.979" width="21.979" stroke="#000" y="68.011" x="252.81" stroke-width="1.2211" fill="#e5d8b2"/>
 <rect id="KP5" height="21.979" width="21.979" stroke="#000" y="68.011" x="276.01" stroke-width="1.2211" fill="#e5d8b2"/>
 <rect id="KP6" height="21.979" width="21.979" stroke="#000" y="68.011" x="299.21" stroke-width="1.2211" fill="#e5d8b2"/>
 <rect id="KP1" height="21.979" width="21.979" stroke="#000" y="91.211" x="252.81" stroke-width="1.2211" fill="#e5d8b2"/>
 <rect id="KP2" height="21.979" width="21.979" stroke="#000" y="91.211" x="276.01" stroke-width="1.2211" fill="#e5d8b2"/>
 <rect id="KP3" height="21.979" width="21.979" stroke="#000" y="91.211" x="299.21" stroke-width="1.2211" fill="#e5d8b2"/>
 <rect id="KPEN" height="45.179" width="21.979" stroke="#000" y="91.211" x="322.41" stroke-width="1.2211" fill="#e5d8b2"/>
 <rect id="KP0" height="21.979" width="45.179" stroke="#000" y="114.41" x="252.81" stroke-width="1.2211" fill="#e5d8b2"/>
 <rect id="KPDL" height="21.979" width="21.979" stroke="#000" y="114.41" x="299.21" stroke-width="1.2211" fill="#e5d8b2"/>
 <rect id="m0" height="24.648" width="40.918" stroke="#000" y="21.319" x="58.066" stroke-width="1.1284" fill="#e5d8b2"/>
 <rect id="m1" height="24.429" width="40.922" stroke="#000" y="21.428" x="104.22" stroke-width="1.1234" fill="#e5d8b2"/>
 <rect id="m2" height="24.648" width="40.918" stroke="#000" y="21.319" x="150.39" stroke-width="1.1284" fill="#e5d8b2"/>
 <rect id="m3" height="24.429" width="40.922" stroke="#000" y="21.428" x="196.54" stroke-width="1.1234" fill="#e5d8b2"/>
 <rect id="m4" height="24.429" width="40.922" stroke="#000" y="51.585" x="58.064" stroke-width="1.1234" fill="#e5d8b2"/>
 <rect id="m5" height="24.648" width="40.918" stroke="#000" y="51.476" x="104.23" stroke-width="1.1284" fill="#e5d8b2"/>
 <rect id="m6" height="24.429" width="40.922" stroke="#000" y="51.585" x="150.39" stroke-width="1.1234" fill="#e5d8b2"/>
 <rect id="m7" height="24.648" width="40.918" stroke="#000" y="51.476" x="196.55" stroke-width="1.1284" fill="#e5d8b2"/>
 <rect id="m8" height="24.648" width="40.918" stroke="#000" y="81.633" x="58.066" stroke-width="1.1284" fill="#e5d8b2"/>
 <rect id="m9" height="24.648" width="40.918" stroke="#000" y="81.633" x="104.23" stroke-width="1.1284" fill="#e5d8b2"/>
 <rect id="m10" height="24.648" width="40.918" stroke="#000" y="81.633" x="150.39" stroke-width="1.1284" fill="#e5d8b2"/>
 <rect id="m11" height="24.648" width="40.918" stroke="#000" y="81.633" x="196.55" stroke-width="1.1284" fill="#e5d8b2"/>
 <rect id="m12" height="24.648" width="40.918" stroke="#000" y="111.79" x="58.066" stroke-width="1.1284" fill="#e5d8b2"/>
 <rect id="m13" height="24.648" width="40.918" stroke="#000" y="111.79" x="104.23" stroke-width="1.1284" fill="#e5d8b2"/>
 <rect id="m14" height="24.648" width="40.918" stroke="#000" y="111.79" x="150.39" stroke-width="1.1284" fill="#e5d8b2"/>
 <rect id="m15" height="24.648" width="40.918" stroke="#000" y="111.79" x="196.55" stroke-width="1.1284" fill="#e5d8b2"/>
 <rect id="quit" height="24.445" width="40.787" stroke="#000" y="111.87" x="5.6472" stroke-width="1.2943" fill="#e5d8b2"/>
 <rect id="settings" height="24.445" width="40.787" stroke="#000" y="81.716" x="5.6472" stroke-width="1.2943" fill="#e5d8b2"/>
</svg>
