<?xml version='1.0' encoding='UTF-8'?>
<!-- Created for Onboard -->
<svg xmlns:cc='http://web.resource.org/cc/'
     xmlns:svg='http://www.w3.org/2000/svg'
     xmlns:dc='http://purl.org/dc/elements/1.1/'
     xmlns:rdf='http://www.w3.org/1999/02/22-rdf-syntax-ns#'
     xmlns='http://www.w3.org/2000/svg'
     height='98.0'
     width='294.0'
     version='1.0'
     id='svg2'>
  <rect height="18.0" width="18.0" y="62" x="2.0" id="INS" />
  <rect height="18.0" width="18.0" y="62" x="21.0" id="HOME" />
  <rect height="18.0" width="18.0" y="62" x="40.0" id="PGUP" />
  <rect height="18.0" width="18.0" y="100" x="2.0" id="DELE" />
  <rect height="18.0" width="18.0" y="100" x="21.0" id="END" />
  <rect height="18.0" width="18.0" y="100" x="40.0" id="PGDN" />
  <rect height="18.0" width="18.0" y="119" x="21.0" id="UP" />
  <rect height="18.0" width="18.0" y="138" x="2.0" id="LEFT" />
  <rect height="18.0" width="18.0" y="138" x="21.0" id="DOWN" />
  <rect height="18.0" width="18.0" y="138" x="40.0" id="RGHT" />

  <rect height="18.0" width="18.0" y="62" x="80.0" id="NMLK" />
  <rect height="18.0" width="18.0" y="62" x="118.0" id="KPMU" />
  <rect height="18.0" width="18.0" y="62" x="99.0" id="KPDV" />
  <rect height="18.0" width="18.0" y="62" x="137.0" id="KPSU" />
  <rect height="37.0" width="18.0" y="81" x="137.0" id="KPAD" />
  <rect height="18.0" width="18.0" y="81" x="80.0" id="KP7" />
  <rect height="18.0" width="18.0" y="81" x="99.0" id="KP8" />
  <rect height="18.0" width="18.0" y="81" x="118.0" id="KP9" />
  <rect height="18.0" width="18.0" y="100" x="80.0" id="KP4" />
  <rect height="18.0" width="18.0" y="100" x="99.0" id="KP5" />
  <rect height="18.0" width="18.0" y="100" x="118.0" id="KP6" />
  <rect height="18.0" width="18.0" y="119" x="80.0" id="KP1" />
  <rect height="18.0" width="18.0" y="119" x="99.0" id="KP2" />
  <rect height="18.0" width="18.0" y="119" x="118.0" id="KP3" />
  <rect height="37.0" width="18.0" y="119" x="137.0" id="KPEN" />
  <rect height="18.0" width="37.0" y="138" x="80.0" id="KP0" />
  <rect height="18.0" width="18.0" y="138" x="118.0" id="KPDL" />

  <rect height="18" width="33.065235" x="251.67316" y="79" id="settings" />

  <rect height="24" width="33" y="62" x="175.6299" id="m0" />
  <rect height="24" width="33" y="62" x="213.65045" id="m1" />
  <rect height="24" width="33" y="62" x="251.67101" id="m2" />
  <rect height="24" width="33" y="89" x="175.6299" id="m3" />
  <rect height="24" width="33" y="89" x="213.65045" id="m4" />
  <rect height="24" width="33" y="89" x="251.67101" id="m5" />
  <rect height="24" width="33" y="116" x="175.6299" id="m6" />
  <rect height="24" width="33" y="116" x="213.65045" id="m7" />
  <rect height="24" width="33" y="116" x="251.67101" id="m8" />
</svg>
