<?xml version="1.0" encoding="UTF-8" standalone="no"?>
<!-- Created for Onboard -->
<svg id="svg2" xmlns:rdf="http://www.w3.org/1999/02/22-rdf-syntax-ns#" xmlns="http://www.w3.org/2000/svg" height="137" width="391" version="1.0" xmlns:cc="http://creativecommons.org/ns#" xmlns:dc="http://purl.org/dc/elements/1.1/">
 <metadata id="metadata44">
  <rdf:RDF>
   <cc:Work rdf:about="">
    <dc:format>image/svg+xml</dc:format>
    <dc:type rdf:resource="http://purl.org/dc/dcmitype/StillImage"/>
   </cc:Work>
  </rdf:RDF>
 </metadata>
 <rect id="NMLK" style="stroke:#000;fill:#e5d8b2" height="21.979" width="21.979" y="21.721" x="61.163"/>
 <rect id="KPMU" style="stroke:#000;fill:#e5d8b2" height="21.979" width="21.979" y="21.721" x="107.56"/>
 <rect id="KPDV" style="stroke:#000;fill:#e5d8b2" height="21.979" width="21.979" y="21.721" x="84.363"/>
 <rect id="KPSU" style="stroke:#000;fill:#e5d8b2" height="21.979" width="21.979" y="21.721" x="130.76"/>
 <rect id="KPAD" style="stroke:#000;fill:#e5d8b2" height="45.179" width="21.979" y="44.92" x="130.76"/>
 <rect id="KP7" style="stroke:#000;fill:#e5d8b2" height="21.979" width="21.979" y="44.92" x="61.163"/>
 <rect id="KP8" style="stroke:#000;fill:#e5d8b2" height="21.979" width="21.979" y="44.92" x="84.363"/>
 <rect id="KP9" style="stroke:#000;fill:#e5d8b2" height="21.979" width="21.979" y="44.92" x="107.56"/>
 <rect id="KP4" style="stroke:#000;fill:#e5d8b2" height="21.979" width="21.979" y="68.121" x="61.163"/>
 <rect id="KP5" style="stroke:#000;fill:#e5d8b2" height="21.979" width="21.979" y="68.121" x="84.363"/>
 <rect id="KP6" style="stroke:#000;fill:#e5d8b2" height="21.979" width="21.979" y="68.121" x="107.56"/>
 <rect id="KP1" style="stroke:#000;fill:#e5d8b2" height="21.979" width="21.979" y="91.322" x="61.163"/>
 <rect id="KP2" style="stroke:#000;fill:#e5d8b2" height="21.979" width="21.979" y="91.322" x="84.363"/>
 <rect id="KP3" style="stroke:#000;fill:#e5d8b2" height="21.979" width="21.979" y="91.322" x="107.56"/>
 <rect id="KPEN" style="stroke:#000;fill:#e5d8b2" height="45.178" width="21.979" y="91.322" x="130.76"/>
 <rect id="KP0" style="stroke:#000;fill:#e5d8b2" height="21.979" width="45.179" y="114.52" x="61.163"/>
 <rect id="KPDL" style="stroke:#000;fill:#e5d8b2" height="21.979" width="21.979" y="114.52" x="107.56"/>
 <rect id="m0" style="stroke:#000;fill:#e5d8b2" height="24.595" width="40.918" y="21.627" x="164.79"/>
 <rect id="m1" style="stroke:#000;fill:#e5d8b2" height="24.377" width="40.922" y="21.736" x="210.94"/>
 <rect id="m2" style="stroke:#000;fill:#e5d8b2" height="24.595" width="40.918" y="21.627" x="257.11"/>
 <rect id="m3" style="stroke:#000;fill:#e5d8b2" height="24.377" width="40.922" y="21.736" x="303.26"/>
 <rect id="m4" style="stroke:#000;fill:#e5d8b2" height="24.377" width="40.922" y="51.828" x="164.78"/>
 <rect id="m5" style="stroke:#000;fill:#e5d8b2" height="24.595" width="40.918" y="51.72" x="210.95"/>
 <rect id="m6" style="stroke:#000;fill:#e5d8b2" height="24.377" width="40.922" y="51.828" x="257.11"/>
 <rect id="m7" style="stroke:#000;fill:#e5d8b2" height="24.595" width="40.918" y="51.72" x="303.27"/>
 <rect id="m8" style="stroke:#000;fill:#e5d8b2" height="24.595" width="40.918" y="81.812" x="164.79"/>
 <rect id="m9" style="stroke:#000;fill:#e5d8b2" height="24.595" width="40.918" y="81.812" x="210.95"/>
 <rect id="m10" style="stroke:#000;fill:#e5d8b2" height="24.595" width="40.918" y="81.812" x="257.11"/>
 <rect id="m11" style="stroke:#000;fill:#e5d8b2" height="24.595" width="40.918" y="81.812" x="303.27"/>
 <rect id="m12" style="stroke:#000;fill:#e5d8b2" height="24.595" width="40.918" y="111.9" x="164.79"/>
 <rect id="m13" style="stroke:#000;fill:#e5d8b2" height="24.595" width="40.918" y="111.9" x="210.95"/>
 <rect id="m14" style="stroke:#000;fill:#e5d8b2" height="24.595" width="40.918" y="111.9" x="257.11"/>
 <rect id="m15" style="stroke:#000;fill:#e5d8b2" height="24.595" width="40.918" y="111.9" x="303.27"/>
 <rect id="quit" style="stroke:#000;fill:#e5d8b2" height="24.429" width="40.752" y="111.92" x="8.6467"/>
 <rect id="settings" style="stroke:#000;fill:#e5d8b2" height="24.429" width="40.752" y="81.832" x="8.6467"/>
</svg>
