<?xml version="1.0" encoding="UTF-8" standalone="no"?>
<!-- Created for Onboard -->
<svg id="svg2" xmlns:rdf="http://www.w3.org/1999/02/22-rdf-syntax-ns#" xmlns="http://www.w3.org/2000/svg" height="135" width="391" version="1.0" xmlns:cc="http://creativecommons.org/ns#" xmlns:dc="http://purl.org/dc/elements/1.1/">
 <metadata id="metadata44">
  <rdf:RDF>
   <cc:Work rdf:about="">
    <dc:format>image/svg+xml</dc:format>
    <dc:type rdf:resource="http://purl.org/dc/dcmitype/StillImage"/>
    <dc:title>Full Keyboard-Numpad.svg</dc:title>
    <cc:license rdf:resource="https://www.gnu.org/licenses/gpl.txt"/>
    <dc:creator>
     <cc:Agent>
      <dc:title>Onboard Devel Team at https://launchpad.net/~onboard</dc:title>
     </cc:Agent>
    </dc:creator>
    <dc:rights>
     <cc:Agent>
      <dc:title>GPL-3+ license</dc:title>
     </cc:Agent>
    </dc:rights>
    <dc:publisher>
     <cc:Agent>
      <dc:title>Onboard Devel Team</dc:title>
     </cc:Agent>
    </dc:publisher>
    <dc:source>https://launchpad.net/onboard</dc:source>
    <dc:relation>This file is part of Onboard</dc:relation>
    <dc:contributor>
     <cc:Agent>
      <dc:title>Copyright © 2016, Francesco Fumanti &lt;francesco.fumanti@gmx.net&gt;
Copyright © 2011-2014, marmuta &lt;marmvta@gmail.com&gt;</dc:title>
     </cc:Agent>
    </dc:contributor>
   </cc:Work>
  </rdf:RDF>
 </metadata>
 <rect id="NMLK" style="stroke:#000;fill:#e5d8b2" height="21.979" width="21.979" y="19.721" x="59.663"/>
 <rect id="KPMU" style="stroke:#000;fill:#e5d8b2" height="21.979" width="21.979" y="19.721" x="106.06"/>
 <rect id="KPDV" style="stroke:#000;fill:#e5d8b2" height="21.979" width="21.979" y="19.721" x="82.863"/>
 <rect id="KPSU" style="stroke:#000;fill:#e5d8b2" height="21.979" width="21.979" y="19.721" x="129.26"/>
 <rect id="KPAD" style="stroke:#000;fill:#e5d8b2" height="45.179" width="21.979" y="42.92" x="129.26"/>
 <rect id="KP7" style="stroke:#000;fill:#e5d8b2" height="21.979" width="21.979" y="42.92" x="59.663"/>
 <rect id="KP8" style="stroke:#000;fill:#e5d8b2" height="21.979" width="21.979" y="42.92" x="82.863"/>
 <rect id="KP9" style="stroke:#000;fill:#e5d8b2" height="21.979" width="21.979" y="42.92" x="106.06"/>
 <rect id="KP4" style="stroke:#000;fill:#e5d8b2" height="21.979" width="21.979" y="66.121" x="59.663"/>
 <rect id="KP5" style="stroke:#000;fill:#e5d8b2" height="21.979" width="21.979" y="66.121" x="82.863"/>
 <rect id="KP6" style="stroke:#000;fill:#e5d8b2" height="21.979" width="21.979" y="66.121" x="106.06"/>
 <rect id="KP1" style="stroke:#000;fill:#e5d8b2" height="21.979" width="21.979" y="89.322" x="59.663"/>
 <rect id="KP2" style="stroke:#000;fill:#e5d8b2" height="21.979" width="21.979" y="89.322" x="82.863"/>
 <rect id="KP3" style="stroke:#000;fill:#e5d8b2" height="21.979" width="21.979" y="89.322" x="106.06"/>
 <rect id="KPEN" style="stroke:#000;fill:#e5d8b2" height="45.178" width="21.979" y="89.322" x="129.26"/>
 <rect id="KP0" style="stroke:#000;fill:#e5d8b2" height="21.979" width="45.179" y="112.52" x="59.663"/>
 <rect id="KPDL" style="stroke:#000;fill:#e5d8b2" height="21.979" width="21.979" y="112.52" x="106.06"/>
 <rect id="m0" style="stroke:#000;fill:#e5d8b2" height="24.595" width="40.918" y="19.627" x="161.79"/>
 <rect id="m1" style="stroke:#000;fill:#e5d8b2" height="24.377" width="40.922" y="19.736" x="207.94"/>
 <rect id="m2" style="stroke:#000;fill:#e5d8b2" height="24.595" width="40.918" y="19.627" x="254.11"/>
 <rect id="m3" style="stroke:#000;fill:#e5d8b2" height="24.377" width="40.922" y="19.736" x="300.26"/>
 <rect id="m4" style="stroke:#000;fill:#e5d8b2" height="24.377" width="40.922" y="49.828" x="161.78"/>
 <rect id="m5" style="stroke:#000;fill:#e5d8b2" height="24.595" width="40.918" y="49.72" x="207.95"/>
 <rect id="m6" style="stroke:#000;fill:#e5d8b2" height="24.377" width="40.922" y="49.828" x="254.11"/>
 <rect id="m7" style="stroke:#000;fill:#e5d8b2" height="24.595" width="40.918" y="49.72" x="300.27"/>
 <rect id="m8" style="stroke:#000;fill:#e5d8b2" height="24.595" width="40.918" y="79.812" x="161.79"/>
 <rect id="m9" style="stroke:#000;fill:#e5d8b2" height="24.595" width="40.918" y="79.812" x="207.95"/>
 <rect id="m10" style="stroke:#000;fill:#e5d8b2" height="24.595" width="40.918" y="79.812" x="254.11"/>
 <rect id="m11" style="stroke:#000;fill:#e5d8b2" height="24.595" width="40.918" y="79.812" x="300.27"/>
 <rect id="m12" style="stroke:#000;fill:#e5d8b2" height="24.595" width="40.918" y="109.9" x="161.79"/>
 <rect id="m13" style="stroke:#000;fill:#e5d8b2" height="24.595" width="40.918" y="109.9" x="207.95"/>
 <rect id="m14" style="stroke:#000;fill:#e5d8b2" height="24.595" width="40.918" y="109.9" x="254.11"/>
 <rect id="m15" style="stroke:#000;fill:#e5d8b2" height="24.595" width="40.918" y="109.9" x="300.27"/>
 <rect id="quit" style="stroke:#000;fill:#e5d8b2" height="24.429" width="40.752" y="109.92" x="8.6467"/>
 <rect id="settings" style="stroke:#000;fill:#e5d8b2" height="24.429" width="40.752" y="79.832" x="8.6467"/>
</svg>
