<?xml version="1.0" encoding="UTF-8" standalone="no"?>
<!-- Created with Inkscape (http://www.inkscape.org/) -->
<svg id="scan-base" xmlns:rdf="http://www.w3.org/1999/02/22-rdf-syntax-ns#" xmlns="http://www.w3.org/2000/svg" height="115" width="190" version="1.0" xmlns:cc="http://creativecommons.org/ns#" xmlns:dc="http://purl.org/dc/elements/1.1/">
 <metadata id="metadata7">
  <rdf:RDF>
   <cc:Work rdf:about="">
    <dc:format>image/svg+xml</dc:format>
    <dc:type rdf:resource="http://purl.org/dc/dcmitype/StillImage"/>
    <dc:title>Grid-Alpha.svg</dc:title>
    <cc:license rdf:resource="https://www.gnu.org/licenses/gpl.txt"/>
    <dc:creator>
     <cc:Agent>
      <dc:title>Onboard Devel Team at https://launchpad.net/~onboard</dc:title>
     </cc:Agent>
    </dc:creator>
    <dc:rights>
     <cc:Agent>
      <dc:title>GPL-3+ license</dc:title>
     </cc:Agent>
    </dc:rights>
    <dc:publisher>
     <cc:Agent>
      <dc:title>Onboard Devel Team</dc:title>
     </cc:Agent>
    </dc:publisher>
    <dc:source>https://launchpad.net/onboard</dc:source>
    <dc:relation>This file is part of Onboard</dc:relation>
    <dc:contributor>
     <cc:Agent>
      <dc:title>Copyright © 2016, Francesco Fumanti &lt;francesco.fumanti@gmx.net&gt;
Copyright © 2011-2014, marmuta &lt;marmvta@gmail.com&gt;</dc:title>
     </cc:Agent>
    </dc:contributor>
   </cc:Work>
  </rdf:RDF>
 </metadata>
 <rect id="q" style="stroke:#000;fill:#a97679" height="18" width="18" y="58.5" x="95.5"/>
 <rect id="w" style="stroke:#000;fill:#a97679" height="18" width="18" y="39.5" x="57.5"/>
 <rect id="e" style="stroke:#000;fill:#a97679" height="18" width="18" y="20.5" x=".50010"/>
 <rect id="r" style="stroke:#000;fill:#a97679" height="18" width="18" y="58.5" x=".50002"/>
 <rect id="t" style="stroke:#000;fill:#a97679" height="18" width="18" y="20.5" x="19.5"/>
 <rect id="y" style="stroke:#000;fill:#a97679" height="18" width="18" y="39.5" x="114.5"/>
 <rect id="u" style="stroke:#000;fill:#a97679" height="18" width="18" y="20.5" x="76.5"/>
 <rect id="i" style="stroke:#000;fill:#a97679" height="18" width="18" y="39.5" x=".50002"/>
 <rect id="o" style="stroke:#000;fill:#a97679" height="18" width="18" y="20.5" x="57.5"/>
 <rect id="p" style="stroke:#000;fill:#a97679" height="18" width="18" y="77.5" x="57.5"/>
 <rect id="a" style="stroke:#000;fill:#a97679" height="18" width="18" y="20.5" x="38.5"/>
 <rect id="s" style="stroke:#000;fill:#a97679" height="18" width="18" y="39.5" x="38.5"/>
 <rect id="d" style="stroke:#000;fill:#a97679" height="18" width="18" y="58.5" x="19.5"/>
 <rect id="f" style="stroke:#000;fill:#a97679" height="18" width="18" y="39.5" x="76.5"/>
 <rect id="g" style="stroke:#000;fill:#a97679" height="18" width="18" y="77.5" x="38.5"/>
 <rect id="h" style="stroke:#000;fill:#a97679" height="18" width="18" y="39.5" x="95.5"/>
 <rect id="j" style="stroke:#000;fill:#a97679" height="18" width="18" y="77.5" x=".50002"/>
 <rect id="k" style="stroke:#000;fill:#a97679" height="18" width="18" y="77.5" x="19.5"/>
 <rect id="l" style="stroke:#000;fill:#a97679" height="18" width="18" y="58.5" x="38.5"/>
 <rect id="z" style="stroke:#000;fill:#a97679" height="18" width="18" y="58.5" x="114.5"/>
 <rect id="x" style="stroke:#000;fill:#a97679" height="18" width="18" y="58.5" x="76.5"/>
 <rect id="c" style="stroke:#000;fill:#a97679" height="18" width="18" y="58.5" x="57.5"/>
 <rect id="v" style="stroke:#000;fill:#a97679" height="18" width="18" y="77.5" x="76.5"/>
 <rect id="b" style="stroke:#000;fill:#a97679" height="18" width="18" y="20.5" x="114.5"/>
 <rect id="n" style="stroke:#000;fill:#a97679" height="18" width="18" y="39.5" x="19.5"/>
 <rect id="m" style="stroke:#000;fill:#a97679" height="18" width="18" y="20.5" x="95.5"/>
 <rect id="LFSH" style="stroke:#000;fill:#b7ad8b" height="18" width="18" y="96.5" x="0.5"/>
 <rect id="SPCE" style="stroke:#000;fill:#b7ad8b" height="18" width="56" y="96.5" x="19.5"/>
 <rect id="RTRN" style="stroke:#000;fill:#b7ad8b" height="18" width="37" y="96.5" x="95.5"/>
 <rect id="1" style="stroke:#000;fill:#dad0ac" height="18" width="18" y="20.5" x="133.5"/>
 <rect id="2" style="stroke:#000;fill:#dad0ac" height="18" width="18" y="39.5" x="133.5"/>
 <rect id="3" style="stroke:#000;fill:#dad0ac" height="18" width="18" y="58.5" x="133.5"/>
 <rect id="4" style="stroke:#000;fill:#dad0ac" height="18" width="18" y="77.5" x="133.5"/>
 <rect id="5" style="stroke:#000;fill:#dad0ac" height="18" width="18" y="96.5" x="133.5"/>
 <rect id="6" style="stroke:#000;fill:#dad0ac" height="18" width="18" y="20.5" x="152.5"/>
 <rect id="7" style="stroke:#000;fill:#dad0ac" height="18" width="18" y="39.5" x="152.5"/>
 <rect id="8" style="stroke:#000;fill:#dad0ac" height="18" width="18" y="58.5" x="152.5"/>
 <rect id="9" style="stroke:#000;fill:#dad0ac" height="18" width="18" y="77.5" x="152.5"/>
 <rect id="0" style="stroke:#000;fill:#dad0ac" height="18" width="18" y="96.5" x="152.5"/>
 <rect id="BKSP" style="stroke:#000;fill:#b7ad8b" height="18" width="18" y="96.5" x="76.5"/>
 <rect id="full-stop" style="stroke:#000;fill:#a97679" height="18" width="18" y="77.5" x="95.5"/>
 <rect id="comma" style="stroke:#000;fill:#a97679" height="18" width="18" y="77.5" x="114.5"/>
 <rect id="middleclick" style="stroke:#000;fill:#cdad72" height="18" width="18" y="20.5" x="172"/>
 <rect id="secondaryclick" style="stroke:#000;fill:#cdad72" height="18" width="18" y="39.5" x="172"/>
 <rect id="doubleclick" style="stroke:#000;fill:#cdad72" height="18" width="18" y="58.5" x="172"/>
 <rect id="dragclick" style="stroke:#000;fill:#cdad72" height="18" width="18" y="77.5" x="172"/>
 <rect id="hoverclick" style="stroke:#000;fill:#cdad72" height="18" width="18" y="96.5" x="172"/>
 <rect id="wordlist" style="stroke:#7f7f7f;fill:#151530" height="15" width="170" y="3.9998" x=".50010"/>
 <rect id="prediction" style="color:#000000;stroke:#7f7f7f;fill:#2b2b63" height="15" width="27" y="3.9998" x="55.5"/>
 <rect id="correction" style="color:#000000;stroke:#7f7f7f;fill:#2b2b63" height="15" width="27" y="3.9998" x="5.5"/>
 <rect id="expand-corrections" style="stroke:#7f7f7f;fill:#2b2b63" height="15" width="10.976" y="3.9998" x="38.5"/>
 <rect id="hide.wordlist" style="stroke:#7f7f7f;fill:#2b2b63" height="14.97" width="11.97" y="4.0149" x="152.5"/>
 <rect id="language.wordlist" style="stroke:#7f7f7f;fill:#2b2b63" height="14.97" width="11.97" y="4.0149" x="135.5"/>
 <rect id="settings" style="stroke:#000;fill:#dad0ac" height="18" width="18" y="96.5" x="229.5"/>
 <rect id="move" style="stroke:#000;fill:#dad0ac" height="18" width="18" y="96.5" x="248.5"/>
 <rect id="showclick" style="stroke:#000;fill:#dad0ac" height="18" width="18" y="96.5" x="267.5"/>
 <rect id="hide.popup" style="stroke:#000;fill:#dad0ac" height="18" width="18" y="96.5" x="286.5"/>
 <rect id="quit" style="stroke:#000;fill:#dad0ac" height="18" width="18" y="96.5" x="210.5"/>
 <rect id="pause-learning.wordlist" style="stroke:#7f7f7f;fill:#2b2b63" height="14.97" width="11.97" y="4.0149" x="118.5"/>
</svg>
