<?xml version="1.0" encoding="UTF-8" standalone="no"?>
<!-- Created for Onboard -->
<svg id="svg2" xmlns:rdf="http://www.w3.org/1999/02/22-rdf-syntax-ns#" xmlns="http://www.w3.org/2000/svg" height="96" width="240" version="1.0" xmlns:cc="http://creativecommons.org/ns#" xmlns:dc="http://purl.org/dc/elements/1.1/">
 <metadata id="metadata3346">
  <rdf:RDF>
   <cc:Work rdf:about="">
    <dc:format>image/svg+xml</dc:format>
    <dc:type rdf:resource="http://purl.org/dc/dcmitype/StillImage"/>
    <dc:title>Phone-Alpha.svg</dc:title>
    <cc:license rdf:resource="https://www.gnu.org/licenses/gpl.txt"/>
    <dc:creator>
     <cc:Agent>
      <dc:title>Onboard Devel Team at https://launchpad.net/~onboard</dc:title>
     </cc:Agent>
    </dc:creator>
    <dc:rights>
     <cc:Agent>
      <dc:title>GPL-3+ license</dc:title>
     </cc:Agent>
    </dc:rights>
    <dc:publisher>
     <cc:Agent>
      <dc:title>Onboard Devel Team</dc:title>
     </cc:Agent>
    </dc:publisher>
    <dc:source>https://launchpad.net/onboard</dc:source>
    <dc:relation>This file is part of Onboard</dc:relation>
    <dc:contributor>
     <cc:Agent>
      <dc:title>Copyright © 2013, 2016, Francesco Fumanti &lt;francesco.fumanti@gmx.net&gt;
Copyright © 2011-2014, marmuta &lt;marmvta@gmail.com&gt;</dc:title>
     </cc:Agent>
    </dc:contributor>
   </cc:Work>
  </rdf:RDF>
 </metadata>
 <rect id="AD09" style="stroke:#000;stroke-width:1.2632;fill:#e5d8b2" height="22.737" width="22.736" y=".63081" x="192.63"/>
 <rect id="AD03" style="stroke:#000;stroke-width:1.2632;fill:#e5d8b2" height="22.737" width="22.736" y=".63081" x="48.632"/>
 <rect id="AD02" style="stroke:#000;stroke-width:1.2632;fill:#e5d8b2" height="22.737" width="22.736" y=".63081" x="24.632"/>
 <rect id="AD01" style="stroke:#000;stroke-width:1.2632;fill:#e5d8b2" height="22.737" width="22.736" y=".63081" x=".63158"/>
 <rect id="AD07" style="stroke:#000;stroke-width:1.2632;fill:#e5d8b2" height="22.737" width="22.736" y=".63081" x="144.63"/>
 <rect id="AD06" style="stroke:#000;stroke-width:1.2632;fill:#e5d8b2" height="22.737" width="22.736" y=".63081" x="120.63"/>
 <rect id="AD05" style="stroke:#000;stroke-width:1.2632;fill:#e5d8b2" height="22.737" width="22.736" y=".63081" x="96.632"/>
 <rect id="AD04" style="stroke:#000;stroke-width:1.2632;fill:#e5d8b2" height="22.737" width="22.736" y=".63081" x="72.632"/>
 <rect id="AD10" style="stroke:#000;stroke-width:1.2632;fill:#e5d8b2" height="22.737" width="22.736" y=".63081" x="216.63"/>
 <rect id="AD08" style="stroke:#000;stroke-width:1.2632;fill:#e5d8b2" height="22.737" width="22.736" y=".63081" x="168.63"/>
 <rect id="AC04" style="stroke:#000;stroke-width:1.2632;fill:#e5d8b2" height="22.737" width="22.736" y="24.631" x="72.632"/>
 <rect id="AC05" style="stroke:#000;stroke-width:1.2632;fill:#e5d8b2" height="22.737" width="22.736" y="24.631" x="96.632"/>
 <rect id="AC06" style="stroke:#000;stroke-width:1.2632;fill:#e5d8b2" height="22.737" width="22.736" y="24.631" x="120.63"/>
 <rect id="AC07" style="stroke:#000;stroke-width:1.2632;fill:#e5d8b2" height="22.737" width="22.736" y="24.631" x="144.63"/>
 <rect id="AC01" style="stroke:#000;stroke-width:1.2632;fill:#e5d8b2" height="22.737" width="22.736" y="24.631" x=".63158"/>
 <rect id="AC02" style="stroke:#000;stroke-width:1.2632;fill:#e5d8b2" height="22.737" width="22.736" y="24.631" x="24.632"/>
 <rect id="AC03" style="stroke:#000;stroke-width:1.2632;fill:#e5d8b2" height="22.737" width="22.736" y="24.631" x="48.632"/>
 <rect id="AC08" style="stroke:#000;stroke-width:1.2632;fill:#e5d8b2" height="22.737" width="22.736" y="24.631" x="168.63"/>
 <rect id="AC09" style="stroke:#000;stroke-width:1.2632;fill:#e5d8b2" height="22.737" width="22.736" y="24.631" x="192.63"/>
 <rect id="AB01" style="stroke:#000;stroke-width:1.2632;fill:#e5d8b2" height="22.737" width="22.736" y="48.631" x="36.632"/>
 <rect id="AB05" style="stroke:#000;stroke-width:1.2632;fill:#e5d8b2" height="22.737" width="22.736" y="48.631" x="132.63"/>
 <rect id="AB04" style="stroke:#000;stroke-width:1.2632;fill:#e5d8b2" height="22.737" width="22.736" y="48.631" x="108.63"/>
 <rect id="AB06" style="stroke:#000;stroke-width:1.2632;fill:#e5d8b2" height="22.737" width="22.736" y="48.631" x="156.63"/>
 <rect id="AB03" style="stroke:#000;stroke-width:1.2632;fill:#e5d8b2" height="22.737" width="22.736" y="48.631" x="84.632"/>
 <rect id="AB02" style="stroke:#000;stroke-width:1.2632;fill:#e5d8b2" height="22.737" width="22.736" y="48.631" x="60.632"/>
 <rect id="AB07" style="stroke:#000;stroke-width:1.2632;fill:#e5d8b2" height="22.737" width="22.736" y="48.631" x="180.63"/>
 <rect id="SPCE" style="stroke:#000;stroke-width:1.1382;fill:#e5d8b2" height="22.862" width="100.86" y="72.569" x="66.569"/>
 <rect id="BKSP" style="stroke:#000;stroke-width:1.5453;fill:#e5d8b2" height="22.455" width="34.455" y="48.773" x="204.77"/>
 <rect id="LFSH" style="stroke:#000;stroke-width:1.5453;fill:#e5d8b2" height="22.455" width="34.455" y="48.773" x=".77264"/>
 <rect id="RTRN" style="stroke:#000;stroke-width:1.7804;fill:#e5d8b2" height="22.22" width="46.22" y="72.89" x="192.89"/>
 <rect id="layer1" style="stroke:#000;stroke-width:1.5161;fill:#f2e5d8" height="22.484" width="40.484" y="72.758" x=".75805"/>
 <rect id="AA01" style="stroke:#000;stroke-width:1.2632;fill:#e5d8b2" height="22.737" width="22.737" y="72.632" x="42.632"/>
 <rect id="AC10" style="stroke:#000;stroke-width:1.2632;fill:#e5d8b2" height="22.737" width="22.736" y="24.631" x="216.63"/>
 <rect id="wordlist" style="stroke:#7f7f7f;stroke-width:1.0204;fill:#151530" height="17.971" width="238.99" y="-18.485" x=".50556"/>
 <rect id="correction" style="stroke-width:1.1672;color:#000000;stroke:#7f7f7f;fill:#2b2b63" height="17.828" width="46.809" y="-18.414" x="30.586"/>
 <rect id="expand-corrections" style="stroke:#7f7f7f;stroke-width:1.599;fill:#2b2b63" height="17.407" width="18.361" y="-18.204" x="88.816"/>
 <rect id="prediction" style="stroke-width:1.1908;color:#000000;stroke:#7f7f7f;fill:#2b2b63" height="17.805" width="48.785" y="-18.402" x="118.61"/>
 <rect id="AA02" style="stroke:#000;stroke-width:1.2632;fill:#e5d8b2" height="22.737" width="22.737" y="72.631" x="168.63"/>
 <rect id="settings" style="stroke:#000;stroke-width:1.2632;fill:#e5d8b2" height="22.737" width="22.736" y="72.632" x="250.63"/>
 <rect id="move" style="stroke:#000;stroke-width:1.2632;fill:#e5d8b2" height="22.737" width="22.736" y="72.632" x="274.63"/>
 <rect id="hide.popup" style="stroke:#000;stroke-width:1.2632;fill:#e5d8b2" height="22.737" width="22.736" y="72.632" x="298.63"/>
 <rect id="hide.wordlist" style="stroke:#7f7f7f;stroke-width:1.599;fill:#2b2b63" height="17.407" width="18.361" y="-18.204" x="220.84"/>
 <rect id="language.wordlist" style="stroke:#7f7f7f;stroke-width:1.599;fill:#2b2b63" height="17.407" width="18.361" y="-18.204" x="198.8"/>
 <rect id="pause-learning.wordlist" style="stroke:#7f7f7f;stroke-width:1.599;fill:#2b2b63" height="17.407" width="18.361" y="-18.204" x="176.8"/>
</svg>
