<?xml version="1.0" encoding="UTF-8" standalone="no"?>
<!-- Created with Inkscape (http://www.inkscape.org/) -->
<svg id="scan-base" xmlns:rdf="http://www.w3.org/1999/02/22-rdf-syntax-ns#" xmlns="http://www.w3.org/2000/svg" height="100" width="179" version="1.0" xmlns:cc="http://creativecommons.org/ns#" xmlns:dc="http://purl.org/dc/elements/1.1/">
 <metadata id="metadata7">
  <rdf:RDF>
   <cc:Work rdf:about="">
    <dc:format>image/svg+xml</dc:format>
    <dc:type rdf:resource="http://purl.org/dc/dcmitype/StillImage"/>
   </cc:Work>
  </rdf:RDF>
 </metadata>
 <g id="layer1">
  <rect id="q" style="stroke:#000;stroke-width:.16993;fill:#a97679" height="18.217" width="18.217" y="40.902" x="100.07"/>
  <rect id="w" style="stroke:#000;stroke-width:.16993;fill:#a97679" height="18.217" width="18.217" y="21.102" x="60.715"/>
  <rect id="e" style="stroke:#000;stroke-width:.16993;fill:#a97679" height="18.217" width="18.217" y="1.4312" x="1.5177"/>
  <rect id="r" style="stroke:#000;stroke-width:.16993;fill:#a97679" height="18.217" width="18.217" y="40.902" x="1.5177"/>
  <rect id="t" style="stroke:#000;stroke-width:.16993;fill:#a97679" height="18.217" width="18.217" y="1.4312" x="21.304"/>
  <rect id="y" style="stroke:#000;stroke-width:.16993;fill:#a97679" height="18.217" width="18.217" y="21.102" x="120.11"/>
  <rect id="u" style="stroke:#000;stroke-width:.16993;fill:#a97679" height="18.217" width="18.217" y="1.4312" x="80.328"/>
  <rect id="i" style="stroke:#000;stroke-width:.16993;fill:#a97679" height="18.217" width="18.217" y="21.102" x="1.5177"/>
  <rect id="o" style="stroke:#000;stroke-width:.16993;fill:#a97679" height="18.217" width="18.217" y="1.4312" x="60.715"/>
  <rect id="p" style="stroke:#000;stroke-width:.16993;fill:#a97679" height="18.217" width="18.217" y="60.877" x="60.715"/>
  <rect id="a" style="stroke:#000;stroke-width:.16993;fill:#a97679" height="18.217" width="18.217" y="1.4312" x="41.1"/>
  <rect id="s" style="stroke:#000;stroke-width:.16993;fill:#a97679" height="18.217" width="18.217" y="21.102" x="41.1"/>
  <rect id="d" style="stroke:#000;stroke-width:.16993;fill:#a97679" height="18.217" width="18.217" y="40.902" x="21.304"/>
  <rect id="f" style="stroke:#000;stroke-width:.16993;fill:#a97679" height="18.217" width="18.217" y="21.102" x="80.328"/>
  <rect id="g" style="stroke:#000;stroke-width:.16993;fill:#a97679" height="18.217" width="18.217" y="60.877" x="41.1"/>
  <rect id="h" style="stroke:#000;stroke-width:.16993;fill:#a97679" height="18.217" width="18.217" y="21.102" x="100.07"/>
  <rect id="j" style="stroke:#000;stroke-width:.16993;fill:#a97679" height="18.217" width="18.217" y="60.877" x="1.5177"/>
  <rect id="k" style="stroke:#000;stroke-width:.16993;fill:#a97679" height="18.217" width="18.217" y="60.877" x="21.304"/>
  <rect id="l" style="stroke:#000;stroke-width:.16993;fill:#a97679" height="18.217" width="18.217" y="40.902" x="41.1"/>
  <rect id="z" style="stroke:#000;stroke-width:.16993;fill:#a97679" height="18.217" width="18.217" y="40.902" x="120.11"/>
  <rect id="x" style="stroke:#000;stroke-width:.16993;fill:#a97679" height="18.217" width="18.217" y="40.902" x="80.328"/>
  <rect id="c" style="stroke:#000;stroke-width:.16993;fill:#a97679" height="18.217" width="18.217" y="40.902" x="60.715"/>
  <rect id="v" style="stroke:#000;stroke-width:.16993;fill:#a97679" height="18.217" width="18.217" y="60.877" x="80.328"/>
  <rect id="b" style="stroke:#000;stroke-width:.16993;fill:#a97679" height="18.217" width="18.217" y="1.4312" x="120.11"/>
  <rect id="n" style="stroke:#000;stroke-width:.16993;fill:#a97679" height="18.217" width="18.217" y="21.102" x="21.304"/>
  <rect id="m" style="stroke:#000;stroke-width:.16993;fill:#a97679" height="18.217" width="18.217" y="1.4312" x="100.07"/>
  <rect id="LFSH" style="stroke:#000;stroke-width:.17059;fill:#b7ad8b" height="18.217" width="18.359" y="80.427" x="1.5647"/>
  <rect id="SPCE" style="stroke:#000;stroke-width:.30269;fill:#b7ad8b" height="18.217" width="57.803" y="80.427" x="21.379"/>
  <rect id="RTRN" style="stroke:#000;stroke-width:.24608;fill:#b7ad8b" height="18.217" width="38.203" y="80.427" x="100.07"/>
  <rect id="1" style="stroke:#000;stroke-width:.16993;fill:#dad0ac" height="18.217" width="18.217" y="1.4312" x="139.97"/>
  <rect id="2" style="stroke:#000;stroke-width:.16993;fill:#dad0ac" height="18.217" width="18.217" y="21.102" x="139.97"/>
  <rect id="3" style="stroke:#000;stroke-width:.16993;fill:#dad0ac" height="18.217" width="18.217" y="40.902" x="139.97"/>
  <rect id="4" style="stroke:#000;stroke-width:.16993;fill:#dad0ac" height="18.217" width="18.217" y="60.877" x="139.97"/>
  <rect id="5" style="stroke:#000;stroke-width:.16993;fill:#dad0ac" height="18.217" width="18.217" y="80.427" x="139.97"/>
  <rect id="6" style="stroke:#000;stroke-width:.16993;fill:#dad0ac" height="18.217" width="18.217" y="1.4312" x="159.44"/>
  <rect id="7" style="stroke:#000;stroke-width:.16993;fill:#dad0ac" height="18.217" width="18.217" y="21.102" x="159.44"/>
  <rect id="8" style="stroke:#000;stroke-width:.16993;fill:#dad0ac" height="18.217" width="18.217" y="40.902" x="159.44"/>
  <rect id="9" style="stroke:#000;stroke-width:.16993;fill:#dad0ac" height="18.217" width="18.217" y="60.877" x="159.44"/>
  <rect id="0" style="stroke:#000;stroke-width:.16993;fill:#dad0ac" height="18.217" width="18.217" y="80.427" x="159.44"/>
  <rect id="BKSP" style="stroke:#000;stroke-width:.16992;fill:#b7ad8b" height="18.217" width="18.215" y="80.427" x="80.396"/>
  <rect id="full_stop" style="stroke:#000;stroke-width:.16993;fill:#a97679" height="18.217" width="18.217" y="60.877" x="100.07"/>
  <rect id="comma" style="stroke:#000;stroke-width:.16993;fill:#a97679" height="18.217" width="18.217" y="60.877" x="120.11"/>
 </g>
</svg>
