<?xml version="1.0" encoding="UTF-8" standalone="no"?>
<!-- Created for Onboard -->
<svg id="svg2" xmlns:rdf="http://www.w3.org/1999/02/22-rdf-syntax-ns#" xmlns="http://www.w3.org/2000/svg" height="96" width="318" version="1.0" xmlns:cc="http://creativecommons.org/ns#" xmlns:dc="http://purl.org/dc/elements/1.1/">
 <metadata id="metadata3346">
  <rdf:RDF>
   <cc:Work rdf:about="">
    <dc:format>image/svg+xml</dc:format>
    <dc:type rdf:resource="http://purl.org/dc/dcmitype/StillImage"/>
    <dc:title>Small-Alpha.svg</dc:title>
    <cc:license rdf:resource="https://www.gnu.org/licenses/gpl.txt"/>
    <dc:creator>
     <cc:Agent>
      <dc:title>Onboard Devel Team at https://launchpad.net/~onboard</dc:title>
     </cc:Agent>
    </dc:creator>
    <dc:rights>
     <cc:Agent>
      <dc:title>GPL-3+ license</dc:title>
     </cc:Agent>
    </dc:rights>
    <dc:publisher>
     <cc:Agent>
      <dc:title>Onboard Devel Team</dc:title>
     </cc:Agent>
    </dc:publisher>
    <dc:source>https://launchpad.net/onboard</dc:source>
    <dc:relation>This file is part of Onboard</dc:relation>
    <dc:contributor>
     <cc:Agent>
      <dc:title>Copyright © 2013, 2016, Francesco Fumanti &lt;francesco.fumanti@gmx.net&gt;
Copyright © 2011-2014, marmuta &lt;marmvta@gmail.com&gt;</dc:title>
     </cc:Agent>
    </dc:contributor>
   </cc:Work>
  </rdf:RDF>
 </metadata>
 <g id="layer2">
  <rect id="AD09-cyr" style="stroke:#000;stroke-width:1.2067;fill:#e5c0b2" height="22.755" width="20.733" y=".60259" x="199.69"/>
  <rect id="AD03-cyr" style="stroke:#000;stroke-width:1.2067;fill:#e5c0b2" height="22.755" width="20.733" y=".60259" x="68.375"/>
  <rect id="AD02-cyr" style="stroke:#000;stroke-width:1.2067;fill:#e5c0b2" height="22.755" width="20.733" y=".60259" x="46.489"/>
  <rect id="AD01-cyr" style="stroke:#000;stroke-width:1.2067;fill:#e5c0b2" height="22.755" width="20.733" y=".60259" x="24.604"/>
  <rect id="AD07-cyr" style="stroke:#000;stroke-width:1.2067;fill:#e5c0b2" height="22.755" width="20.733" y=".60259" x="155.92"/>
  <rect id="AD06-cyr" style="stroke:#000;stroke-width:1.2067;fill:#e5c0b2" height="22.755" width="20.733" y=".60259" x="134.03"/>
  <rect id="AD05-cyr" style="stroke:#000;stroke-width:1.2067;fill:#e5c0b2" height="22.755" width="20.733" y=".60259" x="112.15"/>
  <rect id="AD04-cyr" style="stroke:#000;stroke-width:1.2067;fill:#e5c0b2" height="22.755" width="20.733" y=".60259" x="90.26"/>
  <rect id="AD10-cyr" style="stroke:#000;stroke-width:1.2067;fill:#e5c0b2" height="22.755" width="20.733" y=".60259" x="221.57"/>
  <rect id="AD08-cyr" style="stroke:#000;stroke-width:1.2067;fill:#e5c0b2" height="22.755" width="20.733" y=".60259" x="177.8"/>
  <rect id="AC04-cyr" style="stroke:#000;stroke-width:1.2067;fill:#e5c0b2" height="22.755" width="20.733" y="24.622" x="95.731"/>
  <rect id="AC05-cyr" style="stroke:#000;stroke-width:1.2067;fill:#e5c0b2" height="22.755" width="20.733" y="24.622" x="117.62"/>
  <rect id="AC06-cyr" style="stroke:#000;stroke-width:1.2067;fill:#e5c0b2" height="22.755" width="20.733" y="24.622" x="139.5"/>
  <rect id="AC07-cyr" style="stroke:#000;stroke-width:1.2067;fill:#e5c0b2" height="22.755" width="20.733" y="24.622" x="161.39"/>
  <rect id="AC01-cyr" style="stroke:#000;stroke-width:1.2067;fill:#e5c0b2" height="22.755" width="20.733" y="24.622" x="30.075"/>
  <rect id="AC02-cyr" style="stroke:#000;stroke-width:1.2067;fill:#e5c0b2" height="22.755" width="20.733" y="24.622" x="51.96"/>
  <rect id="AC03-cyr" style="stroke:#000;stroke-width:1.2067;fill:#e5c0b2" height="22.755" width="20.733" y="24.622" x="73.846"/>
  <rect id="AC08-cyr" style="stroke:#000;stroke-width:1.2067;fill:#e5c0b2" height="22.755" width="20.733" y="24.622" x="183.27"/>
  <rect id="AC09-cyr" style="stroke:#000;stroke-width:1.2067;fill:#e5c0b2" height="22.755" width="20.733" y="24.622" x="205.16"/>
  <rect id="AB01-cyr" style="stroke:#000;stroke-width:1.2067;fill:#e5c0b2" height="22.755" width="20.733" y="48.642" x="38.282"/>
  <rect id="AB05-cyr" style="stroke:#000;stroke-width:1.2067;fill:#e5c0b2" height="22.755" width="20.733" y="48.642" x="125.82"/>
  <rect id="AB04-cyr" style="stroke:#000;stroke-width:1.2067;fill:#e5c0b2" height="22.755" width="20.733" y="48.642" x="103.94"/>
  <rect id="AB06-cyr" style="stroke:#000;stroke-width:1.2067;fill:#e5c0b2" height="22.755" width="20.733" y="48.642" x="147.71"/>
  <rect id="AB03-cyr" style="stroke:#000;stroke-width:1.2067;fill:#e5c0b2" height="22.755" width="20.733" y="48.642" x="82.053"/>
  <rect id="AB02-cyr" style="stroke:#000;stroke-width:1.2067;fill:#e5c0b2" height="22.755" width="20.733" y="48.642" x="60.167"/>
  <rect id="AB07-cyr" style="stroke:#000;stroke-width:1.2067;fill:#e5c0b2" height="22.755" width="20.733" y="48.642" x="169.59"/>
  <rect id="AB09-cyr" style="stroke:#000;stroke-width:1.2067;fill:#e5c0b2" height="22.755" width="20.734" y="48.642" x="213.37"/>
  <rect id="AC10-cyr" style="stroke:#000;stroke-width:1.2067;fill:#e5c0b2" height="22.755" width="20.733" y="24.622" x="227.04"/>
  <rect id="AB08-cyr" style="stroke:#000;stroke-width:1.2067;fill:#e5c0b2" height="22.755" width="20.733" y="48.642" x="191.48"/>
  <rect id="AD11-cyr" style="stroke:#000;stroke-width:1.2067;fill:#e5c0b2" height="22.755" width="20.733" y=".60259" x="243.46"/>
  <rect id="AB10-cyr" style="stroke:#000;stroke-width:1.2067;fill:#e5c0b2" height="22.755" width="20.734" y="48.642" x="235.25"/>
  <rect id="AC11-cyr" style="stroke:#000;stroke-width:1.2067;fill:#e5c0b2" height="22.755" width="20.733" y="24.622" x="248.93"/>
 </g>
 <g id="layer3">
  <rect id="AD09" style="stroke:#000;stroke-width:1.2632;fill:#b2e1e5;fill-opacity:.87805" height="22.737" width="22.736" y=".63081" x="216.63"/>
  <rect id="AD03" style="stroke:#000;stroke-width:1.2632;fill:#b2e1e5;fill-opacity:.87805" height="22.737" width="22.736" y=".63081" x="72.632"/>
  <rect id="AD02" style="stroke:#000;stroke-width:1.2632;fill:#b2e1e5;fill-opacity:.87805" height="22.737" width="22.736" y=".63081" x="48.632"/>
  <rect id="AD01" style="stroke:#000;stroke-width:1.2632;fill:#b2e1e5;fill-opacity:.87805" height="22.737" width="22.736" y=".63081" x="24.632"/>
  <rect id="AD07" style="stroke:#000;stroke-width:1.2632;fill:#b2e1e5;fill-opacity:.87805" height="22.737" width="22.736" y=".63081" x="168.63"/>
  <rect id="AD06" style="stroke:#000;stroke-width:1.2632;fill:#b2e1e5;fill-opacity:.87805" height="22.737" width="22.736" y=".63081" x="144.63"/>
  <rect id="AD05" style="stroke:#000;stroke-width:1.2632;fill:#b2e1e5;fill-opacity:.87805" height="22.737" width="22.736" y=".63081" x="120.63"/>
  <rect id="AD04" style="stroke:#000;stroke-width:1.2632;fill:#b2e1e5;fill-opacity:.87805" height="22.737" width="22.736" y=".63081" x="96.632"/>
  <rect id="AD10" style="stroke:#000;stroke-width:1.2632;fill:#b2e1e5;fill-opacity:.87805" height="22.737" width="22.736" y=".63081" x="240.63"/>
  <rect id="AD08" style="stroke:#000;stroke-width:1.2632;fill:#b2e1e5;fill-opacity:.87805" height="22.737" width="22.736" y=".63081" x="192.63"/>
  <rect id="AC04" style="stroke:#000;stroke-width:1.2632;fill:#b2e1e5;fill-opacity:.87805" height="22.737" width="22.736" y="24.631" x="102.63"/>
  <rect id="AC05" style="stroke:#000;stroke-width:1.2632;fill:#b2e1e5;fill-opacity:.87805" height="22.737" width="22.736" y="24.631" x="126.63"/>
  <rect id="AC06" style="stroke:#000;stroke-width:1.2632;fill:#b2e1e5;fill-opacity:.87805" height="22.737" width="22.736" y="24.631" x="150.63"/>
  <rect id="AC07" style="stroke:#000;stroke-width:1.2632;fill:#b2e1e5;fill-opacity:.87805" height="22.737" width="22.736" y="24.631" x="174.63"/>
  <rect id="AC01" style="stroke:#000;stroke-width:1.2632;fill:#b2e1e5;fill-opacity:.87805" height="22.737" width="22.736" y="24.631" x="30.632"/>
  <rect id="AC02" style="stroke:#000;stroke-width:1.2632;fill:#b2e1e5;fill-opacity:.87805" height="22.737" width="22.736" y="24.631" x="54.632"/>
  <rect id="AC03" style="stroke:#000;stroke-width:1.2632;fill:#b2e1e5;fill-opacity:.87805" height="22.737" width="22.736" y="24.631" x="78.632"/>
  <rect id="AC08" style="stroke:#000;stroke-width:1.2632;fill:#b2e1e5;fill-opacity:.87805" height="22.737" width="22.736" y="24.631" x="198.63"/>
  <rect id="AC09" style="stroke:#000;stroke-width:1.2632;fill:#b2e1e5;fill-opacity:.87805" height="22.737" width="22.736" y="24.631" x="222.63"/>
  <rect id="AB01" style="stroke:#000;stroke-width:1.2631;fill:#b2e1e5;fill-opacity:.87805" height="22.736" width="22.736" y="48.632" x="39.632"/>
  <rect id="AB05" style="stroke:#000;stroke-width:1.2631;fill:#b2e1e5;fill-opacity:.87805" height="22.736" width="22.736" y="48.632" x="135.63"/>
  <rect id="AB04" style="stroke:#000;stroke-width:1.2631;fill:#b2e1e5;fill-opacity:.87805" height="22.736" width="22.736" y="48.632" x="111.63"/>
  <rect id="AB06" style="stroke:#000;stroke-width:1.2631;fill:#b2e1e5;fill-opacity:.87805" height="22.736" width="22.736" y="48.632" x="159.63"/>
  <rect id="AB03" style="stroke:#000;stroke-width:1.2631;fill:#b2e1e5;fill-opacity:.87805" height="22.736" width="22.736" y="48.632" x="87.632"/>
  <rect id="AB02" style="stroke:#000;stroke-width:1.2631;fill:#b2e1e5;fill-opacity:.87805" height="22.736" width="22.736" y="48.632" x="63.632"/>
  <rect id="AB07" style="stroke:#000;stroke-width:1.2631;fill:#b2e1e5;fill-opacity:.87805" height="22.736" width="22.736" y="48.632" x="183.63"/>
  <rect id="AB09" style="stroke:#000;stroke-width:1.2631;fill:#b2e1e5;fill-opacity:.87805" height="22.736" width="22.737" y="48.632" x="231.63"/>
  <rect id="AC10" style="stroke:#000;stroke-width:1.2632;fill:#b2e1e5;fill-opacity:.87805" height="22.737" width="22.736" y="24.631" x="246.63"/>
  <rect id="AB08" style="stroke:#000;stroke-width:1.2631;fill:#b2e1e5;fill-opacity:.87805" height="22.736" width="22.736" y="48.632" x="207.63"/>
 </g>
 <g id="layer4">
  <rect id="LFSH" style="stroke:#000;stroke-width:1.3754;fill:#f2e5d8" height="22.625" width="37.625" y="48.687" x=".68768"/>
  <rect id="ESC" style="stroke:#000;stroke-width:1.0235;fill:#d8cca5" height="22.977" width="22.977" y=".51096" x=".51211"/>
  <rect id="BKSP" style="stroke:#000;stroke-width:1.3761;fill:#d8cca5" height="22.624" width="28.624" y=".68765" x="264.69"/>
  <rect id="LCTL" style="stroke:#000;stroke-width:1.0414;fill:#f2e5d8" height="22.959" width="22.959" y="72.521" x=".52071"/>
  <rect id="LWIN" style="stroke:#000;stroke-width:1.3755;fill:#f2e5d8" height="22.624" width="22.624" y="72.688" x="24.688"/>
  <rect id="LALT" style="stroke:#000;stroke-width:1.3755;fill:#f2e5d8" height="22.624" width="22.624" y="72.688" x="48.688"/>
  <rect id="middleclick" style="stroke:#000;stroke-width:1.0042;fill:#d8cca5" height="22.996" width="22.996" y=".50171" x="294.5"/>
  <rect id="secondaryclick" style="stroke:#000;stroke-width:1.0042;fill:#d8cca5" height="22.996" width="22.996" y="24.502" x="294.5"/>
  <rect id="doubleclick" style="stroke:#000;stroke-width:1.0042;fill:#d8cca5" height="22.996" width="22.996" y="48.502" x="294.5"/>
  <rect id="RTRN" style="stroke:#000;stroke-width:1.6076;fill:#e5d8b2" height="22.392" width="37.392" y="48.804" x="255.8"/>
  <rect id="LEFT" style="stroke:#000;stroke-width:1.2631;fill:#e5d8b2" height="22.736" width="22.737" y="72.632" x="198.63"/>
  <rect id="RGHT" style="stroke:#000;stroke-width:1.2631;fill:#e5d8b2" height="22.736" width="22.737" y="72.632" x="222.63"/>
  <rect id="layer1" style="stroke:#000;stroke-width:1.1483;fill:#f2e5d8" height="22.852" width="22.852" y="72.574" x="72.574"/>
  <rect id="dragclick" style="stroke:#000;stroke-width:1.0042;fill:#d8cca5" height="22.996" width="22.996" y="72.502" x="294.5"/>
  <rect id="UP" style="stroke:#000;stroke-width:1.2631;fill:#e5d8b2" height="22.736" width="22.737" y="72.632" x="246.63"/>
  <rect id="DOWN" style="stroke:#000;stroke-width:1.2631;fill:#e5d8b2" height="22.736" width="22.737" y="72.632" x="270.63"/>
  <rect id="DELE" style="stroke:#000;stroke-width:.84224;fill:#d8cca5" height="23.158" width="23.158" y="24.421" x="270.42"/>
  <rect id="SPCE" style="stroke:#000;stroke-width:1.1382;fill:#e5d8b2" height="22.862" width="100.86" y="72.569" x="96.569"/>
  <rect id="wordlist" style="stroke:#7f7f7f;stroke-width:1.1593;fill:#151530" height="17.496" width="316.84" y="-18.064" x=".57904"/>
  <rect id="prediction" style="stroke-width:1.0572;color:#000000;stroke:#7f7f7f;fill:#2b2b63" height="17.595" width="38.91" y="-18.113" x="100.54"/>
  <rect id="correction" style="stroke-width:1.0572;color:#000000;stroke:#7f7f7f;fill:#2b2b63" height="17.595" width="38.91" y="-18.113" x="30.53"/>
  <rect id="expand-corrections" style="stroke:#7f7f7f;stroke-width:1.5796;fill:#2b2b63" height="17.434" width="17.889" y="-18.033" x="75.807"/>
  <rect id="TAB" style="stroke:#000;stroke-width:1.2835;fill:#f2e5d8" height="22.717" width="28.717" y="24.641" x=".64173"/>
  <rect id="settings" style="stroke:#000;stroke-width:1.2632;fill:#e5d8b2" height="22.737" width="22.736" y="72.631" x="328.63"/>
  <rect id="move" style="stroke:#000;stroke-width:1.2632;fill:#e5d8b2" height="22.737" width="22.736" y="72.631" x="352.63"/>
  <rect id="hide.popup" style="stroke:#000;stroke-width:1.2632;fill:#e5d8b2" height="22.737" width="22.736" y="72.631" x="400.63"/>
  <rect id="hide.wordlist" style="stroke:#7f7f7f;stroke-width:1.1478;fill:#2b2b63" height="17.507" width="18.813" y="-18.069" x="298.61"/>
  <rect id="showclick" style="stroke:#000;stroke-width:1.2632;fill:#e5d8b2" height="22.737" width="22.736" y="72.631" x="376.63"/>
  <rect id="language.wordlist" style="stroke:#7f7f7f;stroke-width:1.1478;fill:#2b2b63" height="17.507" width="18.813" y="-18.069" x="277.57"/>
  <rect id="pause-learning.wordlist" style="stroke:#7f7f7f;stroke-width:1.1478;fill:#2b2b63" height="17.507" width="18.813" y="-18.069" x="256.57"/>
 </g>
</svg>
