<?xml version="1.0" encoding="UTF-8" standalone="no"?>
<!-- Created for Onboard -->
<svg id="svg2" xmlns:rdf="http://www.w3.org/1999/02/22-rdf-syntax-ns#" xmlns="http://www.w3.org/2000/svg" height="96" width="318" version="1" xmlns:cc="http://creativecommons.org/ns#" xmlns:dc="http://purl.org/dc/elements/1.1/">
 <metadata id="metadata43">
  <rdf:RDF>
   <cc:Work rdf:about="">
    <dc:format>image/svg+xml</dc:format>
    <dc:type rdf:resource="http://purl.org/dc/dcmitype/StillImage"/>
    <dc:title>Small-Numbers.svg</dc:title>
    <cc:license rdf:resource="https://www.gnu.org/licenses/gpl.txt"/>
    <dc:creator>
     <cc:Agent>
      <dc:title>Onboard Devel Team at https://launchpad.net/~onboard</dc:title>
     </cc:Agent>
    </dc:creator>
    <dc:rights>
     <cc:Agent>
      <dc:title>GPL-3+ license</dc:title>
     </cc:Agent>
    </dc:rights>
    <dc:publisher>
     <cc:Agent>
      <dc:title>Onboard Devel Team</dc:title>
     </cc:Agent>
    </dc:publisher>
    <dc:source>https://launchpad.net/onboard</dc:source>
    <dc:relation>This file is part of Onboard</dc:relation>
    <dc:contributor>
     <cc:Agent>
      <dc:title>Copyright © 2013, 2016, Francesco Fumanti &lt;francesco.fumanti@gmx.net&gt;
Copyright © 2011-2014, marmuta &lt;marmvta@gmail.com&gt;</dc:title>
     </cc:Agent>
    </dc:contributor>
   </cc:Work>
  </rdf:RDF>
 </metadata>
 <rect id="ESC" style="stroke:#000;stroke-width:1.0235;fill:#d8cca5" height="22.977" width="22.977" y=".51134" x=".51173"/>
 <rect id="LEFT" style="stroke:#000;stroke-width:1.2632;fill:#e5d8b2" height="22.737" width="22.737" y="72.632" x="198.63"/>
 <rect id="UP" style="stroke:#000;stroke-width:1.2632;fill:#e5d8b2" height="22.737" width="22.737" y="72.632" x="246.63"/>
 <rect id="DOWN" style="stroke:#000;stroke-width:1.2632;fill:#e5d8b2" height="22.737" width="22.737" y="72.632" x="270.63"/>
 <rect id="BB08" style="stroke:#000;stroke-width:1.2631;fill:#e5d8b2" height="22.737" width="22.736" y="48.632" x="207.63"/>
 <rect id="BB09" style="stroke:#000;stroke-width:1.2632;fill:#e5d8b2" height="22.737" width="22.737" y="48.632" x="231.63"/>
 <rect id="RGHT" style="stroke:#000;stroke-width:1.2632;fill:#e5d8b2" height="22.737" width="22.737" y="72.632" x="222.63"/>
 <rect id="layer5" style="stroke:#000;stroke-width:1.3029;fill:#d8cca5" height="22.697" width="37.697" y="48.651" x=".65147"/>
 <rect id="layer2" style="stroke:#000;stroke-width:1.0414;fill:#f2e5d8" height="22.959" width="22.959" y="72.521" x="48.521"/>
 <rect id="layer3" style="stroke:#000;stroke-width:1.3756;fill:#f2e5d8" height="22.624" width="22.624" y="72.688" x="24.688"/>
 <rect id="layer4" style="stroke:#000;stroke-width:1.3756;fill:#f2e5d8" height="22.624" width="22.624" y="72.688" x=".68778"/>
 <rect id="layer1" style="stroke:#000;stroke-width:1.1483;fill:#f2e5d8" height="22.852" width="22.852" y="72.574" x="72.574"/>
 <rect id="BKSP" style="stroke:#000;stroke-width:1.3761;fill:#d8cca5" height="22.624" width="28.624" y=".68764" x="264.69"/>
 <rect id="RTRN" style="stroke:#000;stroke-width:1.6076;fill:#e5d8b2" height="22.393" width="37.392" y="48.803" x="255.8"/>
 <rect id="DELE" style="stroke:#000;stroke-width:.84224;fill:#d8cca5" height="23.158" width="23.158" y="24.421" x="270.42"/>
 <rect id="BB01" style="stroke:#000;stroke-width:1.2632;fill:#e5d8b2" height="22.737" width="22.736" y="48.631" x="39.632"/>
 <rect id="BB05" style="stroke:#000;stroke-width:1.2632;fill:#e5d8b2" height="22.737" width="22.736" y="48.631" x="135.63"/>
 <rect id="BB04" style="stroke:#000;stroke-width:1.2632;fill:#e5d8b2" height="22.737" width="22.736" y="48.631" x="111.63"/>
 <rect id="BB06" style="stroke:#000;stroke-width:1.2632;fill:#e5d8b2" height="22.737" width="22.736" y="48.631" x="159.63"/>
 <rect id="BB03" style="stroke:#000;stroke-width:1.2632;fill:#e5d8b2" height="22.737" width="22.736" y="48.631" x="87.632"/>
 <rect id="BB02" style="stroke:#000;stroke-width:1.2632;fill:#e5d8b2" height="22.737" width="22.736" y="48.631" x="63.632"/>
 <rect id="BB07" style="stroke:#000;stroke-width:1.2632;fill:#e5d8b2" height="22.737" width="22.736" y="48.631" x="183.63"/>
 <rect id="BC04" style="stroke:#000;stroke-width:1.2632;fill:#e5d8b2" height="22.737" width="22.736" y="24.631" x="102.63"/>
 <rect id="BC05" style="stroke:#000;stroke-width:1.2632;fill:#e5d8b2" height="22.737" width="22.736" y="24.631" x="126.63"/>
 <rect id="BC06" style="stroke:#000;stroke-width:1.2632;fill:#e5d8b2" height="22.737" width="22.736" y="24.631" x="150.63"/>
 <rect id="BC07" style="stroke:#000;stroke-width:1.2632;fill:#e5d8b2" height="22.737" width="22.736" y="24.631" x="174.63"/>
 <rect id="BC01" style="stroke:#000;stroke-width:1.2632;fill:#e5d8b2" height="22.737" width="22.736" y="24.631" x="30.632"/>
 <rect id="BC02" style="stroke:#000;stroke-width:1.2632;fill:#e5d8b2" height="22.737" width="22.736" y="24.631" x="54.632"/>
 <rect id="BC03" style="stroke:#000;stroke-width:1.2632;fill:#e5d8b2" height="22.737" width="22.736" y="24.631" x="78.632"/>
 <rect id="BC08" style="stroke:#000;stroke-width:1.2632;fill:#e5d8b2" height="22.737" width="22.736" y="24.631" x="198.63"/>
 <rect id="BC09" style="stroke:#000;stroke-width:1.2632;fill:#e5d8b2" height="22.737" width="22.736" y="24.631" x="222.63"/>
 <rect id="BC10" style="stroke:#000;stroke-width:1.2632;fill:#e5d8b2" height="22.737" width="22.736" y="24.631" x="246.63"/>
 <rect id="BD09" style="stroke:#000;stroke-width:1.2632;fill:#e5d8b2" height="22.737" width="22.736" y=".63120" x="216.63"/>
 <rect id="BD03" style="stroke:#000;stroke-width:1.2632;fill:#e5d8b2" height="22.737" width="22.736" y=".63120" x="72.632"/>
 <rect id="BD02" style="stroke:#000;stroke-width:1.2632;fill:#e5d8b2" height="22.737" width="22.736" y=".63120" x="48.632"/>
 <rect id="BD01" style="stroke:#000;stroke-width:1.2632;fill:#e5d8b2" height="22.737" width="22.736" y=".63120" x="24.632"/>
 <rect id="BD07" style="stroke:#000;stroke-width:1.2632;fill:#e5d8b2" height="22.737" width="22.736" y=".63120" x="168.63"/>
 <rect id="BD06" style="stroke:#000;stroke-width:1.2632;fill:#e5d8b2" height="22.737" width="22.736" y=".63120" x="144.63"/>
 <rect id="BD05" style="stroke:#000;stroke-width:1.2632;fill:#e5d8b2" height="22.737" width="22.736" y=".63120" x="120.63"/>
 <rect id="BD04" style="stroke:#000;stroke-width:1.2632;fill:#e5d8b2" height="22.737" width="22.736" y=".63120" x="96.632"/>
 <rect id="BD10" style="stroke:#000;stroke-width:1.2632;fill:#e5d8b2" height="22.737" width="22.736" y=".63120" x="240.63"/>
 <rect id="BD08" style="stroke:#000;stroke-width:1.2632;fill:#e5d8b2" height="22.737" width="22.736" y=".63120" x="192.63"/>
 <rect id="SPCE" style="stroke:#000;stroke-width:1.1382;fill:#e5d8b2" height="22.862" width="100.86" y="72.57" x="96.569"/>
 <rect id="TAB" style="stroke:#000;stroke-width:1.2835;fill:#f2e5d8" height="22.717" width="28.717" y="24.641" x=".64174"/>
</svg>
