<?xml version="1.0" encoding="UTF-8" standalone="no"?>
<!-- Created for Onboard -->
<svg id="svg2" xmlns:rdf="http://www.w3.org/1999/02/22-rdf-syntax-ns#" xmlns="http://www.w3.org/2000/svg" height="72.002" width="888" version="1.0" xmlns:cc="http://creativecommons.org/ns#" xmlns:dc="http://purl.org/dc/elements/1.1/">
 <metadata id="metadata3346">
  <rdf:RDF>
   <cc:Work rdf:about="">
    <dc:format>image/svg+xml</dc:format>
    <dc:type rdf:resource="http://purl.org/dc/dcmitype/StillImage"/>
    <dc:title>Whiteboard_wide-Alpha.svg</dc:title>
    <cc:license rdf:resource="https://www.gnu.org/licenses/gpl.txt"/>
    <dc:creator>
     <cc:Agent>
      <dc:title>Johannes Almer</dc:title>
     </cc:Agent>
    </dc:creator>
    <dc:rights>
     <cc:Agent>
      <dc:title>GPL-3+ license</dc:title>
     </cc:Agent>
    </dc:rights>
    <dc:publisher>
     <cc:Agent>
      <dc:title>Onboard Devel Team</dc:title>
     </cc:Agent>
    </dc:publisher>
    <dc:source>https://launchpad.net/onboard</dc:source>
    <dc:relation>This file is part of Onboard</dc:relation>
    <dc:contributor>
     <cc:Agent>
      <dc:title>Copyright © 2016, Francesco Fumanti &lt;francesco.fumanti@gmx.net&gt;
Copyright © 2014 Johannes Almer</dc:title>
     </cc:Agent>
    </dc:contributor>
   </cc:Work>
  </rdf:RDF>
 </metadata>
 <rect id="AD10" style="stroke:#000;stroke-width:1.2632;fill:#e5d8b2" height="22.737" width="22.736" y=".63196" x="840.63"/>
 <rect id="AD03" style="stroke:#000;stroke-width:1.2632;fill:#e5d8b2" height="22.737" width="22.736" y=".63196" x="696.63"/>
 <rect id="AD02" style="stroke:#000;stroke-width:1.2632;fill:#e5d8b2" height="22.737" width="22.736" y=".63196" x="672.63"/>
 <rect id="AD01" style="stroke:#000;stroke-width:1.2632;fill:#e5d8b2" height="22.737" width="22.736" y=".63196" x="648.63"/>
 <rect id="AD07" style="stroke:#000;stroke-width:1.2632;fill:#e5d8b2" height="22.737" width="22.736" y=".63196" x="792.63"/>
 <rect id="AD06" style="stroke:#000;stroke-width:1.2632;fill:#e5d8b2" height="22.737" width="22.736" y=".63196" x="768.63"/>
 <rect id="AD05" style="stroke:#000;stroke-width:1.2632;fill:#e5d8b2" height="22.737" width="22.736" y=".63196" x="744.63"/>
 <rect id="AD04" style="stroke:#000;stroke-width:1.2632;fill:#e5d8b2" height="22.737" width="22.736" y=".63196" x="720.63"/>
 <rect id="AC01" style="stroke:#000;stroke-width:1.2632;fill:#e5d8b2" height="22.737" width="22.736" y=".63196" x="864.63"/>
 <rect id="AD09" style="stroke:#000;stroke-width:1.2632;fill:#e5d8b2" height="22.737" width="22.736" y=".63196" x="816.63"/>
 <rect id="AC07" style="stroke:#000;stroke-width:1.2632;fill:#e5d8b2" height="22.737" width="22.736" y="24.632" x="720.63"/>
 <rect id="AC10" style="stroke:#000;stroke-width:1.2632;fill:#e5d8b2" height="22.737" width="22.736" y="24.632" x="744.63"/>
 <rect id="AB02" style="stroke:#000;stroke-width:1.2632;fill:#e5d8b2" height="22.737" width="22.736" y="24.632" x="768.63"/>
 <rect id="AB07" style="stroke:#000;stroke-width:1.2632;fill:#e5d8b2" height="22.737" width="22.736" y="24.632" x="792.63"/>
 <rect id="AC03" style="stroke:#000;stroke-width:1.2632;fill:#e5d8b2" height="22.737" width="22.736" y="24.632" x="648.63"/>
 <rect id="AC04" style="stroke:#000;stroke-width:1.2632;fill:#e5d8b2" height="22.737" width="22.736" y="24.632" x="672.63"/>
 <rect id="AC05" style="stroke:#000;stroke-width:1.2632;fill:#e5d8b2" height="22.737" width="22.736" y="24.632" x="696.63"/>
 <rect id="AB08" style="stroke:#000;stroke-width:1.2632;fill:#e5d8b2" height="22.737" width="22.736" y="24.632" x="816.63"/>
 <rect id="AB09" style="stroke:#000;stroke-width:1.2632;fill:#e5d8b2" height="22.737" width="22.736" y="24.632" x="840.63"/>
 <rect id="DB07" style="stroke:#000;stroke-width:1.2632;fill:#e5d8b2" height="22.737" width="22.736" y="48.633" x="648.63"/>
 <rect id="FB09" style="stroke:#000;stroke-width:1.2632;fill:#e5d8b2" height="22.737" width="22.736" y="48.633" x="744.63"/>
 <rect id="FB03" style="stroke:#000;stroke-width:1.2632;fill:#e5d8b2" height="22.737" width="22.736" y="48.633" x="720.63"/>
 <rect id="FA03" style="stroke:#000;stroke-width:1.2632;fill:#e5d8b2" height="22.737" width="22.736" y="48.633" x="768.63"/>
 <rect id="FB08" style="stroke:#000;stroke-width:1.2632;fill:#e5d8b2" height="22.737" width="22.736" y="48.633" x="696.63"/>
 <rect id="FB07" style="stroke:#000;stroke-width:1.2632;fill:#e5d8b2" height="22.737" width="22.736" y="48.633" x="672.63"/>
 <rect id="FA04" style="stroke:#000;stroke-width:1.2632;fill:#e5d8b2" height="22.737" width="22.736" y="48.633" x="792.63"/>
 <rect id="BKSP" style="stroke:#000;stroke-width:1.2541;fill:#e5d8b2" height="22.746" width="22.404" y="48.628" x="864.96"/>
 <rect id="FC01" style="stroke:#000;stroke-width:1.1483;fill:#f2e5d8" height="22.852" width="22.851" y="48.575" x="408.57"/>
 <rect id="CD05" style="stroke:#000;stroke-width:1.2632;fill:#e5d8b2" height="22.737" width="22.737" y="48.633" x="504.63"/>
 <rect id="FD10" style="stroke:#000;stroke-width:1.2632;fill:#e5d8b2" height="22.737" width="22.736" y="24.632" x="864.63"/>
 <rect id="BA03" style="stroke:#000;stroke-width:1.2632;fill:#e5d8b2" height="22.737" width="22.737" y="48.633" x="624.63"/>
 <rect id="CD06" style="stroke:#000;stroke-width:1.2632;fill:#e5d8b2" height="22.737" width="22.736" y="48.633" x="576.63"/>
 <rect id="CD03" style="stroke:#000;stroke-width:1.2632;fill:#e5d8b2" height="22.737" width="22.736" y="48.633" x="552.63"/>
 <rect id="FC02" style="stroke:#000;stroke-width:1.2632;fill:#e5d8b2" height="22.737" width="22.736" y="48.633" x="600.63"/>
 <rect id="CD01" style="stroke:#000;stroke-width:1.2632;fill:#e5d8b2" height="22.737" width="22.736" y="48.633" x="528.63"/>
 <rect id="FA05" style="stroke:#000;stroke-width:1.2632;fill:#e5d8b2" height="22.737" width="22.736" y="48.633" x="816.63"/>
 <rect id="FA06" style="stroke:#000;stroke-width:1.2632;fill:#e5d8b2" height="22.737" width="22.736" y="48.633" x="840.63"/>
 <rect id="FC06" style="stroke:#000;stroke-width:1.1483;fill:#f2e5d8" height="22.852" width="22.851" y="48.576" x="432.57"/>
 <rect id="FC07" style="stroke:#000;stroke-width:1.1483;fill:#f2e5d8" height="22.852" width="22.851" y="48.576" x="456.57"/>
 <rect id="FC08" style="stroke:#000;stroke-width:1.1483;fill:#f2e5d8" height="22.852" width="22.851" y="48.575" x="480.57"/>
 <rect id="CC04" style="stroke:#000;stroke-width:1.2632;fill:#e5d8b2" height="22.737" width="22.736" y=".63158" x="240.63"/>
 <rect id="CC05" style="stroke:#000;stroke-width:1.2632;fill:#e5d8b2" height="22.737" width="22.736" y=".63158" x="264.63"/>
 <rect id="CC06" style="stroke:#000;stroke-width:1.2632;fill:#e5d8b2" height="22.737" width="22.736" y=".63158" x="288.63"/>
 <rect id="CC07" style="stroke:#000;stroke-width:1.2632;fill:#e5d8b2" height="22.737" width="22.736" y=".63158" x="312.63"/>
 <rect id="CC01" style="stroke:#000;stroke-width:1.2632;fill:#e5d8b2" height="22.737" width="22.736" y=".63158" x="168.63"/>
 <rect id="CC02" style="stroke:#000;stroke-width:1.2632;fill:#e5d8b2" height="22.737" width="22.736" y=".63158" x="192.63"/>
 <rect id="CC03" style="stroke:#000;stroke-width:1.2632;fill:#e5d8b2" height="22.737" width="22.736" y=".63158" x="216.63"/>
 <rect id="CC08" style="stroke:#000;stroke-width:1.2632;fill:#e5d8b2" height="22.737" width="22.736" y=".63158" x="336.63"/>
 <rect id="CC09" style="stroke:#000;stroke-width:1.2632;fill:#e5d8b2" height="22.737" width="22.736" y=".63158" x="360.63"/>
 <rect id="CA03" style="stroke:#000;stroke-width:1.2632;fill:#e5d8b2" height="22.737" width="22.736" y=".63158" x="384.63"/>
 <rect id="CB01" style="stroke:#000;stroke-width:1.2632;fill:#e5d8b2" height="22.737" width="22.736" y="24.632" x="168.63"/>
 <rect id="CB05" style="stroke:#000;stroke-width:1.2632;fill:#e5d8b2" height="22.737" width="22.736" y="24.632" x="264.63"/>
 <rect id="CB04" style="stroke:#000;stroke-width:1.2632;fill:#e5d8b2" height="22.737" width="22.736" y="24.632" x="240.63"/>
 <rect id="CB06" style="stroke:#000;stroke-width:1.2632;fill:#e5d8b2" height="22.737" width="22.736" y="24.632" x="288.63"/>
 <rect id="CB03" style="stroke:#000;stroke-width:1.2632;fill:#e5d8b2" height="22.737" width="22.736" y="24.632" x="216.63"/>
 <rect id="CB02" style="stroke:#000;stroke-width:1.2632;fill:#e5d8b2" height="22.737" width="22.736" y="24.632" x="192.63"/>
 <rect id="CB07" style="stroke:#000;stroke-width:1.2632;fill:#e5d8b2" height="22.737" width="22.736" y="24.632" x="312.63"/>
 <rect id="CA04" style="stroke:#000;stroke-width:1.2541;fill:#e5d8b2" height="22.746" width="22.404" y="24.627" x="384.97"/>
 <rect id="settings" style="stroke:#000;stroke-width:1.1483;fill:#f2e5d8" height="22.852" width="22.851" y="48.575" x="168.57"/>
 <rect id="FB06" style="stroke:#000;stroke-width:1.2632;fill:#e5d8b2" height="22.737" width="22.737" y="48.632" x="264.63"/>
 <rect id="CA06" style="stroke:#000;stroke-width:1.2632;fill:#e5d8b2" height="22.737" width="22.737" y="48.632" x="384.63"/>
 <rect id="FB05" style="stroke:#000;stroke-width:1.2632;fill:#e5d8b2" height="22.737" width="22.736" y="48.632" x="336.63"/>
 <rect id="DD09" style="stroke:#000;stroke-width:1.2632;fill:#e5d8b2" height="22.737" width="22.736" y="48.632" x="312.63"/>
 <rect id="CA05" style="stroke:#000;stroke-width:1.2632;fill:#e5d8b2" height="22.737" width="22.736" y="48.632" x="360.63"/>
 <rect id="DC09" style="stroke:#000;stroke-width:1.2632;fill:#e5d8b2" height="22.737" width="22.736" y="48.632" x="288.63"/>
 <rect id="CB08" style="stroke:#000;stroke-width:1.2632;fill:#e5d8b2" height="22.737" width="22.736" y="24.632" x="336.63"/>
 <rect id="CB09" style="stroke:#000;stroke-width:1.2632;fill:#e5d8b2" height="22.737" width="22.736" y="24.632" x="360.63"/>
 <rect id="quit" style="stroke:#000;stroke-width:1.1483;fill:#f2e5d8" height="22.852" width="22.851" y="48.575" x="192.57"/>
 <rect id="hide" style="stroke:#000;stroke-width:1.1483;fill:#f2e5d8" height="22.852" width="22.851" y="48.575" x="216.57"/>
 <rect id="move" style="stroke:#000;stroke-width:1.1483;fill:#f2e5d8" height="22.852" width="22.851" y="48.575" x="240.57"/>
 <rect id="BC04" style="stroke:#000;stroke-width:1.2632;fill:#e5d8b2" height="22.737" width="22.736" y=".63196" x="480.63"/>
 <rect id="BC05" style="stroke:#000;stroke-width:1.2632;fill:#e5d8b2" height="22.737" width="22.736" y=".63196" x="504.63"/>
 <rect id="BC06" style="stroke:#000;stroke-width:1.2632;fill:#e5d8b2" height="22.737" width="22.736" y=".63196" x="528.63"/>
 <rect id="BC07" style="stroke:#000;stroke-width:1.2632;fill:#e5d8b2" height="22.737" width="22.736" y=".63196" x="552.63"/>
 <rect id="BC01" style="stroke:#000;stroke-width:1.2632;fill:#e5d8b2" height="22.737" width="22.736" y=".63196" x="408.63"/>
 <rect id="BC02" style="stroke:#000;stroke-width:1.2632;fill:#e5d8b2" height="22.737" width="22.736" y=".63196" x="432.63"/>
 <rect id="BC03" style="stroke:#000;stroke-width:1.2632;fill:#e5d8b2" height="22.737" width="22.736" y=".63196" x="456.63"/>
 <rect id="BC08" style="stroke:#000;stroke-width:1.2632;fill:#e5d8b2" height="22.737" width="22.736" y=".63196" x="576.63"/>
 <rect id="BC09" style="stroke:#000;stroke-width:1.2632;fill:#e5d8b2" height="22.737" width="22.736" y=".63196" x="600.63"/>
 <rect id="BC10" style="stroke:#000;stroke-width:1.2632;fill:#e5d8b2" height="22.737" width="22.736" y=".63196" x="624.63"/>
 <rect id="BB01" style="stroke:#000;stroke-width:1.2632;fill:#e5d8b2" height="22.737" width="22.736" y="24.632" x="408.63"/>
 <rect id="BB05" style="stroke:#000;stroke-width:1.2632;fill:#e5d8b2" height="22.737" width="22.736" y="24.632" x="504.63"/>
 <rect id="BB04" style="stroke:#000;stroke-width:1.2632;fill:#e5d8b2" height="22.737" width="22.736" y="24.632" x="480.63"/>
 <rect id="BB06" style="stroke:#000;stroke-width:1.2632;fill:#e5d8b2" height="22.737" width="22.736" y="24.632" x="528.63"/>
 <rect id="BB03" style="stroke:#000;stroke-width:1.2632;fill:#e5d8b2" height="22.737" width="22.736" y="24.632" x="456.63"/>
 <rect id="BB02" style="stroke:#000;stroke-width:1.2632;fill:#e5d8b2" height="22.737" width="22.736" y="24.632" x="432.63"/>
 <rect id="BB07" style="stroke:#000;stroke-width:1.2632;fill:#e5d8b2" height="22.737" width="22.736" y="24.632" x="552.63"/>
 <rect id="BA06" style="stroke:#000;stroke-width:1.2541;fill:#e5d8b2" height="22.746" width="22.404" y="24.628" x="624.96"/>
 <rect id="BB08" style="stroke:#000;stroke-width:1.2632;fill:#e5d8b2" height="22.737" width="22.736" y="24.632" x="576.63"/>
 <rect id="BB09" style="stroke:#000;stroke-width:1.2632;fill:#e5d8b2" height="22.737" width="22.736" y="24.632" x="600.63"/>
 <rect id="BD09" style="stroke:#000;stroke-width:1.2632;fill:#e5d8b2" height="22.737" width="22.736" y="24.632" x="96.63"/>
 <rect id="BD03" style="stroke:#000;stroke-width:1.2632;fill:#e5d8b2" height="22.737" width="22.736" y="24.632" x="144.63"/>
 <rect id="BD02" style="stroke:#000;stroke-width:1.2632;fill:#e5d8b2" height="22.737" width="22.736" y=".63158" x="144.63"/>
 <rect id="BD07" style="stroke:#000;stroke-width:1.2632;fill:#e5d8b2" height="22.737" width="22.736" y="48.632" x="120.63"/>
 <rect id="BD06" style="stroke:#000;stroke-width:1.2632;fill:#e5d8b2" height="22.737" width="22.736" y="24.632" x="120.63"/>
 <rect id="BD05" style="stroke:#000;stroke-width:1.2632;fill:#e5d8b2" height="22.737" width="22.736" y=".63158" x="120.63"/>
 <rect id="BD04" style="stroke:#000;stroke-width:1.2632;fill:#e5d8b2" height="22.737" width="22.736" y="48.632" x="144.63"/>
 <rect id="BD10" style="stroke:#000;stroke-width:1.2632;fill:#e5d8b2" height="22.737" width="22.736" y="48.632" x="96.63"/>
 <rect id="BD08" style="stroke:#000;stroke-width:1.2632;fill:#e5d8b2" height="22.737" width="22.736" y=".63158" x="96.63"/>
 <rect id="DA06" style="stroke:#000;stroke-width:1.2632;fill:#e5d8b2" height="22.737" width="22.737" y=".63159" x="72.63"/>
 <rect id="DA04" style="stroke:#000;stroke-width:1.2632;fill:#e5d8b2" height="22.737" width="22.736" y="48.632" x="72.63"/>
 <rect id="DA03" style="stroke:#000;stroke-width:1.2632;fill:#e5d8b2" height="22.737" width="22.736" y="24.632" x="72.63"/>
 <rect id="DA05" style="stroke:#000;stroke-width:1.2632;fill:#e5d8b2" height="22.737" width="22.736" y=".63158" x="48.631"/>
 <rect id="DB08" style="stroke:#000;stroke-width:1.2632;fill:#e5d8b2" height="22.737" width="22.736" y="24.632" x="48.631"/>
 <rect id="DB09" style="stroke:#000;stroke-width:1.2632;fill:#e5d8b2" height="22.737" width="22.736" y="48.632" x="48.631"/>
 <rect id="EC02" style="stroke:#000;stroke-width:1.2632;fill:#000080" height="22.737" width="22.737" y=".63159" x="24.631"/>
 <rect id="EC04" style="stroke:#000;stroke-width:1.2632;fill:#e5d8b2" height="22.737" width="22.736" y="48.632" x="24.631"/>
 <rect id="EC07" style="stroke:#000;stroke-width:1.2632;fill:#e5d8b2" height="22.737" width="22.736" y="24.632" x="24.631"/>
 <rect id="ED03" style="stroke:#000;stroke-width:1.2632;fill:#000080" height="22.737" width="22.737" y=".63158" x=".63158"/>
 <rect id="ED01" style="stroke:#000;stroke-width:1.2632;fill:#e5d8b2" height="22.737" width="22.736" y="48.632" x=".63158"/>
 <rect id="ED02" style="stroke:#000;stroke-width:1.2632;fill:#e5d8b2" height="22.737" width="22.736" y="24.632" x=".63158"/>
</svg>
