<?xml version="1.0" encoding="UTF-8" standalone="no"?>
<!-- Created for Onboard -->
<svg id="svg2" xmlns:rdf="http://www.w3.org/1999/02/22-rdf-syntax-ns#" xmlns="http://www.w3.org/2000/svg" height="96" width="240" version="1.0" xmlns:cc="http://creativecommons.org/ns#" xmlns:dc="http://purl.org/dc/elements/1.1/">
 <metadata id="metadata3346">
  <rdf:RDF>
   <cc:Work rdf:about="">
    <dc:format>image/svg+xml</dc:format>
    <dc:type rdf:resource="http://purl.org/dc/dcmitype/StillImage"/>
    <dc:title>Whiteboard-Numbers.svg</dc:title>
    <cc:license rdf:resource="https://www.gnu.org/licenses/gpl.txt"/>
    <dc:creator>
     <cc:Agent>
      <dc:title>Johannes Almer</dc:title>
     </cc:Agent>
    </dc:creator>
    <dc:rights>
     <cc:Agent>
      <dc:title>GPL-3+ license</dc:title>
     </cc:Agent>
    </dc:rights>
    <dc:publisher>
     <cc:Agent>
      <dc:title>Onboard Devel Team</dc:title>
     </cc:Agent>
    </dc:publisher>
    <dc:source>https://launchpad.net/onboard</dc:source>
    <dc:relation>This file is part of Onboard</dc:relation>
    <dc:contributor>
     <cc:Agent>
      <dc:title>Copyright © 2016, Francesco Fumanti &lt;francesco.fumanti@gmx.net&gt;
Copyright © 2014, Johannes Almer</dc:title>
     </cc:Agent>
    </dc:contributor>
   </cc:Work>
  </rdf:RDF>
 </metadata>
 <rect id="BD09" style="stroke:#000;stroke-width:1.2632;fill:#e5d8b2" height="22.737" width="22.736" y=".63081" x="192.63"/>
 <rect id="BD03" style="stroke:#000;stroke-width:1.2632;fill:#e5d8b2" height="22.737" width="22.736" y=".63081" x="48.632"/>
 <rect id="BD02" style="stroke:#000;stroke-width:1.2632;fill:#e5d8b2" height="22.737" width="22.736" y=".63081" x="24.632"/>
 <rect id="BD01" style="stroke:#000;stroke-width:1.2632;fill:#e5d8b2" height="22.737" width="22.736" y=".63081" x=".63158"/>
 <rect id="BD07" style="stroke:#000;stroke-width:1.2632;fill:#e5d8b2" height="22.737" width="22.736" y=".63081" x="144.63"/>
 <rect id="BD06" style="stroke:#000;stroke-width:1.2632;fill:#e5d8b2" height="22.737" width="22.736" y=".63081" x="120.63"/>
 <rect id="BD05" style="stroke:#000;stroke-width:1.2632;fill:#e5d8b2" height="22.737" width="22.736" y=".63081" x="96.632"/>
 <rect id="BD04" style="stroke:#000;stroke-width:1.2632;fill:#e5d8b2" height="22.737" width="22.736" y=".63081" x="72.632"/>
 <rect id="BD10" style="stroke:#000;stroke-width:1.2632;fill:#e5d8b2" height="22.737" width="22.736" y=".63081" x="216.63"/>
 <rect id="BD08" style="stroke:#000;stroke-width:1.2632;fill:#e5d8b2" height="22.737" width="22.736" y=".63081" x="168.63"/>
 <rect id="BC04" style="stroke:#000;stroke-width:1.2632;fill:#e5d8b2" height="22.737" width="22.736" y="24.631" x="72.632"/>
 <rect id="BC05" style="stroke:#000;stroke-width:1.2632;fill:#e5d8b2" height="22.737" width="22.736" y="24.631" x="96.632"/>
 <rect id="BC06" style="stroke:#000;stroke-width:1.2632;fill:#e5d8b2" height="22.737" width="22.736" y="24.631" x="120.63"/>
 <rect id="BC07" style="stroke:#000;stroke-width:1.2632;fill:#e5d8b2" height="22.737" width="22.736" y="24.631" x="144.63"/>
 <rect id="BC01" style="stroke:#000;stroke-width:1.2632;fill:#e5d8b2" height="22.737" width="22.736" y="24.631" x=".63158"/>
 <rect id="BC02" style="stroke:#000;stroke-width:1.2632;fill:#e5d8b2" height="22.737" width="22.736" y="24.631" x="24.632"/>
 <rect id="BC03" style="stroke:#000;stroke-width:1.2632;fill:#e5d8b2" height="22.737" width="22.736" y="24.631" x="48.632"/>
 <rect id="BC08" style="stroke:#000;stroke-width:1.2632;fill:#e5d8b2" height="22.737" width="22.736" y="24.631" x="168.63"/>
 <rect id="BC09" style="stroke:#000;stroke-width:1.2632;fill:#e5d8b2" height="22.737" width="22.736" y="24.631" x="192.63"/>
 <rect id="BC10" style="stroke:#000;stroke-width:1.2632;fill:#e5d8b2" height="22.737" width="22.736" y="24.631" x="216.63"/>
 <rect id="BB01" style="stroke:#000;stroke-width:1.2632;fill:#e5d8b2" height="22.737" width="22.736" y="48.632" x=".63119"/>
 <rect id="BB05" style="stroke:#000;stroke-width:1.2632;fill:#e5d8b2" height="22.737" width="22.736" y="48.632" x="96.631"/>
 <rect id="BB04" style="stroke:#000;stroke-width:1.2632;fill:#e5d8b2" height="22.737" width="22.736" y="48.632" x="72.631"/>
 <rect id="BB06" style="stroke:#000;stroke-width:1.2632;fill:#e5d8b2" height="22.737" width="22.736" y="48.632" x="120.63"/>
 <rect id="BB03" style="stroke:#000;stroke-width:1.2632;fill:#e5d8b2" height="22.737" width="22.736" y="48.632" x="48.631"/>
 <rect id="BB02" style="stroke:#000;stroke-width:1.2632;fill:#e5d8b2" height="22.737" width="22.736" y="48.632" x="24.631"/>
 <rect id="BB07" style="stroke:#000;stroke-width:1.2632;fill:#e5d8b2" height="22.737" width="22.736" y="48.632" x="144.63"/>
 <rect id="BKSP" style="stroke:#000;stroke-width:1.2541;fill:#e5d8b2" height="22.746" width="22.404" y="48.627" x="216.97"/>
 <rect id="layer1" style="stroke:#000;stroke-width:1.1483;fill:#f2e5d8" height="22.852" width="22.851" y="72.574" x=".57377"/>
 <rect id="layer4" style="stroke:#000;stroke-width:1.2632;fill:#e5d8b2" height="22.737" width="22.737" y="72.632" x="96.631"/>
 <rect id="BA06" style="stroke:#000;stroke-width:1.2632;fill:#e5d8b2" height="22.737" width="22.737" y="72.632" x="216.63"/>
 <rect id="BA04" style="stroke:#000;stroke-width:1.2632;fill:#e5d8b2" height="22.737" width="22.736" y="72.632" x="168.63"/>
 <rect id="BA03" style="stroke:#000;stroke-width:1.2632;fill:#e5d8b2" height="22.737" width="22.736" y="72.632" x="144.63"/>
 <rect id="BA05" style="stroke:#000;stroke-width:1.2632;fill:#e5d8b2" height="22.737" width="22.736" y="72.632" x="192.63"/>
 <rect id="layer5" style="stroke:#000;stroke-width:1.2632;fill:#e5d8b2" height="22.737" width="22.736" y="72.632" x="120.63"/>
 <rect id="BB08" style="stroke:#000;stroke-width:1.2632;fill:#e5d8b2" height="22.737" width="22.736" y="48.632" x="168.63"/>
 <rect id="BB09" style="stroke:#000;stroke-width:1.2632;fill:#e5d8b2" height="22.737" width="22.736" y="48.632" x="192.63"/>
 <rect id="layer2" style="stroke:#000;stroke-width:1.1483;fill:#f2e5d8" height="22.852" width="22.851" y="72.575" x="24.575"/>
 <rect id="layer3" style="stroke:#000;stroke-width:1.1483;fill:#f2e5d8" height="22.852" width="22.851" y="72.575" x="48.574"/>
 <rect id="layer0" style="stroke:#000;stroke-width:1.1483;fill:#f2e5d8" height="22.852" width="22.851" y="72.575" x="72.574"/>
</svg>
